  0
SECTION
  2
HEADER
  9
$ANGBASE
  50
0.0
  9
$ANGDIR
  70
1
  9
$MEASUREMENT
  70
1
  0
ENDSEC
  0
SECTION
  2
TABLES
  0
TABLE
  2
LTYPE
  70
4
  0
LTYPE
  5
40F
  2
CONTINUOUS
  70
0
  3
Solid line
  72
65
  73
0
  40
0.0
  0
LTYPE
  5
410
  2
DASHDOT
 70
0
  3
Dash Dot ____ _ ____ _
 72
65
 73
4
 40
2.0
 49
1.25
 49
-0.25
 49
0.25
 49
-0.25
  0
LTYPE
  5
411
  2
DASHED
 70
0
  3
Dashed __ __ __ __ __
 72
65
 73
2
 40
0.75
 49
0.5
 49
-0.25
  0
LTYPE
  5
43B
  2
DOTTED
 70
0
  3
Dotted .  .  .  .
 72
65
 73
2
 40
0.2
 49
0.0
 49
-0.2
  0
ENDTAB
  0
TABLE
  2
STYLE
  70
4
  0
STYLE
  2
KICAD
  70
0
  40
0
  41
1
  42
1
  50
0
  71
0
  3
isocp.shx
  0
STYLE
  2
KICADB
  70
0
  40
0
  41
1
  42
1
  50
0
  71
0
  3
isocp.shx
  0
STYLE
  2
KICADI
  70
0
  40
0
  41
1
  42
1
  50
15
  71
0
  3
isocp.shx
  0
STYLE
  2
KICADBI
  70
0
  40
0
  41
1
  42
1
  50
15
  71
0
  3
isocp.shx
  0
ENDTAB
  0
TABLE
  2
LAYER
  70
1
  0
LAYER
  2
BLACK
  70
0
  62
7
  6
CONTINUOUS
  0
ENDTAB
  0
ENDSEC
  0
SECTION
  2
ENTITIES
0
LINE
8
BLACK
6
CONTINUOUS
10
108.01
20
-89.1717
11
108.013
21
-89.1711
0
LINE
8
BLACK
6
CONTINUOUS
10
108.013
20
-89.1711
11
108.016
21
-89.1728
0
LINE
8
BLACK
6
CONTINUOUS
10
108.016
20
-89.1728
11
108.026
21
-89.1745
0
LINE
8
BLACK
6
CONTINUOUS
10
108.026
20
-89.1745
11
108.041
21
-89.187
0
LINE
8
BLACK
6
CONTINUOUS
10
108.041
20
-89.187
11
108.057
21
-89.1968
0
LINE
8
BLACK
6
CONTINUOUS
10
108.057
20
-89.1968
11
108.06
21
-89.2031
0
LINE
8
BLACK
6
CONTINUOUS
10
108.06
20
-89.2031
11
108.065
21
-89.2075
0
LINE
8
BLACK
6
CONTINUOUS
10
108.065
20
-89.2075
11
108.068
21
-89.2267
0
LINE
8
BLACK
6
CONTINUOUS
10
108.068
20
-89.2267
11
108.075
21
-89.245
0
LINE
8
BLACK
6
CONTINUOUS
10
108.075
20
-89.245
11
108.075
21
-100.245
0
LINE
8
BLACK
6
CONTINUOUS
10
108.075
20
-100.245
11
108.073
21
-100.255
0
LINE
8
BLACK
6
CONTINUOUS
10
108.073
20
-100.255
11
108.074
21
-100.258
0
LINE
8
BLACK
6
CONTINUOUS
10
108.074
20
-100.258
11
108.072
21
-100.261
0
LINE
8
BLACK
6
CONTINUOUS
10
108.072
20
-100.261
11
108.07
21
-100.271
0
LINE
8
BLACK
6
CONTINUOUS
10
108.07
20
-100.271
11
108.058
21
-100.286
0
LINE
8
BLACK
6
CONTINUOUS
10
108.058
20
-100.286
11
108.048
21
-100.302
0
LINE
8
BLACK
6
CONTINUOUS
10
108.048
20
-100.302
11
108.042
21
-100.305
0
LINE
8
BLACK
6
CONTINUOUS
10
108.042
20
-100.305
11
108.037
21
-100.31
0
LINE
8
BLACK
6
CONTINUOUS
10
108.037
20
-100.31
11
108.018
21
-100.313
0
LINE
8
BLACK
6
CONTINUOUS
10
108.018
20
-100.313
11
108
21
-100.32
0
LINE
8
BLACK
6
CONTINUOUS
10
108
20
-100.32
11
92
21
-100.32
0
LINE
8
BLACK
6
CONTINUOUS
10
92
20
-100.32
11
91.9903
21
-100.318
0
LINE
8
BLACK
6
CONTINUOUS
10
91.9903
20
-100.318
11
91.987
21
-100.319
0
LINE
8
BLACK
6
CONTINUOUS
10
91.987
20
-100.319
11
91.9841
21
-100.317
0
LINE
8
BLACK
6
CONTINUOUS
10
91.9841
20
-100.317
11
91.9743
21
-100.315
0
LINE
8
BLACK
6
CONTINUOUS
10
91.9743
20
-100.315
11
91.9594
21
-100.303
0
LINE
8
BLACK
6
CONTINUOUS
10
91.9594
20
-100.303
11
91.9425
21
-100.293
0
LINE
8
BLACK
6
CONTINUOUS
10
91.9425
20
-100.293
11
91.9402
21
-100.287
0
LINE
8
BLACK
6
CONTINUOUS
10
91.9402
20
-100.287
11
91.935
21
-100.282
0
LINE
8
BLACK
6
CONTINUOUS
10
91.935
20
-100.282
11
91.9317
21
-100.263
0
LINE
8
BLACK
6
CONTINUOUS
10
91.9317
20
-100.263
11
91.925
21
-100.245
0
LINE
8
BLACK
6
CONTINUOUS
10
91.925
20
-100.245
11
91.925
21
-89.245
0
LINE
8
BLACK
6
CONTINUOUS
10
91.925
20
-89.245
11
91.9267
21
-89.2353
0
LINE
8
BLACK
6
CONTINUOUS
10
91.9267
20
-89.2353
11
91.9261
21
-89.232
0
LINE
8
BLACK
6
CONTINUOUS
10
91.9261
20
-89.232
11
91.9278
21
-89.2291
0
LINE
8
BLACK
6
CONTINUOUS
10
91.9278
20
-89.2291
11
91.9295
21
-89.2193
0
LINE
8
BLACK
6
CONTINUOUS
10
91.9295
20
-89.2193
11
91.942
21
-89.2044
0
LINE
8
BLACK
6
CONTINUOUS
10
91.942
20
-89.2044
11
91.9518
21
-89.1875
0
LINE
8
BLACK
6
CONTINUOUS
10
91.9518
20
-89.1875
11
91.9581
21
-89.1852
0
LINE
8
BLACK
6
CONTINUOUS
10
91.9581
20
-89.1852
11
91.9625
21
-89.18
0
LINE
8
BLACK
6
CONTINUOUS
10
91.9625
20
-89.18
11
91.9817
21
-89.1767
0
LINE
8
BLACK
6
CONTINUOUS
10
91.9817
20
-89.1767
11
92
21
-89.17
0
LINE
8
BLACK
6
CONTINUOUS
10
92
20
-89.17
11
108
21
-89.17
0
LINE
8
BLACK
6
CONTINUOUS
10
108
20
-89.17
11
108.01
21
-89.1717
0
LINE
8
BLACK
6
CONTINUOUS
10
92.075
20
-89.32
11
92.075
21
-100.17
0
LINE
8
BLACK
6
CONTINUOUS
10
92.075
20
-100.17
11
107.925
21
-100.17
0
LINE
8
BLACK
6
CONTINUOUS
10
107.925
20
-100.17
11
107.925
21
-89.32
0
LINE
8
BLACK
6
CONTINUOUS
10
107.925
20
-89.32
11
92.075
21
-89.32
0
LINE
8
BLACK
6
CONTINUOUS
10
101.475
20
-99.3182
11
101.492
21
-99.3664
0
LINE
8
BLACK
6
CONTINUOUS
10
101.492
20
-99.3664
11
101.492
21
-99.8914
0
LINE
8
BLACK
6
CONTINUOUS
10
101.492
20
-99.8914
11
101.703
21
-99.8914
0
LINE
8
BLACK
6
CONTINUOUS
10
101.703
20
-99.8914
11
101.729
21
-99.896
0
LINE
8
BLACK
6
CONTINUOUS
10
101.729
20
-99.896
11
101.768
21
-99.9289
0
LINE
8
BLACK
6
CONTINUOUS
10
101.768
20
-99.9289
11
101.777
21
-99.9795
0
LINE
8
BLACK
6
CONTINUOUS
10
101.777
20
-99.9795
11
101.751
21
-100.024
0
LINE
8
BLACK
6
CONTINUOUS
10
101.751
20
-100.024
11
101.703
21
-100.041
0
LINE
8
BLACK
6
CONTINUOUS
10
101.703
20
-100.041
11
101.417
21
-100.041
0
LINE
8
BLACK
6
CONTINUOUS
10
101.417
20
-100.041
11
101.407
21
-100.04
0
LINE
8
BLACK
6
CONTINUOUS
10
101.407
20
-100.04
11
101.404
21
-100.04
0
LINE
8
BLACK
6
CONTINUOUS
10
101.404
20
-100.04
11
101.401
21
-100.039
0
LINE
8
BLACK
6
CONTINUOUS
10
101.401
20
-100.039
11
101.392
21
-100.037
0
LINE
8
BLACK
6
CONTINUOUS
10
101.392
20
-100.037
11
101.377
21
-100.024
0
LINE
8
BLACK
6
CONTINUOUS
10
101.377
20
-100.024
11
101.36
21
-100.015
0
LINE
8
BLACK
6
CONTINUOUS
10
101.36
20
-100.015
11
101.357
21
-100.008
0
LINE
8
BLACK
6
CONTINUOUS
10
101.357
20
-100.008
11
101.352
21
-100.004
0
LINE
8
BLACK
6
CONTINUOUS
10
101.352
20
-100.004
11
101.349
21
-99.9847
0
LINE
8
BLACK
6
CONTINUOUS
10
101.349
20
-99.9847
11
101.342
21
-99.9664
0
LINE
8
BLACK
6
CONTINUOUS
10
101.342
20
-99.9664
11
101.342
21
-99.3664
0
LINE
8
BLACK
6
CONTINUOUS
10
101.342
20
-99.3664
11
101.347
21
-99.3408
0
LINE
8
BLACK
6
CONTINUOUS
10
101.347
20
-99.3408
11
101.38
21
-99.3015
0
LINE
8
BLACK
6
CONTINUOUS
10
101.38
20
-99.3015
11
101.43
21
-99.2926
0
LINE
8
BLACK
6
CONTINUOUS
10
101.43
20
-99.2926
11
101.475
21
-99.3182
0
LINE
8
BLACK
6
CONTINUOUS
10
102.055
20
-99.2933
11
102.059
21
-99.2926
0
LINE
8
BLACK
6
CONTINUOUS
10
102.059
20
-99.2926
11
102.078
21
-99.3034
0
LINE
8
BLACK
6
CONTINUOUS
10
102.078
20
-99.3034
11
102.098
21
-99.3122
0
LINE
8
BLACK
6
CONTINUOUS
10
102.098
20
-99.3122
11
102.099
21
-99.3161
0
LINE
8
BLACK
6
CONTINUOUS
10
102.099
20
-99.3161
11
102.103
21
-99.3182
0
LINE
8
BLACK
6
CONTINUOUS
10
102.103
20
-99.3182
11
102.111
21
-99.3387
0
LINE
8
BLACK
6
CONTINUOUS
10
102.111
20
-99.3387
11
102.12
21
-99.3582
0
LINE
8
BLACK
6
CONTINUOUS
10
102.12
20
-99.3582
11
102.119
21
-99.3624
0
LINE
8
BLACK
6
CONTINUOUS
10
102.119
20
-99.3624
11
102.121
21
-99.3664
0
LINE
8
BLACK
6
CONTINUOUS
10
102.121
20
-99.3664
11
102.121
21
-99.8914
0
LINE
8
BLACK
6
CONTINUOUS
10
102.121
20
-99.8914
11
102.217
21
-99.8914
0
LINE
8
BLACK
6
CONTINUOUS
10
102.217
20
-99.8914
11
102.243
21
-99.896
0
LINE
8
BLACK
6
CONTINUOUS
10
102.243
20
-99.896
11
102.282
21
-99.9289
0
LINE
8
BLACK
6
CONTINUOUS
10
102.282
20
-99.9289
11
102.291
21
-99.9795
0
LINE
8
BLACK
6
CONTINUOUS
10
102.291
20
-99.9795
11
102.265
21
-100.024
0
LINE
8
BLACK
6
CONTINUOUS
10
102.265
20
-100.024
11
102.217
21
-100.041
0
LINE
8
BLACK
6
CONTINUOUS
10
102.217
20
-100.041
11
101.874
21
-100.041
0
LINE
8
BLACK
6
CONTINUOUS
10
101.874
20
-100.041
11
101.849
21
-100.037
0
LINE
8
BLACK
6
CONTINUOUS
10
101.849
20
-100.037
11
101.809
21
-100.004
0
LINE
8
BLACK
6
CONTINUOUS
10
101.809
20
-100.004
11
101.8
21
-99.9534
0
LINE
8
BLACK
6
CONTINUOUS
10
101.8
20
-99.9534
11
101.826
21
-99.909
0
LINE
8
BLACK
6
CONTINUOUS
10
101.826
20
-99.909
11
101.874
21
-99.8914
0
LINE
8
BLACK
6
CONTINUOUS
10
101.874
20
-99.8914
11
101.971
21
-99.8914
0
LINE
8
BLACK
6
CONTINUOUS
10
101.971
20
-99.8914
11
101.971
21
-99.5719
0
LINE
8
BLACK
6
CONTINUOUS
10
101.971
20
-99.5719
11
101.966
21
-99.5752
0
LINE
8
BLACK
6
CONTINUOUS
10
101.966
20
-99.5752
11
101.965
21
-99.5764
0
LINE
8
BLACK
6
CONTINUOUS
10
101.965
20
-99.5764
11
101.908
21
-99.6049
0
LINE
8
BLACK
6
CONTINUOUS
10
101.908
20
-99.6049
11
101.883
21
-99.6124
0
LINE
8
BLACK
6
CONTINUOUS
10
101.883
20
-99.6124
11
101.833
21
-99.6004
0
LINE
8
BLACK
6
CONTINUOUS
10
101.833
20
-99.6004
11
101.802
21
-99.5592
0
LINE
8
BLACK
6
CONTINUOUS
10
101.802
20
-99.5592
11
101.805
21
-99.508
0
LINE
8
BLACK
6
CONTINUOUS
10
101.805
20
-99.508
11
101.841
21
-99.4708
0
LINE
8
BLACK
6
CONTINUOUS
10
101.841
20
-99.4708
11
101.887
21
-99.4476
0
LINE
8
BLACK
6
CONTINUOUS
10
101.887
20
-99.4476
11
101.93
21
-99.4044
0
LINE
8
BLACK
6
CONTINUOUS
10
101.93
20
-99.4044
11
101.983
21
-99.3248
0
LINE
8
BLACK
6
CONTINUOUS
10
101.983
20
-99.3248
11
102.001
21
-99.306
0
LINE
8
BLACK
6
CONTINUOUS
10
102.001
20
-99.306
11
102.005
21
-99.3048
0
LINE
8
BLACK
6
CONTINUOUS
10
102.005
20
-99.3048
11
102.008
21
-99.3015
0
LINE
8
BLACK
6
CONTINUOUS
10
102.008
20
-99.3015
11
102.03
21
-99.2977
0
LINE
8
BLACK
6
CONTINUOUS
10
102.03
20
-99.2977
11
102.051
21
-99.2916
0
LINE
8
BLACK
6
CONTINUOUS
10
102.051
20
-99.2916
11
102.055
21
-99.2933
0
LINE
8
BLACK
6
CONTINUOUS
10
93.0111
20
-99.1984
11
93.0145
21
-99.1979
0
LINE
8
BLACK
6
CONTINUOUS
10
93.0145
20
-99.1979
11
93.0172
21
-99.1995
0
LINE
8
BLACK
6
CONTINUOUS
10
93.0172
20
-99.1995
11
93.0257
21
-99.201
0
LINE
8
BLACK
6
CONTINUOUS
10
93.0257
20
-99.201
11
93.0411
21
-99.2139
0
LINE
8
BLACK
6
CONTINUOUS
10
93.0411
20
-99.2139
11
93.0584
21
-99.2244
0
LINE
8
BLACK
6
CONTINUOUS
10
93.0584
20
-99.2244
11
93.0604
21
-99.2301
0
LINE
8
BLACK
6
CONTINUOUS
10
93.0604
20
-99.2301
11
93.065
21
-99.2339
0
LINE
8
BLACK
6
CONTINUOUS
10
93.065
20
-99.2339
11
93.0685
21
-99.2538
0
LINE
8
BLACK
6
CONTINUOUS
10
93.0685
20
-99.2538
11
93.075
21
-99.273
0
LINE
8
BLACK
6
CONTINUOUS
10
93.075
20
-99.273
11
93.0728
21
-99.2786
0
LINE
8
BLACK
6
CONTINUOUS
10
93.0728
20
-99.2786
11
93.0739
21
-99.2845
0
LINE
8
BLACK
6
CONTINUOUS
10
93.0739
20
-99.2845
11
93.0637
21
-99.302
0
LINE
8
BLACK
6
CONTINUOUS
10
93.0637
20
-99.302
11
93.0564
21
-99.3208
0
LINE
8
BLACK
6
CONTINUOUS
10
93.0564
20
-99.3208
11
92.9465
21
-99.4465
0
LINE
8
BLACK
6
CONTINUOUS
10
92.9465
20
-99.4465
11
92.9764
21
-99.4615
0
LINE
8
BLACK
6
CONTINUOUS
10
92.9764
20
-99.4615
11
92.9944
21
-99.4748
0
LINE
8
BLACK
6
CONTINUOUS
10
92.9944
20
-99.4748
11
92.9959
21
-99.4755
0
LINE
8
BLACK
6
CONTINUOUS
10
92.9959
20
-99.4755
11
93.0245
21
-99.5041
0
LINE
8
BLACK
6
CONTINUOUS
10
93.0245
20
-99.5041
11
93.0373
21
-99.5225
0
LINE
8
BLACK
6
CONTINUOUS
10
93.0373
20
-99.5225
11
93.0385
21
-99.5236
0
LINE
8
BLACK
6
CONTINUOUS
10
93.0385
20
-99.5236
11
93.0671
21
-99.5807
0
LINE
8
BLACK
6
CONTINUOUS
10
93.0671
20
-99.5807
11
93.0745
21
-99.6057
0
LINE
8
BLACK
6
CONTINUOUS
10
93.0745
20
-99.6057
11
93.0735
21
-99.6101
0
LINE
8
BLACK
6
CONTINUOUS
10
93.0735
20
-99.6101
11
93.075
21
-99.6143
0
LINE
8
BLACK
6
CONTINUOUS
10
93.075
20
-99.6143
11
93.075
21
-99.7571
0
LINE
8
BLACK
6
CONTINUOUS
10
93.075
20
-99.7571
11
93.0705
21
-99.7828
0
LINE
8
BLACK
6
CONTINUOUS
10
93.0705
20
-99.7828
11
93.0676
21
-99.7862
0
LINE
8
BLACK
6
CONTINUOUS
10
93.0676
20
-99.7862
11
93.0671
21
-99.7907
0
LINE
8
BLACK
6
CONTINUOUS
10
93.0671
20
-99.7907
11
93.0385
21
-99.8478
0
LINE
8
BLACK
6
CONTINUOUS
10
93.0385
20
-99.8478
11
93.0252
21
-99.8658
0
LINE
8
BLACK
6
CONTINUOUS
10
93.0252
20
-99.8658
11
93.0245
21
-99.8673
0
LINE
8
BLACK
6
CONTINUOUS
10
93.0245
20
-99.8673
11
92.9959
21
-99.8959
0
LINE
8
BLACK
6
CONTINUOUS
10
92.9959
20
-99.8959
11
92.9775
21
-99.9088
0
LINE
8
BLACK
6
CONTINUOUS
10
92.9775
20
-99.9088
11
92.9764
21
-99.9099
0
LINE
8
BLACK
6
CONTINUOUS
10
92.9764
20
-99.9099
11
92.9193
21
-99.9385
0
LINE
8
BLACK
6
CONTINUOUS
10
92.9193
20
-99.9385
11
92.8943
21
-99.9459
0
LINE
8
BLACK
6
CONTINUOUS
10
92.8943
20
-99.9459
11
92.8899
21
-99.9449
0
LINE
8
BLACK
6
CONTINUOUS
10
92.8899
20
-99.9449
11
92.8857
21
-99.9464
0
LINE
8
BLACK
6
CONTINUOUS
10
92.8857
20
-99.9464
11
92.7143
21
-99.9464
0
LINE
8
BLACK
6
CONTINUOUS
10
92.7143
20
-99.9464
11
92.6886
21
-99.9419
0
LINE
8
BLACK
6
CONTINUOUS
10
92.6886
20
-99.9419
11
92.6852
21
-99.939
0
LINE
8
BLACK
6
CONTINUOUS
10
92.6852
20
-99.939
11
92.6807
21
-99.9385
0
LINE
8
BLACK
6
CONTINUOUS
10
92.6807
20
-99.9385
11
92.6236
21
-99.9099
0
LINE
8
BLACK
6
CONTINUOUS
10
92.6236
20
-99.9099
11
92.6056
21
-99.8966
0
LINE
8
BLACK
6
CONTINUOUS
10
92.6056
20
-99.8966
11
92.6041
21
-99.8959
0
LINE
8
BLACK
6
CONTINUOUS
10
92.6041
20
-99.8959
11
92.5755
21
-99.8673
0
LINE
8
BLACK
6
CONTINUOUS
10
92.5755
20
-99.8673
11
92.5606
21
-99.846
0
LINE
8
BLACK
6
CONTINUOUS
10
92.5606
20
-99.846
11
92.5561
21
-99.7949
0
LINE
8
BLACK
6
CONTINUOUS
10
92.5561
20
-99.7949
11
92.5856
21
-99.7528
0
LINE
8
BLACK
6
CONTINUOUS
10
92.5856
20
-99.7528
11
92.6351
21
-99.7396
0
LINE
8
BLACK
6
CONTINUOUS
10
92.6351
20
-99.7396
11
92.6816
21
-99.7613
0
LINE
8
BLACK
6
CONTINUOUS
10
92.6816
20
-99.7613
11
92.7016
21
-99.7812
0
LINE
8
BLACK
6
CONTINUOUS
10
92.7016
20
-99.7812
11
92.732
21
-99.7964
0
LINE
8
BLACK
6
CONTINUOUS
10
92.732
20
-99.7964
11
92.868
21
-99.7964
0
LINE
8
BLACK
6
CONTINUOUS
10
92.868
20
-99.7964
11
92.8984
21
-99.7812
0
LINE
8
BLACK
6
CONTINUOUS
10
92.8984
20
-99.7812
11
92.9098
21
-99.7699
0
LINE
8
BLACK
6
CONTINUOUS
10
92.9098
20
-99.7699
11
92.925
21
-99.7394
0
LINE
8
BLACK
6
CONTINUOUS
10
92.925
20
-99.7394
11
92.925
21
-99.632
0
LINE
8
BLACK
6
CONTINUOUS
10
92.925
20
-99.632
11
92.9098
21
-99.6016
0
LINE
8
BLACK
6
CONTINUOUS
10
92.9098
20
-99.6016
11
92.8984
21
-99.5902
0
LINE
8
BLACK
6
CONTINUOUS
10
92.8984
20
-99.5902
11
92.868
21
-99.575
0
LINE
8
BLACK
6
CONTINUOUS
10
92.868
20
-99.575
11
92.8
21
-99.575
0
LINE
8
BLACK
6
CONTINUOUS
10
92.8
20
-99.575
11
92.7889
21
-99.573
0
LINE
8
BLACK
6
CONTINUOUS
10
92.7889
20
-99.573
11
92.7855
21
-99.5736
0
LINE
8
BLACK
6
CONTINUOUS
10
92.7855
20
-99.5736
11
92.7828
21
-99.572
0
LINE
8
BLACK
6
CONTINUOUS
10
92.7828
20
-99.572
11
92.7743
21
-99.5705
0
LINE
8
BLACK
6
CONTINUOUS
10
92.7743
20
-99.5705
11
92.7589
21
-99.5575
0
LINE
8
BLACK
6
CONTINUOUS
10
92.7589
20
-99.5575
11
92.7416
21
-99.547
0
LINE
8
BLACK
6
CONTINUOUS
10
92.7416
20
-99.547
11
92.7396
21
-99.5413
0
LINE
8
BLACK
6
CONTINUOUS
10
92.7396
20
-99.5413
11
92.735
21
-99.5375
0
LINE
8
BLACK
6
CONTINUOUS
10
92.735
20
-99.5375
11
92.7315
21
-99.5176
0
LINE
8
BLACK
6
CONTINUOUS
10
92.7315
20
-99.5176
11
92.725
21
-99.4984
0
LINE
8
BLACK
6
CONTINUOUS
10
92.725
20
-99.4984
11
92.7272
21
-99.4929
0
LINE
8
BLACK
6
CONTINUOUS
10
92.7272
20
-99.4929
11
92.7261
21
-99.487
0
LINE
8
BLACK
6
CONTINUOUS
10
92.7261
20
-99.487
11
92.7362
21
-99.4695
0
LINE
8
BLACK
6
CONTINUOUS
10
92.7362
20
-99.4695
11
92.7436
21
-99.4506
0
LINE
8
BLACK
6
CONTINUOUS
10
92.7436
20
-99.4506
11
92.8347
21
-99.3464
0
LINE
8
BLACK
6
CONTINUOUS
10
92.8347
20
-99.3464
11
92.6286
21
-99.3464
0
LINE
8
BLACK
6
CONTINUOUS
10
92.6286
20
-99.3464
11
92.6029
21
-99.3419
0
LINE
8
BLACK
6
CONTINUOUS
10
92.6029
20
-99.3419
11
92.5636
21
-99.3089
0
LINE
8
BLACK
6
CONTINUOUS
10
92.5636
20
-99.3089
11
92.5547
21
-99.2584
0
LINE
8
BLACK
6
CONTINUOUS
10
92.5547
20
-99.2584
11
92.5804
21
-99.214
0
LINE
8
BLACK
6
CONTINUOUS
10
92.5804
20
-99.214
11
92.6286
21
-99.1964
0
LINE
8
BLACK
6
CONTINUOUS
10
92.6286
20
-99.1964
11
93
21
-99.1964
0
LINE
8
BLACK
6
CONTINUOUS
10
93
20
-99.1964
11
93.0111
21
-99.1984
0
LINE
8
BLACK
6
CONTINUOUS
10
107.257
20
-99.2232
11
107.275
21
-99.2714
0
LINE
8
BLACK
6
CONTINUOUS
10
107.275
20
-99.2714
11
107.275
21
-99.7
0
LINE
8
BLACK
6
CONTINUOUS
10
107.275
20
-99.7
11
107.271
21
-99.7221
0
LINE
8
BLACK
6
CONTINUOUS
10
107.271
20
-99.7221
11
107.271
21
-99.7237
0
LINE
8
BLACK
6
CONTINUOUS
10
107.271
20
-99.7237
11
107.243
21
-99.8094
0
LINE
8
BLACK
6
CONTINUOUS
10
107.243
20
-99.8094
11
107.23
21
-99.8323
0
LINE
8
BLACK
6
CONTINUOUS
10
107.23
20
-99.8323
11
107.226
21
-99.8347
0
LINE
8
BLACK
6
CONTINUOUS
10
107.226
20
-99.8347
11
107.224
21
-99.8387
0
LINE
8
BLACK
6
CONTINUOUS
10
107.224
20
-99.8387
11
107.167
21
-99.8959
0
LINE
8
BLACK
6
CONTINUOUS
10
107.167
20
-99.8959
11
107.146
21
-99.9108
0
LINE
8
BLACK
6
CONTINUOUS
10
107.146
20
-99.9108
11
107.142
21
-99.9112
0
LINE
8
BLACK
6
CONTINUOUS
10
107.142
20
-99.9112
11
107.138
21
-99.914
0
LINE
8
BLACK
6
CONTINUOUS
10
107.138
20
-99.914
11
107.052
21
-99.9426
0
LINE
8
BLACK
6
CONTINUOUS
10
107.052
20
-99.9426
11
107.03
21
-99.9459
0
LINE
8
BLACK
6
CONTINUOUS
10
107.03
20
-99.9459
11
107.029
21
-99.9464
0
LINE
8
BLACK
6
CONTINUOUS
10
107.029
20
-99.9464
11
106.971
21
-99.9464
0
LINE
8
BLACK
6
CONTINUOUS
10
106.971
20
-99.9464
11
106.946
21
-99.9419
0
LINE
8
BLACK
6
CONTINUOUS
10
106.946
20
-99.9419
11
106.906
21
-99.9089
0
LINE
8
BLACK
6
CONTINUOUS
10
106.906
20
-99.9089
11
106.898
21
-99.8584
0
LINE
8
BLACK
6
CONTINUOUS
10
106.898
20
-99.8584
11
106.923
21
-99.814
0
LINE
8
BLACK
6
CONTINUOUS
10
106.923
20
-99.814
11
106.971
21
-99.7964
0
LINE
8
BLACK
6
CONTINUOUS
10
106.971
20
-99.7964
11
107.016
21
-99.7964
0
LINE
8
BLACK
6
CONTINUOUS
10
107.016
20
-99.7964
11
107.074
21
-99.7773
0
LINE
8
BLACK
6
CONTINUOUS
10
107.074
20
-99.7773
11
107.106
21
-99.7452
0
LINE
8
BLACK
6
CONTINUOUS
10
107.106
20
-99.7452
11
107.125
21
-99.6878
0
LINE
8
BLACK
6
CONTINUOUS
10
107.125
20
-99.6878
11
107.125
21
-99.2714
0
LINE
8
BLACK
6
CONTINUOUS
10
107.125
20
-99.2714
11
107.13
21
-99.2458
0
LINE
8
BLACK
6
CONTINUOUS
10
107.13
20
-99.2458
11
107.162
21
-99.2065
0
LINE
8
BLACK
6
CONTINUOUS
10
107.162
20
-99.2065
11
107.213
21
-99.1976
0
LINE
8
BLACK
6
CONTINUOUS
10
107.213
20
-99.1976
11
107.257
21
-99.2232
0
LINE
8
BLACK
6
CONTINUOUS
10
92.4575
20
-99.2232
11
92.475
21
-99.2714
0
LINE
8
BLACK
6
CONTINUOUS
10
92.475
20
-99.2714
11
92.475
21
-99.7
0
LINE
8
BLACK
6
CONTINUOUS
10
92.475
20
-99.7
11
92.4711
21
-99.7221
0
LINE
8
BLACK
6
CONTINUOUS
10
92.4711
20
-99.7221
11
92.4712
21
-99.7237
0
LINE
8
BLACK
6
CONTINUOUS
10
92.4712
20
-99.7237
11
92.4426
21
-99.8094
0
LINE
8
BLACK
6
CONTINUOUS
10
92.4426
20
-99.8094
11
92.4302
21
-99.8323
0
LINE
8
BLACK
6
CONTINUOUS
10
92.4302
20
-99.8323
11
92.4264
21
-99.8347
0
LINE
8
BLACK
6
CONTINUOUS
10
92.4264
20
-99.8347
11
92.4245
21
-99.8387
0
LINE
8
BLACK
6
CONTINUOUS
10
92.4245
20
-99.8387
11
92.3673
21
-99.8959
0
LINE
8
BLACK
6
CONTINUOUS
10
92.3673
20
-99.8959
11
92.346
21
-99.9108
0
LINE
8
BLACK
6
CONTINUOUS
10
92.346
20
-99.9108
11
92.3415
21
-99.9112
0
LINE
8
BLACK
6
CONTINUOUS
10
92.3415
20
-99.9112
11
92.338
21
-99.914
0
LINE
8
BLACK
6
CONTINUOUS
10
92.338
20
-99.914
11
92.2523
21
-99.9426
0
LINE
8
BLACK
6
CONTINUOUS
10
92.2523
20
-99.9426
11
92.2301
21
-99.9459
0
LINE
8
BLACK
6
CONTINUOUS
10
92.2301
20
-99.9459
11
92.2286
21
-99.9464
0
LINE
8
BLACK
6
CONTINUOUS
10
92.2286
20
-99.9464
11
92.1714
21
-99.9464
0
LINE
8
BLACK
6
CONTINUOUS
10
92.1714
20
-99.9464
11
92.1458
21
-99.9419
0
LINE
8
BLACK
6
CONTINUOUS
10
92.1458
20
-99.9419
11
92.1065
21
-99.9089
0
LINE
8
BLACK
6
CONTINUOUS
10
92.1065
20
-99.9089
11
92.0976
21
-99.8584
0
LINE
8
BLACK
6
CONTINUOUS
10
92.0976
20
-99.8584
11
92.1232
21
-99.814
0
LINE
8
BLACK
6
CONTINUOUS
10
92.1232
20
-99.814
11
92.1714
21
-99.7964
0
LINE
8
BLACK
6
CONTINUOUS
10
92.1714
20
-99.7964
11
92.2164
21
-99.7964
0
LINE
8
BLACK
6
CONTINUOUS
10
92.2164
20
-99.7964
11
92.2738
21
-99.7773
0
LINE
8
BLACK
6
CONTINUOUS
10
92.2738
20
-99.7773
11
92.3059
21
-99.7452
0
LINE
8
BLACK
6
CONTINUOUS
10
92.3059
20
-99.7452
11
92.325
21
-99.6878
0
LINE
8
BLACK
6
CONTINUOUS
10
92.325
20
-99.6878
11
92.325
21
-99.2714
0
LINE
8
BLACK
6
CONTINUOUS
10
92.325
20
-99.2714
11
92.3295
21
-99.2458
0
LINE
8
BLACK
6
CONTINUOUS
10
92.3295
20
-99.2458
11
92.3625
21
-99.2065
0
LINE
8
BLACK
6
CONTINUOUS
10
92.3625
20
-99.2065
11
92.413
21
-99.1976
0
LINE
8
BLACK
6
CONTINUOUS
10
92.413
20
-99.1976
11
92.4575
21
-99.2232
0
LINE
8
BLACK
6
CONTINUOUS
10
107.636
20
-99.1769
11
107.67
21
-99.2153
0
LINE
8
BLACK
6
CONTINUOUS
10
107.67
20
-99.2153
11
107.671
21
-99.2666
0
LINE
8
BLACK
6
CONTINUOUS
10
107.671
20
-99.2666
11
107.561
21
-99.5964
0
LINE
8
BLACK
6
CONTINUOUS
10
107.561
20
-99.5964
11
107.668
21
-99.5964
0
LINE
8
BLACK
6
CONTINUOUS
10
107.668
20
-99.5964
11
107.668
21
-99.4714
0
LINE
8
BLACK
6
CONTINUOUS
10
107.668
20
-99.4714
11
107.672
21
-99.4458
0
LINE
8
BLACK
6
CONTINUOUS
10
107.672
20
-99.4458
11
107.705
21
-99.4065
0
LINE
8
BLACK
6
CONTINUOUS
10
107.705
20
-99.4065
11
107.756
21
-99.3976
0
LINE
8
BLACK
6
CONTINUOUS
10
107.756
20
-99.3976
11
107.8
21
-99.4232
0
LINE
8
BLACK
6
CONTINUOUS
10
107.8
20
-99.4232
11
107.818
21
-99.4714
0
LINE
8
BLACK
6
CONTINUOUS
10
107.818
20
-99.4714
11
107.818
21
-99.5964
0
LINE
8
BLACK
6
CONTINUOUS
10
107.818
20
-99.5964
11
107.829
21
-99.5964
0
LINE
8
BLACK
6
CONTINUOUS
10
107.829
20
-99.5964
11
107.854
21
-99.601
0
LINE
8
BLACK
6
CONTINUOUS
10
107.854
20
-99.601
11
107.894
21
-99.6339
0
LINE
8
BLACK
6
CONTINUOUS
10
107.894
20
-99.6339
11
107.902
21
-99.6845
0
LINE
8
BLACK
6
CONTINUOUS
10
107.902
20
-99.6845
11
107.877
21
-99.7289
0
LINE
8
BLACK
6
CONTINUOUS
10
107.877
20
-99.7289
11
107.829
21
-99.7464
0
LINE
8
BLACK
6
CONTINUOUS
10
107.829
20
-99.7464
11
107.818
21
-99.7464
0
LINE
8
BLACK
6
CONTINUOUS
10
107.818
20
-99.7464
11
107.818
21
-99.8714
0
LINE
8
BLACK
6
CONTINUOUS
10
107.818
20
-99.8714
11
107.813
21
-99.8971
0
LINE
8
BLACK
6
CONTINUOUS
10
107.813
20
-99.8971
11
107.78
21
-99.9364
0
LINE
8
BLACK
6
CONTINUOUS
10
107.78
20
-99.9364
11
107.73
21
-99.9453
0
LINE
8
BLACK
6
CONTINUOUS
10
107.73
20
-99.9453
11
107.685
21
-99.9196
0
LINE
8
BLACK
6
CONTINUOUS
10
107.685
20
-99.9196
11
107.668
21
-99.8714
0
LINE
8
BLACK
6
CONTINUOUS
10
107.668
20
-99.8714
11
107.668
21
-99.7464
0
LINE
8
BLACK
6
CONTINUOUS
10
107.668
20
-99.7464
11
107.457
21
-99.7464
0
LINE
8
BLACK
6
CONTINUOUS
10
107.457
20
-99.7464
11
107.431
21
-99.7419
0
LINE
8
BLACK
6
CONTINUOUS
10
107.431
20
-99.7419
11
107.427
21
-99.7382
0
LINE
8
BLACK
6
CONTINUOUS
10
107.427
20
-99.7382
11
107.421
21
-99.7374
0
LINE
8
BLACK
6
CONTINUOUS
10
107.421
20
-99.7374
11
107.408
21
-99.7221
0
LINE
8
BLACK
6
CONTINUOUS
10
107.408
20
-99.7221
11
107.392
21
-99.7089
0
LINE
8
BLACK
6
CONTINUOUS
10
107.392
20
-99.7089
11
107.391
21
-99.7033
0
LINE
8
BLACK
6
CONTINUOUS
10
107.391
20
-99.7033
11
107.387
21
-99.699
0
LINE
8
BLACK
6
CONTINUOUS
10
107.387
20
-99.699
11
107.387
21
-99.6786
0
LINE
8
BLACK
6
CONTINUOUS
10
107.387
20
-99.6786
11
107.383
21
-99.6584
0
LINE
8
BLACK
6
CONTINUOUS
10
107.383
20
-99.6584
11
107.386
21
-99.6534
0
LINE
8
BLACK
6
CONTINUOUS
10
107.386
20
-99.6534
11
107.386
21
-99.6477
0
LINE
8
BLACK
6
CONTINUOUS
10
107.386
20
-99.6477
11
107.529
21
-99.2191
0
LINE
8
BLACK
6
CONTINUOUS
10
107.529
20
-99.2191
11
107.541
21
-99.1962
0
LINE
8
BLACK
6
CONTINUOUS
10
107.541
20
-99.1962
11
107.585
21
-99.1694
0
LINE
8
BLACK
6
CONTINUOUS
10
107.585
20
-99.1694
11
107.636
21
-99.1769
0
LINE
8
BLACK
6
CONTINUOUS
10
102.559
20
-92.3826
11
102.598
21
-92.4156
0
LINE
8
BLACK
6
CONTINUOUS
10
102.598
20
-92.4156
11
102.607
21
-92.4661
0
LINE
8
BLACK
6
CONTINUOUS
10
102.607
20
-92.4661
11
102.581
21
-92.5105
0
LINE
8
BLACK
6
CONTINUOUS
10
102.581
20
-92.5105
11
102.533
21
-92.5281
0
LINE
8
BLACK
6
CONTINUOUS
10
102.533
20
-92.5281
11
101.148
21
-92.5281
0
LINE
8
BLACK
6
CONTINUOUS
10
101.148
20
-92.5281
11
101.148
21
-98.9781
0
LINE
8
BLACK
6
CONTINUOUS
10
101.148
20
-98.9781
11
102.533
21
-98.9781
0
LINE
8
BLACK
6
CONTINUOUS
10
102.533
20
-98.9781
11
102.559
21
-98.9826
0
LINE
8
BLACK
6
CONTINUOUS
10
102.559
20
-98.9826
11
102.598
21
-99.0156
0
LINE
8
BLACK
6
CONTINUOUS
10
102.598
20
-99.0156
11
102.607
21
-99.0661
0
LINE
8
BLACK
6
CONTINUOUS
10
102.607
20
-99.0661
11
102.581
21
-99.1105
0
LINE
8
BLACK
6
CONTINUOUS
10
102.581
20
-99.1105
11
102.533
21
-99.1281
0
LINE
8
BLACK
6
CONTINUOUS
10
102.533
20
-99.1281
11
101.073
21
-99.1281
0
LINE
8
BLACK
6
CONTINUOUS
10
101.073
20
-99.1281
11
101.063
21
-99.1264
0
LINE
8
BLACK
6
CONTINUOUS
10
101.063
20
-99.1264
11
101.06
21
-99.1269
0
LINE
8
BLACK
6
CONTINUOUS
10
101.06
20
-99.1269
11
101.057
21
-99.1253
0
LINE
8
BLACK
6
CONTINUOUS
10
101.057
20
-99.1253
11
101.047
21
-99.1236
0
LINE
8
BLACK
6
CONTINUOUS
10
101.047
20
-99.1236
11
101.032
21
-99.111
0
LINE
8
BLACK
6
CONTINUOUS
10
101.032
20
-99.111
11
101.015
21
-99.1013
0
LINE
8
BLACK
6
CONTINUOUS
10
101.015
20
-99.1013
11
101.013
21
-99.0949
0
LINE
8
BLACK
6
CONTINUOUS
10
101.013
20
-99.0949
11
101.008
21
-99.0906
0
LINE
8
BLACK
6
CONTINUOUS
10
101.008
20
-99.0906
11
101.005
21
-99.0714
0
LINE
8
BLACK
6
CONTINUOUS
10
101.005
20
-99.0714
11
100.998
21
-99.0531
0
LINE
8
BLACK
6
CONTINUOUS
10
100.998
20
-99.0531
11
100.998
21
-92.4531
0
LINE
8
BLACK
6
CONTINUOUS
10
100.998
20
-92.4531
11
101
21
-92.4433
0
LINE
8
BLACK
6
CONTINUOUS
10
101
20
-92.4433
11
100.999
21
-92.4401
0
LINE
8
BLACK
6
CONTINUOUS
10
100.999
20
-92.4401
11
101.001
21
-92.4372
0
LINE
8
BLACK
6
CONTINUOUS
10
101.001
20
-92.4372
11
101.002
21
-92.4274
0
LINE
8
BLACK
6
CONTINUOUS
10
101.002
20
-92.4274
11
101.015
21
-92.4125
0
LINE
8
BLACK
6
CONTINUOUS
10
101.015
20
-92.4125
11
101.025
21
-92.3956
0
LINE
8
BLACK
6
CONTINUOUS
10
101.025
20
-92.3956
11
101.031
21
-92.3933
0
LINE
8
BLACK
6
CONTINUOUS
10
101.031
20
-92.3933
11
101.035
21
-92.3881
0
LINE
8
BLACK
6
CONTINUOUS
10
101.035
20
-92.3881
11
101.055
21
-92.3847
0
LINE
8
BLACK
6
CONTINUOUS
10
101.055
20
-92.3847
11
101.073
21
-92.3781
0
LINE
8
BLACK
6
CONTINUOUS
10
101.073
20
-92.3781
11
102.533
21
-92.3781
0
LINE
8
BLACK
6
CONTINUOUS
10
102.533
20
-92.3781
11
102.559
21
-92.3826
0
LINE
8
BLACK
6
CONTINUOUS
10
107.683
20
-92.3798
11
107.686
21
-92.3792
0
LINE
8
BLACK
6
CONTINUOUS
10
107.686
20
-92.3792
11
107.689
21
-92.3809
0
LINE
8
BLACK
6
CONTINUOUS
10
107.689
20
-92.3809
11
107.699
21
-92.3826
0
LINE
8
BLACK
6
CONTINUOUS
10
107.699
20
-92.3826
11
107.713
21
-92.3951
0
LINE
8
BLACK
6
CONTINUOUS
10
107.713
20
-92.3951
11
107.73
21
-92.4049
0
LINE
8
BLACK
6
CONTINUOUS
10
107.73
20
-92.4049
11
107.733
21
-92.4112
0
LINE
8
BLACK
6
CONTINUOUS
10
107.733
20
-92.4112
11
107.738
21
-92.4156
0
LINE
8
BLACK
6
CONTINUOUS
10
107.738
20
-92.4156
11
107.741
21
-92.4348
0
LINE
8
BLACK
6
CONTINUOUS
10
107.741
20
-92.4348
11
107.748
21
-92.4531
0
LINE
8
BLACK
6
CONTINUOUS
10
107.748
20
-92.4531
11
107.748
21
-99.0531
0
LINE
8
BLACK
6
CONTINUOUS
10
107.748
20
-99.0531
11
107.746
21
-99.0628
0
LINE
8
BLACK
6
CONTINUOUS
10
107.746
20
-99.0628
11
107.747
21
-99.0661
0
LINE
8
BLACK
6
CONTINUOUS
10
107.747
20
-99.0661
11
107.745
21
-99.069
0
LINE
8
BLACK
6
CONTINUOUS
10
107.745
20
-99.069
11
107.743
21
-99.0787
0
LINE
8
BLACK
6
CONTINUOUS
10
107.743
20
-99.0787
11
107.731
21
-99.0937
0
LINE
8
BLACK
6
CONTINUOUS
10
107.731
20
-99.0937
11
107.721
21
-99.1105
0
LINE
8
BLACK
6
CONTINUOUS
10
107.721
20
-99.1105
11
107.715
21
-99.1128
0
LINE
8
BLACK
6
CONTINUOUS
10
107.715
20
-99.1128
11
107.71
21
-99.118
0
LINE
8
BLACK
6
CONTINUOUS
10
107.71
20
-99.118
11
107.691
21
-99.1214
0
LINE
8
BLACK
6
CONTINUOUS
10
107.691
20
-99.1214
11
107.673
21
-99.1281
0
LINE
8
BLACK
6
CONTINUOUS
10
107.673
20
-99.1281
11
106.213
21
-99.1281
0
LINE
8
BLACK
6
CONTINUOUS
10
106.213
20
-99.1281
11
106.187
21
-99.1236
0
LINE
8
BLACK
6
CONTINUOUS
10
106.187
20
-99.1236
11
106.148
21
-99.0906
0
LINE
8
BLACK
6
CONTINUOUS
10
106.148
20
-99.0906
11
106.139
21
-99.0401
0
LINE
8
BLACK
6
CONTINUOUS
10
106.139
20
-99.0401
11
106.165
21
-98.9956
0
LINE
8
BLACK
6
CONTINUOUS
10
106.165
20
-98.9956
11
106.213
21
-98.9781
0
LINE
8
BLACK
6
CONTINUOUS
10
106.213
20
-98.9781
11
107.598
21
-98.9781
0
LINE
8
BLACK
6
CONTINUOUS
10
107.598
20
-98.9781
11
107.598
21
-92.5281
0
LINE
8
BLACK
6
CONTINUOUS
10
107.598
20
-92.5281
11
106.213
21
-92.5281
0
LINE
8
BLACK
6
CONTINUOUS
10
106.213
20
-92.5281
11
106.187
21
-92.5236
0
LINE
8
BLACK
6
CONTINUOUS
10
106.187
20
-92.5236
11
106.148
21
-92.4906
0
LINE
8
BLACK
6
CONTINUOUS
10
106.148
20
-92.4906
11
106.139
21
-92.4401
0
LINE
8
BLACK
6
CONTINUOUS
10
106.139
20
-92.4401
11
106.165
21
-92.3956
0
LINE
8
BLACK
6
CONTINUOUS
10
106.165
20
-92.3956
11
106.213
21
-92.3781
0
LINE
8
BLACK
6
CONTINUOUS
10
106.213
20
-92.3781
11
107.673
21
-92.3781
0
LINE
8
BLACK
6
CONTINUOUS
10
107.673
20
-92.3781
11
107.683
21
-92.3798
0
LINE
8
BLACK
6
CONTINUOUS
10
97.9199
20
-98.5453
11
97.9375
21
-98.5877
0
LINE
8
BLACK
6
CONTINUOUS
10
97.9375
20
-98.5877
11
97.9375
21
-99.0623
0
LINE
8
BLACK
6
CONTINUOUS
10
97.9375
20
-99.0623
11
97.9199
21
-99.1047
0
LINE
8
BLACK
6
CONTINUOUS
10
97.9199
20
-99.1047
11
97.8775
21
-99.1223
0
LINE
8
BLACK
6
CONTINUOUS
10
97.8775
20
-99.1223
11
97.8351
21
-99.1047
0
LINE
8
BLACK
6
CONTINUOUS
10
97.8351
20
-99.1047
11
97.8175
21
-99.0623
0
LINE
8
BLACK
6
CONTINUOUS
10
97.8175
20
-99.0623
11
97.8175
21
-98.5877
0
LINE
8
BLACK
6
CONTINUOUS
10
97.8175
20
-98.5877
11
97.8351
21
-98.5453
0
LINE
8
BLACK
6
CONTINUOUS
10
97.8351
20
-98.5453
11
97.8775
21
-98.5277
0
LINE
8
BLACK
6
CONTINUOUS
10
97.8775
20
-98.5277
11
97.9199
21
-98.5453
0
LINE
8
BLACK
6
CONTINUOUS
10
98.9649
20
-98.5453
11
98.9825
21
-98.5877
0
LINE
8
BLACK
6
CONTINUOUS
10
98.9825
20
-98.5877
11
98.9825
21
-99.0623
0
LINE
8
BLACK
6
CONTINUOUS
10
98.9825
20
-99.0623
11
98.9649
21
-99.1047
0
LINE
8
BLACK
6
CONTINUOUS
10
98.9649
20
-99.1047
11
98.9225
21
-99.1223
0
LINE
8
BLACK
6
CONTINUOUS
10
98.9225
20
-99.1223
11
98.8801
21
-99.1047
0
LINE
8
BLACK
6
CONTINUOUS
10
98.8801
20
-99.1047
11
98.8625
21
-99.0623
0
LINE
8
BLACK
6
CONTINUOUS
10
98.8625
20
-99.0623
11
98.8625
21
-98.5877
0
LINE
8
BLACK
6
CONTINUOUS
10
98.8625
20
-98.5877
11
98.8801
21
-98.5453
0
LINE
8
BLACK
6
CONTINUOUS
10
98.8801
20
-98.5453
11
98.9225
21
-98.5277
0
LINE
8
BLACK
6
CONTINUOUS
10
98.9225
20
-98.5277
11
98.9649
21
-98.5453
0
LINE
8
BLACK
6
CONTINUOUS
10
94.1649
20
-98.5453
11
94.1825
21
-98.5877
0
LINE
8
BLACK
6
CONTINUOUS
10
94.1825
20
-98.5877
11
94.1825
21
-99.0623
0
LINE
8
BLACK
6
CONTINUOUS
10
94.1825
20
-99.0623
11
94.1649
21
-99.1047
0
LINE
8
BLACK
6
CONTINUOUS
10
94.1649
20
-99.1047
11
94.1225
21
-99.1223
0
LINE
8
BLACK
6
CONTINUOUS
10
94.1225
20
-99.1223
11
94.0801
21
-99.1047
0
LINE
8
BLACK
6
CONTINUOUS
10
94.0801
20
-99.1047
11
94.0625
21
-99.0623
0
LINE
8
BLACK
6
CONTINUOUS
10
94.0625
20
-99.0623
11
94.0625
21
-98.5877
0
LINE
8
BLACK
6
CONTINUOUS
10
94.0625
20
-98.5877
11
94.0801
21
-98.5453
0
LINE
8
BLACK
6
CONTINUOUS
10
94.0801
20
-98.5453
11
94.1225
21
-98.5277
0
LINE
8
BLACK
6
CONTINUOUS
10
94.1225
20
-98.5277
11
94.1649
21
-98.5453
0
LINE
8
BLACK
6
CONTINUOUS
10
93.1199
20
-98.5453
11
93.1375
21
-98.5877
0
LINE
8
BLACK
6
CONTINUOUS
10
93.1375
20
-98.5877
11
93.1375
21
-99.0623
0
LINE
8
BLACK
6
CONTINUOUS
10
93.1375
20
-99.0623
11
93.1199
21
-99.1047
0
LINE
8
BLACK
6
CONTINUOUS
10
93.1199
20
-99.1047
11
93.0775
21
-99.1223
0
LINE
8
BLACK
6
CONTINUOUS
10
93.0775
20
-99.1223
11
93.0351
21
-99.1047
0
LINE
8
BLACK
6
CONTINUOUS
10
93.0351
20
-99.1047
11
93.0175
21
-99.0623
0
LINE
8
BLACK
6
CONTINUOUS
10
93.0175
20
-99.0623
11
93.0175
21
-98.5877
0
LINE
8
BLACK
6
CONTINUOUS
10
93.0175
20
-98.5877
11
93.0351
21
-98.5453
0
LINE
8
BLACK
6
CONTINUOUS
10
93.0351
20
-98.5453
11
93.0775
21
-98.5277
0
LINE
8
BLACK
6
CONTINUOUS
10
93.0775
20
-98.5277
11
93.1199
21
-98.5453
0
LINE
8
BLACK
6
CONTINUOUS
10
94.7324
20
-98.642
11
94.75
21
-98.6844
0
LINE
8
BLACK
6
CONTINUOUS
10
94.75
20
-98.6844
11
94.75
21
-98.9656
0
LINE
8
BLACK
6
CONTINUOUS
10
94.75
20
-98.9656
11
94.7324
21
-99.008
0
LINE
8
BLACK
6
CONTINUOUS
10
94.7324
20
-99.008
11
94.69
21
-99.0256
0
LINE
8
BLACK
6
CONTINUOUS
10
94.69
20
-99.0256
11
94.6476
21
-99.008
0
LINE
8
BLACK
6
CONTINUOUS
10
94.6476
20
-99.008
11
94.63
21
-98.9656
0
LINE
8
BLACK
6
CONTINUOUS
10
94.63
20
-98.9656
11
94.63
21
-98.6844
0
LINE
8
BLACK
6
CONTINUOUS
10
94.63
20
-98.6844
11
94.6476
21
-98.642
0
LINE
8
BLACK
6
CONTINUOUS
10
94.6476
20
-98.642
11
94.69
21
-98.6244
0
LINE
8
BLACK
6
CONTINUOUS
10
94.69
20
-98.6244
11
94.7324
21
-98.642
0
LINE
8
BLACK
6
CONTINUOUS
10
99.5324
20
-98.642
11
99.55
21
-98.6844
0
LINE
8
BLACK
6
CONTINUOUS
10
99.55
20
-98.6844
11
99.55
21
-98.9656
0
LINE
8
BLACK
6
CONTINUOUS
10
99.55
20
-98.9656
11
99.5324
21
-99.008
0
LINE
8
BLACK
6
CONTINUOUS
10
99.5324
20
-99.008
11
99.49
21
-99.0256
0
LINE
8
BLACK
6
CONTINUOUS
10
99.49
20
-99.0256
11
99.4476
21
-99.008
0
LINE
8
BLACK
6
CONTINUOUS
10
99.4476
20
-99.008
11
99.43
21
-98.9656
0
LINE
8
BLACK
6
CONTINUOUS
10
99.43
20
-98.9656
11
99.43
21
-98.6844
0
LINE
8
BLACK
6
CONTINUOUS
10
99.43
20
-98.6844
11
99.4476
21
-98.642
0
LINE
8
BLACK
6
CONTINUOUS
10
99.4476
20
-98.642
11
99.49
21
-98.6244
0
LINE
8
BLACK
6
CONTINUOUS
10
99.49
20
-98.6244
11
99.5324
21
-98.642
0
LINE
8
BLACK
6
CONTINUOUS
10
100.552
20
-98.642
11
100.57
21
-98.6844
0
LINE
8
BLACK
6
CONTINUOUS
10
100.57
20
-98.6844
11
100.57
21
-98.9656
0
LINE
8
BLACK
6
CONTINUOUS
10
100.57
20
-98.9656
11
100.552
21
-99.008
0
LINE
8
BLACK
6
CONTINUOUS
10
100.552
20
-99.008
11
100.51
21
-99.0256
0
LINE
8
BLACK
6
CONTINUOUS
10
100.51
20
-99.0256
11
100.468
21
-99.008
0
LINE
8
BLACK
6
CONTINUOUS
10
100.468
20
-99.008
11
100.45
21
-98.9656
0
LINE
8
BLACK
6
CONTINUOUS
10
100.45
20
-98.9656
11
100.45
21
-98.6844
0
LINE
8
BLACK
6
CONTINUOUS
10
100.45
20
-98.6844
11
100.468
21
-98.642
0
LINE
8
BLACK
6
CONTINUOUS
10
100.468
20
-98.642
11
100.51
21
-98.6244
0
LINE
8
BLACK
6
CONTINUOUS
10
100.51
20
-98.6244
11
100.552
21
-98.642
0
LINE
8
BLACK
6
CONTINUOUS
10
95.7524
20
-98.642
11
95.77
21
-98.6844
0
LINE
8
BLACK
6
CONTINUOUS
10
95.77
20
-98.6844
11
95.77
21
-98.9656
0
LINE
8
BLACK
6
CONTINUOUS
10
95.77
20
-98.9656
11
95.7524
21
-99.008
0
LINE
8
BLACK
6
CONTINUOUS
10
95.7524
20
-99.008
11
95.71
21
-99.0256
0
LINE
8
BLACK
6
CONTINUOUS
10
95.71
20
-99.0256
11
95.6676
21
-99.008
0
LINE
8
BLACK
6
CONTINUOUS
10
95.6676
20
-99.008
11
95.65
21
-98.9656
0
LINE
8
BLACK
6
CONTINUOUS
10
95.65
20
-98.9656
11
95.65
21
-98.6844
0
LINE
8
BLACK
6
CONTINUOUS
10
95.65
20
-98.6844
11
95.6676
21
-98.642
0
LINE
8
BLACK
6
CONTINUOUS
10
95.6676
20
-98.642
11
95.71
21
-98.6244
0
LINE
8
BLACK
6
CONTINUOUS
10
95.71
20
-98.6244
11
95.7524
21
-98.642
0
LINE
8
BLACK
6
CONTINUOUS
10
96.3324
20
-98.642
11
96.35
21
-98.6844
0
LINE
8
BLACK
6
CONTINUOUS
10
96.35
20
-98.6844
11
96.35
21
-98.9656
0
LINE
8
BLACK
6
CONTINUOUS
10
96.35
20
-98.9656
11
96.3324
21
-99.008
0
LINE
8
BLACK
6
CONTINUOUS
10
96.3324
20
-99.008
11
96.29
21
-99.0256
0
LINE
8
BLACK
6
CONTINUOUS
10
96.29
20
-99.0256
11
96.2476
21
-99.008
0
LINE
8
BLACK
6
CONTINUOUS
10
96.2476
20
-99.008
11
96.23
21
-98.9656
0
LINE
8
BLACK
6
CONTINUOUS
10
96.23
20
-98.9656
11
96.23
21
-98.6844
0
LINE
8
BLACK
6
CONTINUOUS
10
96.23
20
-98.6844
11
96.2476
21
-98.642
0
LINE
8
BLACK
6
CONTINUOUS
10
96.2476
20
-98.642
11
96.29
21
-98.6244
0
LINE
8
BLACK
6
CONTINUOUS
10
96.29
20
-98.6244
11
96.3324
21
-98.642
0
LINE
8
BLACK
6
CONTINUOUS
10
97.3524
20
-98.642
11
97.37
21
-98.6844
0
LINE
8
BLACK
6
CONTINUOUS
10
97.37
20
-98.6844
11
97.37
21
-98.9656
0
LINE
8
BLACK
6
CONTINUOUS
10
97.37
20
-98.9656
11
97.3524
21
-99.008
0
LINE
8
BLACK
6
CONTINUOUS
10
97.3524
20
-99.008
11
97.31
21
-99.0256
0
LINE
8
BLACK
6
CONTINUOUS
10
97.31
20
-99.0256
11
97.2676
21
-99.008
0
LINE
8
BLACK
6
CONTINUOUS
10
97.2676
20
-99.008
11
97.25
21
-98.9656
0
LINE
8
BLACK
6
CONTINUOUS
10
97.25
20
-98.9656
11
97.25
21
-98.6844
0
LINE
8
BLACK
6
CONTINUOUS
10
97.25
20
-98.6844
11
97.2676
21
-98.642
0
LINE
8
BLACK
6
CONTINUOUS
10
97.2676
20
-98.642
11
97.31
21
-98.6244
0
LINE
8
BLACK
6
CONTINUOUS
10
97.31
20
-98.6244
11
97.3524
21
-98.642
0
LINE
8
BLACK
6
CONTINUOUS
10
98.7828
20
-96.801
11
98.7862
21
-96.8038
0
LINE
8
BLACK
6
CONTINUOUS
10
98.7862
20
-96.8038
11
98.7907
21
-96.8043
0
LINE
8
BLACK
6
CONTINUOUS
10
98.7907
20
-96.8043
11
98.8478
21
-96.8329
0
LINE
8
BLACK
6
CONTINUOUS
10
98.8478
20
-96.8329
11
98.8658
21
-96.8463
0
LINE
8
BLACK
6
CONTINUOUS
10
98.8658
20
-96.8463
11
98.8673
21
-96.847
0
LINE
8
BLACK
6
CONTINUOUS
10
98.8673
20
-96.847
11
98.8959
21
-96.8755
0
LINE
8
BLACK
6
CONTINUOUS
10
98.8959
20
-96.8755
11
98.9088
21
-96.8939
0
LINE
8
BLACK
6
CONTINUOUS
10
98.9088
20
-96.8939
11
98.9099
21
-96.895
0
LINE
8
BLACK
6
CONTINUOUS
10
98.9099
20
-96.895
11
98.9385
21
-96.9522
0
LINE
8
BLACK
6
CONTINUOUS
10
98.9385
20
-96.9522
11
98.9459
21
-96.9771
0
LINE
8
BLACK
6
CONTINUOUS
10
98.9459
20
-96.9771
11
98.9449
21
-96.9815
0
LINE
8
BLACK
6
CONTINUOUS
10
98.9449
20
-96.9815
11
98.9464
21
-96.9857
0
LINE
8
BLACK
6
CONTINUOUS
10
98.9464
20
-96.9857
11
98.9464
21
-97.0429
0
LINE
8
BLACK
6
CONTINUOUS
10
98.9464
20
-97.0429
11
98.9425
21
-97.0649
0
LINE
8
BLACK
6
CONTINUOUS
10
98.9425
20
-97.0649
11
98.9426
21
-97.0666
0
LINE
8
BLACK
6
CONTINUOUS
10
98.9426
20
-97.0666
11
98.914
21
-97.1523
0
LINE
8
BLACK
6
CONTINUOUS
10
98.914
20
-97.1523
11
98.9016
21
-97.1752
0
LINE
8
BLACK
6
CONTINUOUS
10
98.9016
20
-97.1752
11
98.8978
21
-97.1775
0
LINE
8
BLACK
6
CONTINUOUS
10
98.8978
20
-97.1775
11
98.8959
21
-97.1816
0
LINE
8
BLACK
6
CONTINUOUS
10
98.8959
20
-97.1816
11
98.6811
21
-97.3964
0
LINE
8
BLACK
6
CONTINUOUS
10
98.6811
20
-97.3964
11
98.8714
21
-97.3964
0
LINE
8
BLACK
6
CONTINUOUS
10
98.8714
20
-97.3964
11
98.8971
21
-97.401
0
LINE
8
BLACK
6
CONTINUOUS
10
98.8971
20
-97.401
11
98.9364
21
-97.4339
0
LINE
8
BLACK
6
CONTINUOUS
10
98.9364
20
-97.4339
11
98.9453
21
-97.4845
0
LINE
8
BLACK
6
CONTINUOUS
10
98.9453
20
-97.4845
11
98.9196
21
-97.5289
0
LINE
8
BLACK
6
CONTINUOUS
10
98.9196
20
-97.5289
11
98.8714
21
-97.5464
0
LINE
8
BLACK
6
CONTINUOUS
10
98.8714
20
-97.5464
11
98.5
21
-97.5464
0
LINE
8
BLACK
6
CONTINUOUS
10
98.5
20
-97.5464
11
98.4839
21
-97.5436
0
LINE
8
BLACK
6
CONTINUOUS
10
98.4839
20
-97.5436
11
98.4806
21
-97.5439
0
LINE
8
BLACK
6
CONTINUOUS
10
98.4806
20
-97.5439
11
98.4789
21
-97.5427
0
LINE
8
BLACK
6
CONTINUOUS
10
98.4789
20
-97.5427
11
98.4743
21
-97.5419
0
LINE
8
BLACK
6
CONTINUOUS
10
98.4743
20
-97.5419
11
98.4571
21
-97.5274
0
LINE
8
BLACK
6
CONTINUOUS
10
98.4571
20
-97.5274
11
98.4386
21
-97.5144
0
LINE
8
BLACK
6
CONTINUOUS
10
98.4386
20
-97.5144
11
98.4377
21
-97.5111
0
LINE
8
BLACK
6
CONTINUOUS
10
98.4377
20
-97.5111
11
98.435
21
-97.5089
0
LINE
8
BLACK
6
CONTINUOUS
10
98.435
20
-97.5089
11
98.4311
21
-97.4867
0
LINE
8
BLACK
6
CONTINUOUS
10
98.4311
20
-97.4867
11
98.4253
21
-97.4649
0
LINE
8
BLACK
6
CONTINUOUS
10
98.4253
20
-97.4649
11
98.4267
21
-97.4618
0
LINE
8
BLACK
6
CONTINUOUS
10
98.4267
20
-97.4618
11
98.4261
21
-97.4584
0
LINE
8
BLACK
6
CONTINUOUS
10
98.4261
20
-97.4584
11
98.4374
21
-97.4388
0
LINE
8
BLACK
6
CONTINUOUS
10
98.4374
20
-97.4388
11
98.447
21
-97.4184
0
LINE
8
BLACK
6
CONTINUOUS
10
98.447
20
-97.4184
11
98.7773
21
-97.0881
0
LINE
8
BLACK
6
CONTINUOUS
10
98.7773
20
-97.0881
11
98.7964
21
-97.0307
0
LINE
8
BLACK
6
CONTINUOUS
10
98.7964
20
-97.0307
11
98.7964
21
-97.0034
0
LINE
8
BLACK
6
CONTINUOUS
10
98.7964
20
-97.0034
11
98.7812
21
-96.973
0
LINE
8
BLACK
6
CONTINUOUS
10
98.7812
20
-96.973
11
98.7699
21
-96.9616
0
LINE
8
BLACK
6
CONTINUOUS
10
98.7699
20
-96.9616
11
98.7394
21
-96.9464
0
LINE
8
BLACK
6
CONTINUOUS
10
98.7394
20
-96.9464
11
98.632
21
-96.9464
0
LINE
8
BLACK
6
CONTINUOUS
10
98.632
20
-96.9464
11
98.6016
21
-96.9616
0
LINE
8
BLACK
6
CONTINUOUS
10
98.6016
20
-96.9616
11
98.5816
21
-96.9816
0
LINE
8
BLACK
6
CONTINUOUS
10
98.5816
20
-96.9816
11
98.5603
21
-96.9965
0
LINE
8
BLACK
6
CONTINUOUS
10
98.5603
20
-96.9965
11
98.5092
21
-97.001
0
LINE
8
BLACK
6
CONTINUOUS
10
98.5092
20
-97.001
11
98.4671
21
-96.9716
0
LINE
8
BLACK
6
CONTINUOUS
10
98.4671
20
-96.9716
11
98.4539
21
-96.922
0
LINE
8
BLACK
6
CONTINUOUS
10
98.4539
20
-96.922
11
98.4755
21
-96.8755
0
LINE
8
BLACK
6
CONTINUOUS
10
98.4755
20
-96.8755
11
98.5041
21
-96.847
0
LINE
8
BLACK
6
CONTINUOUS
10
98.5041
20
-96.847
11
98.5225
21
-96.8341
0
LINE
8
BLACK
6
CONTINUOUS
10
98.5225
20
-96.8341
11
98.5236
21
-96.8329
0
LINE
8
BLACK
6
CONTINUOUS
10
98.5236
20
-96.8329
11
98.5807
21
-96.8043
0
LINE
8
BLACK
6
CONTINUOUS
10
98.5807
20
-96.8043
11
98.6057
21
-96.7969
0
LINE
8
BLACK
6
CONTINUOUS
10
98.6057
20
-96.7969
11
98.6101
21
-96.798
0
LINE
8
BLACK
6
CONTINUOUS
10
98.6101
20
-96.798
11
98.6143
21
-96.7964
0
LINE
8
BLACK
6
CONTINUOUS
10
98.6143
20
-96.7964
11
98.7571
21
-96.7964
0
LINE
8
BLACK
6
CONTINUOUS
10
98.7571
20
-96.7964
11
98.7828
21
-96.801
0
LINE
8
BLACK
6
CONTINUOUS
10
95.0078
20
-96.8003
11
95.0094
21
-96.8003
0
LINE
8
BLACK
6
CONTINUOUS
10
95.0094
20
-96.8003
11
95.0951
21
-96.8288
0
LINE
8
BLACK
6
CONTINUOUS
10
95.0951
20
-96.8288
11
95.1181
21
-96.8413
0
LINE
8
BLACK
6
CONTINUOUS
10
95.1181
20
-96.8413
11
95.1204
21
-96.8451
0
LINE
8
BLACK
6
CONTINUOUS
10
95.1204
20
-96.8451
11
95.1245
21
-96.847
0
LINE
8
BLACK
6
CONTINUOUS
10
95.1245
20
-96.847
11
95.153
21
-96.8755
0
LINE
8
BLACK
6
CONTINUOUS
10
95.153
20
-96.8755
11
95.168
21
-96.8969
0
LINE
8
BLACK
6
CONTINUOUS
10
95.168
20
-96.8969
11
95.1724
21
-96.948
0
LINE
8
BLACK
6
CONTINUOUS
10
95.1724
20
-96.948
11
95.143
21
-96.99
0
LINE
8
BLACK
6
CONTINUOUS
10
95.143
20
-96.99
11
95.0935
21
-97.0033
0
LINE
8
BLACK
6
CONTINUOUS
10
95.0935
20
-97.0033
11
95.047
21
-96.9816
0
LINE
8
BLACK
6
CONTINUOUS
10
95.047
20
-96.9816
11
95.0309
21
-96.9656
0
LINE
8
BLACK
6
CONTINUOUS
10
95.0309
20
-96.9656
11
94.9735
21
-96.9464
0
LINE
8
BLACK
6
CONTINUOUS
10
94.9735
20
-96.9464
11
94.9407
21
-96.9464
0
LINE
8
BLACK
6
CONTINUOUS
10
94.9407
20
-96.9464
11
94.8834
21
-96.9656
0
LINE
8
BLACK
6
CONTINUOUS
10
94.8834
20
-96.9656
11
94.8474
21
-97.0016
0
LINE
8
BLACK
6
CONTINUOUS
10
94.8474
20
-97.0016
11
94.8279
21
-97.0405
0
LINE
8
BLACK
6
CONTINUOUS
10
94.8279
20
-97.0405
11
94.8036
21
-97.1378
0
LINE
8
BLACK
6
CONTINUOUS
10
94.8036
20
-97.1378
11
94.8036
21
-97.2051
0
LINE
8
BLACK
6
CONTINUOUS
10
94.8036
20
-97.2051
11
94.8279
21
-97.3024
0
LINE
8
BLACK
6
CONTINUOUS
10
94.8279
20
-97.3024
11
94.8474
21
-97.3413
0
LINE
8
BLACK
6
CONTINUOUS
10
94.8474
20
-97.3413
11
94.8834
21
-97.3773
0
LINE
8
BLACK
6
CONTINUOUS
10
94.8834
20
-97.3773
11
94.9407
21
-97.3964
0
LINE
8
BLACK
6
CONTINUOUS
10
94.9407
20
-97.3964
11
94.9735
21
-97.3964
0
LINE
8
BLACK
6
CONTINUOUS
10
94.9735
20
-97.3964
11
95.0309
21
-97.3773
0
LINE
8
BLACK
6
CONTINUOUS
10
95.0309
20
-97.3773
11
95.047
21
-97.3613
0
LINE
8
BLACK
6
CONTINUOUS
10
95.047
20
-97.3613
11
95.0683
21
-97.3463
0
LINE
8
BLACK
6
CONTINUOUS
10
95.0683
20
-97.3463
11
95.1194
21
-97.3418
0
LINE
8
BLACK
6
CONTINUOUS
10
95.1194
20
-97.3418
11
95.1614
21
-97.3713
0
LINE
8
BLACK
6
CONTINUOUS
10
95.1614
20
-97.3713
11
95.1747
21
-97.4208
0
LINE
8
BLACK
6
CONTINUOUS
10
95.1747
20
-97.4208
11
95.153
21
-97.4673
0
LINE
8
BLACK
6
CONTINUOUS
10
95.153
20
-97.4673
11
95.1245
21
-97.4959
0
LINE
8
BLACK
6
CONTINUOUS
10
95.1245
20
-97.4959
11
95.1031
21
-97.5108
0
LINE
8
BLACK
6
CONTINUOUS
10
95.1031
20
-97.5108
11
95.0987
21
-97.5112
0
LINE
8
BLACK
6
CONTINUOUS
10
95.0987
20
-97.5112
11
95.0951
21
-97.514
0
LINE
8
BLACK
6
CONTINUOUS
10
95.0951
20
-97.514
11
95.0094
21
-97.5426
0
LINE
8
BLACK
6
CONTINUOUS
10
95.0094
20
-97.5426
11
94.9873
21
-97.5459
0
LINE
8
BLACK
6
CONTINUOUS
10
94.9873
20
-97.5459
11
94.9857
21
-97.5464
0
LINE
8
BLACK
6
CONTINUOUS
10
94.9857
20
-97.5464
11
94.9286
21
-97.5464
0
LINE
8
BLACK
6
CONTINUOUS
10
94.9286
20
-97.5464
11
94.9065
21
-97.5425
0
LINE
8
BLACK
6
CONTINUOUS
10
94.9065
20
-97.5425
11
94.9049
21
-97.5426
0
LINE
8
BLACK
6
CONTINUOUS
10
94.9049
20
-97.5426
11
94.8191
21
-97.514
0
LINE
8
BLACK
6
CONTINUOUS
10
94.8191
20
-97.514
11
94.7962
21
-97.5016
0
LINE
8
BLACK
6
CONTINUOUS
10
94.7962
20
-97.5016
11
94.7939
21
-97.4978
0
LINE
8
BLACK
6
CONTINUOUS
10
94.7939
20
-97.4978
11
94.7898
21
-97.4959
0
LINE
8
BLACK
6
CONTINUOUS
10
94.7898
20
-97.4959
11
94.7327
21
-97.4387
0
LINE
8
BLACK
6
CONTINUOUS
10
94.7327
20
-97.4387
11
94.7198
21
-97.4204
0
LINE
8
BLACK
6
CONTINUOUS
10
94.7198
20
-97.4204
11
94.7186
21
-97.4193
0
LINE
8
BLACK
6
CONTINUOUS
10
94.7186
20
-97.4193
11
94.6901
21
-97.3621
0
LINE
8
BLACK
6
CONTINUOUS
10
94.6901
20
-97.3621
11
94.6864
21
-97.3497
0
LINE
8
BLACK
6
CONTINUOUS
10
94.6864
20
-97.3497
11
94.6844
21
-97.3468
0
LINE
8
BLACK
6
CONTINUOUS
10
94.6844
20
-97.3468
11
94.6558
21
-97.2325
0
LINE
8
BLACK
6
CONTINUOUS
10
94.6558
20
-97.2325
11
94.6548
21
-97.2175
0
LINE
8
BLACK
6
CONTINUOUS
10
94.6548
20
-97.2175
11
94.6536
21
-97.2143
0
LINE
8
BLACK
6
CONTINUOUS
10
94.6536
20
-97.2143
11
94.6536
21
-97.1286
0
LINE
8
BLACK
6
CONTINUOUS
10
94.6536
20
-97.1286
11
94.6562
21
-97.1138
0
LINE
8
BLACK
6
CONTINUOUS
10
94.6562
20
-97.1138
11
94.6558
21
-97.1104
0
LINE
8
BLACK
6
CONTINUOUS
10
94.6558
20
-97.1104
11
94.6844
21
-96.9961
0
LINE
8
BLACK
6
CONTINUOUS
10
94.6844
20
-96.9961
11
94.6897
21
-96.9843
0
LINE
8
BLACK
6
CONTINUOUS
10
94.6897
20
-96.9843
11
94.6901
21
-96.9807
0
LINE
8
BLACK
6
CONTINUOUS
10
94.6901
20
-96.9807
11
94.7186
21
-96.9236
0
LINE
8
BLACK
6
CONTINUOUS
10
94.7186
20
-96.9236
11
94.732
21
-96.9056
0
LINE
8
BLACK
6
CONTINUOUS
10
94.732
20
-96.9056
11
94.7327
21
-96.9041
0
LINE
8
BLACK
6
CONTINUOUS
10
94.7327
20
-96.9041
11
94.7898
21
-96.847
0
LINE
8
BLACK
6
CONTINUOUS
10
94.7898
20
-96.847
11
94.8112
21
-96.832
0
LINE
8
BLACK
6
CONTINUOUS
10
94.8112
20
-96.832
11
94.8156
21
-96.8316
0
LINE
8
BLACK
6
CONTINUOUS
10
94.8156
20
-96.8316
11
94.8191
21
-96.8288
0
LINE
8
BLACK
6
CONTINUOUS
10
94.8191
20
-96.8288
11
94.9049
21
-96.8003
0
LINE
8
BLACK
6
CONTINUOUS
10
94.9049
20
-96.8003
11
94.927
21
-96.797
0
LINE
8
BLACK
6
CONTINUOUS
10
94.927
20
-96.797
11
94.9286
21
-96.7964
0
LINE
8
BLACK
6
CONTINUOUS
10
94.9286
20
-96.7964
11
94.9857
21
-96.7964
0
LINE
8
BLACK
6
CONTINUOUS
10
94.9857
20
-96.7964
11
95.0078
21
-96.8003
0
LINE
8
BLACK
6
CONTINUOUS
10
99.8078
20
-96.8003
11
99.8094
21
-96.8003
0
LINE
8
BLACK
6
CONTINUOUS
10
99.8094
20
-96.8003
11
99.8951
21
-96.8288
0
LINE
8
BLACK
6
CONTINUOUS
10
99.8951
20
-96.8288
11
99.9181
21
-96.8413
0
LINE
8
BLACK
6
CONTINUOUS
10
99.9181
20
-96.8413
11
99.9204
21
-96.8451
0
LINE
8
BLACK
6
CONTINUOUS
10
99.9204
20
-96.8451
11
99.9245
21
-96.847
0
LINE
8
BLACK
6
CONTINUOUS
10
99.9245
20
-96.847
11
99.953
21
-96.8755
0
LINE
8
BLACK
6
CONTINUOUS
10
99.953
20
-96.8755
11
99.968
21
-96.8969
0
LINE
8
BLACK
6
CONTINUOUS
10
99.968
20
-96.8969
11
99.9724
21
-96.948
0
LINE
8
BLACK
6
CONTINUOUS
10
99.9724
20
-96.948
11
99.943
21
-96.99
0
LINE
8
BLACK
6
CONTINUOUS
10
99.943
20
-96.99
11
99.8935
21
-97.0033
0
LINE
8
BLACK
6
CONTINUOUS
10
99.8935
20
-97.0033
11
99.847
21
-96.9816
0
LINE
8
BLACK
6
CONTINUOUS
10
99.847
20
-96.9816
11
99.8309
21
-96.9656
0
LINE
8
BLACK
6
CONTINUOUS
10
99.8309
20
-96.9656
11
99.7735
21
-96.9464
0
LINE
8
BLACK
6
CONTINUOUS
10
99.7735
20
-96.9464
11
99.7407
21
-96.9464
0
LINE
8
BLACK
6
CONTINUOUS
10
99.7407
20
-96.9464
11
99.6834
21
-96.9656
0
LINE
8
BLACK
6
CONTINUOUS
10
99.6834
20
-96.9656
11
99.6474
21
-97.0016
0
LINE
8
BLACK
6
CONTINUOUS
10
99.6474
20
-97.0016
11
99.6279
21
-97.0405
0
LINE
8
BLACK
6
CONTINUOUS
10
99.6279
20
-97.0405
11
99.6036
21
-97.1378
0
LINE
8
BLACK
6
CONTINUOUS
10
99.6036
20
-97.1378
11
99.6036
21
-97.2051
0
LINE
8
BLACK
6
CONTINUOUS
10
99.6036
20
-97.2051
11
99.6279
21
-97.3024
0
LINE
8
BLACK
6
CONTINUOUS
10
99.6279
20
-97.3024
11
99.6474
21
-97.3413
0
LINE
8
BLACK
6
CONTINUOUS
10
99.6474
20
-97.3413
11
99.6834
21
-97.3773
0
LINE
8
BLACK
6
CONTINUOUS
10
99.6834
20
-97.3773
11
99.7407
21
-97.3964
0
LINE
8
BLACK
6
CONTINUOUS
10
99.7407
20
-97.3964
11
99.7735
21
-97.3964
0
LINE
8
BLACK
6
CONTINUOUS
10
99.7735
20
-97.3964
11
99.8309
21
-97.3773
0
LINE
8
BLACK
6
CONTINUOUS
10
99.8309
20
-97.3773
11
99.847
21
-97.3613
0
LINE
8
BLACK
6
CONTINUOUS
10
99.847
20
-97.3613
11
99.8683
21
-97.3463
0
LINE
8
BLACK
6
CONTINUOUS
10
99.8683
20
-97.3463
11
99.9194
21
-97.3418
0
LINE
8
BLACK
6
CONTINUOUS
10
99.9194
20
-97.3418
11
99.9614
21
-97.3713
0
LINE
8
BLACK
6
CONTINUOUS
10
99.9614
20
-97.3713
11
99.9747
21
-97.4208
0
LINE
8
BLACK
6
CONTINUOUS
10
99.9747
20
-97.4208
11
99.953
21
-97.4673
0
LINE
8
BLACK
6
CONTINUOUS
10
99.953
20
-97.4673
11
99.9245
21
-97.4959
0
LINE
8
BLACK
6
CONTINUOUS
10
99.9245
20
-97.4959
11
99.9031
21
-97.5108
0
LINE
8
BLACK
6
CONTINUOUS
10
99.9031
20
-97.5108
11
99.8987
21
-97.5112
0
LINE
8
BLACK
6
CONTINUOUS
10
99.8987
20
-97.5112
11
99.8951
21
-97.514
0
LINE
8
BLACK
6
CONTINUOUS
10
99.8951
20
-97.514
11
99.8094
21
-97.5426
0
LINE
8
BLACK
6
CONTINUOUS
10
99.8094
20
-97.5426
11
99.7873
21
-97.5459
0
LINE
8
BLACK
6
CONTINUOUS
10
99.7873
20
-97.5459
11
99.7857
21
-97.5464
0
LINE
8
BLACK
6
CONTINUOUS
10
99.7857
20
-97.5464
11
99.7286
21
-97.5464
0
LINE
8
BLACK
6
CONTINUOUS
10
99.7286
20
-97.5464
11
99.7065
21
-97.5425
0
LINE
8
BLACK
6
CONTINUOUS
10
99.7065
20
-97.5425
11
99.7049
21
-97.5426
0
LINE
8
BLACK
6
CONTINUOUS
10
99.7049
20
-97.5426
11
99.6191
21
-97.514
0
LINE
8
BLACK
6
CONTINUOUS
10
99.6191
20
-97.514
11
99.5962
21
-97.5016
0
LINE
8
BLACK
6
CONTINUOUS
10
99.5962
20
-97.5016
11
99.5939
21
-97.4978
0
LINE
8
BLACK
6
CONTINUOUS
10
99.5939
20
-97.4978
11
99.5898
21
-97.4959
0
LINE
8
BLACK
6
CONTINUOUS
10
99.5898
20
-97.4959
11
99.5327
21
-97.4387
0
LINE
8
BLACK
6
CONTINUOUS
10
99.5327
20
-97.4387
11
99.5198
21
-97.4204
0
LINE
8
BLACK
6
CONTINUOUS
10
99.5198
20
-97.4204
11
99.5186
21
-97.4193
0
LINE
8
BLACK
6
CONTINUOUS
10
99.5186
20
-97.4193
11
99.4901
21
-97.3621
0
LINE
8
BLACK
6
CONTINUOUS
10
99.4901
20
-97.3621
11
99.4864
21
-97.3497
0
LINE
8
BLACK
6
CONTINUOUS
10
99.4864
20
-97.3497
11
99.4844
21
-97.3468
0
LINE
8
BLACK
6
CONTINUOUS
10
99.4844
20
-97.3468
11
99.4558
21
-97.2325
0
LINE
8
BLACK
6
CONTINUOUS
10
99.4558
20
-97.2325
11
99.4548
21
-97.2175
0
LINE
8
BLACK
6
CONTINUOUS
10
99.4548
20
-97.2175
11
99.4536
21
-97.2143
0
LINE
8
BLACK
6
CONTINUOUS
10
99.4536
20
-97.2143
11
99.4536
21
-97.1286
0
LINE
8
BLACK
6
CONTINUOUS
10
99.4536
20
-97.1286
11
99.4562
21
-97.1138
0
LINE
8
BLACK
6
CONTINUOUS
10
99.4562
20
-97.1138
11
99.4558
21
-97.1104
0
LINE
8
BLACK
6
CONTINUOUS
10
99.4558
20
-97.1104
11
99.4844
21
-96.9961
0
LINE
8
BLACK
6
CONTINUOUS
10
99.4844
20
-96.9961
11
99.4897
21
-96.9843
0
LINE
8
BLACK
6
CONTINUOUS
10
99.4897
20
-96.9843
11
99.4901
21
-96.9807
0
LINE
8
BLACK
6
CONTINUOUS
10
99.4901
20
-96.9807
11
99.5186
21
-96.9236
0
LINE
8
BLACK
6
CONTINUOUS
10
99.5186
20
-96.9236
11
99.532
21
-96.9056
0
LINE
8
BLACK
6
CONTINUOUS
10
99.532
20
-96.9056
11
99.5327
21
-96.9041
0
LINE
8
BLACK
6
CONTINUOUS
10
99.5327
20
-96.9041
11
99.5898
21
-96.847
0
LINE
8
BLACK
6
CONTINUOUS
10
99.5898
20
-96.847
11
99.6112
21
-96.832
0
LINE
8
BLACK
6
CONTINUOUS
10
99.6112
20
-96.832
11
99.6156
21
-96.8316
0
LINE
8
BLACK
6
CONTINUOUS
10
99.6156
20
-96.8316
11
99.6191
21
-96.8288
0
LINE
8
BLACK
6
CONTINUOUS
10
99.6191
20
-96.8288
11
99.7049
21
-96.8003
0
LINE
8
BLACK
6
CONTINUOUS
10
99.7049
20
-96.8003
11
99.727
21
-96.797
0
LINE
8
BLACK
6
CONTINUOUS
10
99.727
20
-96.797
11
99.7286
21
-96.7964
0
LINE
8
BLACK
6
CONTINUOUS
10
99.7286
20
-96.7964
11
99.7857
21
-96.7964
0
LINE
8
BLACK
6
CONTINUOUS
10
99.7857
20
-96.7964
11
99.8078
21
-96.8003
0
LINE
8
BLACK
6
CONTINUOUS
10
95.6685
20
-96.801
11
95.7078
21
-96.8339
0
LINE
8
BLACK
6
CONTINUOUS
10
95.7078
20
-96.8339
11
95.7167
21
-96.8845
0
LINE
8
BLACK
6
CONTINUOUS
10
95.7167
20
-96.8845
11
95.6911
21
-96.9289
0
LINE
8
BLACK
6
CONTINUOUS
10
95.6911
20
-96.9289
11
95.6429
21
-96.9464
0
LINE
8
BLACK
6
CONTINUOUS
10
95.6429
20
-96.9464
11
95.425
21
-96.9464
0
LINE
8
BLACK
6
CONTINUOUS
10
95.425
20
-96.9464
11
95.4172
21
-97.025
0
LINE
8
BLACK
6
CONTINUOUS
10
95.4172
20
-97.025
11
95.5571
21
-97.025
0
LINE
8
BLACK
6
CONTINUOUS
10
95.5571
20
-97.025
11
95.5828
21
-97.0295
0
LINE
8
BLACK
6
CONTINUOUS
10
95.5828
20
-97.0295
11
95.5862
21
-97.0324
0
LINE
8
BLACK
6
CONTINUOUS
10
95.5862
20
-97.0324
11
95.5907
21
-97.0329
0
LINE
8
BLACK
6
CONTINUOUS
10
95.5907
20
-97.0329
11
95.6478
21
-97.0615
0
LINE
8
BLACK
6
CONTINUOUS
10
95.6478
20
-97.0615
11
95.6658
21
-97.0748
0
LINE
8
BLACK
6
CONTINUOUS
10
95.6658
20
-97.0748
11
95.6673
21
-97.0755
0
LINE
8
BLACK
6
CONTINUOUS
10
95.6673
20
-97.0755
11
95.6959
21
-97.1041
0
LINE
8
BLACK
6
CONTINUOUS
10
95.6959
20
-97.1041
11
95.7088
21
-97.1225
0
LINE
8
BLACK
6
CONTINUOUS
10
95.7088
20
-97.1225
11
95.7099
21
-97.1236
0
LINE
8
BLACK
6
CONTINUOUS
10
95.7099
20
-97.1236
11
95.7385
21
-97.1807
0
LINE
8
BLACK
6
CONTINUOUS
10
95.7385
20
-97.1807
11
95.7459
21
-97.2057
0
LINE
8
BLACK
6
CONTINUOUS
10
95.7459
20
-97.2057
11
95.7449
21
-97.2101
0
LINE
8
BLACK
6
CONTINUOUS
10
95.7449
20
-97.2101
11
95.7464
21
-97.2143
0
LINE
8
BLACK
6
CONTINUOUS
10
95.7464
20
-97.2143
11
95.7464
21
-97.3571
0
LINE
8
BLACK
6
CONTINUOUS
10
95.7464
20
-97.3571
11
95.7419
21
-97.3828
0
LINE
8
BLACK
6
CONTINUOUS
10
95.7419
20
-97.3828
11
95.739
21
-97.3862
0
LINE
8
BLACK
6
CONTINUOUS
10
95.739
20
-97.3862
11
95.7385
21
-97.3907
0
LINE
8
BLACK
6
CONTINUOUS
10
95.7385
20
-97.3907
11
95.7099
21
-97.4478
0
LINE
8
BLACK
6
CONTINUOUS
10
95.7099
20
-97.4478
11
95.6966
21
-97.4658
0
LINE
8
BLACK
6
CONTINUOUS
10
95.6966
20
-97.4658
11
95.6959
21
-97.4673
0
LINE
8
BLACK
6
CONTINUOUS
10
95.6959
20
-97.4673
11
95.6673
21
-97.4959
0
LINE
8
BLACK
6
CONTINUOUS
10
95.6673
20
-97.4959
11
95.649
21
-97.5087
0
LINE
8
BLACK
6
CONTINUOUS
10
95.649
20
-97.5087
11
95.6478
21
-97.5099
0
LINE
8
BLACK
6
CONTINUOUS
10
95.6478
20
-97.5099
11
95.5907
21
-97.5385
0
LINE
8
BLACK
6
CONTINUOUS
10
95.5907
20
-97.5385
11
95.5657
21
-97.5459
0
LINE
8
BLACK
6
CONTINUOUS
10
95.5657
20
-97.5459
11
95.5614
21
-97.5449
0
LINE
8
BLACK
6
CONTINUOUS
10
95.5614
20
-97.5449
11
95.5571
21
-97.5464
0
LINE
8
BLACK
6
CONTINUOUS
10
95.5571
20
-97.5464
11
95.4143
21
-97.5464
0
LINE
8
BLACK
6
CONTINUOUS
10
95.4143
20
-97.5464
11
95.3886
21
-97.5419
0
LINE
8
BLACK
6
CONTINUOUS
10
95.3886
20
-97.5419
11
95.3852
21
-97.539
0
LINE
8
BLACK
6
CONTINUOUS
10
95.3852
20
-97.539
11
95.3807
21
-97.5385
0
LINE
8
BLACK
6
CONTINUOUS
10
95.3807
20
-97.5385
11
95.3236
21
-97.5099
0
LINE
8
BLACK
6
CONTINUOUS
10
95.3236
20
-97.5099
11
95.3056
21
-97.4966
0
LINE
8
BLACK
6
CONTINUOUS
10
95.3056
20
-97.4966
11
95.3041
21
-97.4959
0
LINE
8
BLACK
6
CONTINUOUS
10
95.3041
20
-97.4959
11
95.2755
21
-97.4673
0
LINE
8
BLACK
6
CONTINUOUS
10
95.2755
20
-97.4673
11
95.2606
21
-97.446
0
LINE
8
BLACK
6
CONTINUOUS
10
95.2606
20
-97.446
11
95.2561
21
-97.3949
0
LINE
8
BLACK
6
CONTINUOUS
10
95.2561
20
-97.3949
11
95.2856
21
-97.3528
0
LINE
8
BLACK
6
CONTINUOUS
10
95.2856
20
-97.3528
11
95.3351
21
-97.3396
0
LINE
8
BLACK
6
CONTINUOUS
10
95.3351
20
-97.3396
11
95.3816
21
-97.3613
0
LINE
8
BLACK
6
CONTINUOUS
10
95.3816
20
-97.3613
11
95.4016
21
-97.3812
0
LINE
8
BLACK
6
CONTINUOUS
10
95.4016
20
-97.3812
11
95.432
21
-97.3964
0
LINE
8
BLACK
6
CONTINUOUS
10
95.432
20
-97.3964
11
95.5394
21
-97.3964
0
LINE
8
BLACK
6
CONTINUOUS
10
95.5394
20
-97.3964
11
95.5699
21
-97.3812
0
LINE
8
BLACK
6
CONTINUOUS
10
95.5699
20
-97.3812
11
95.5812
21
-97.3699
0
LINE
8
BLACK
6
CONTINUOUS
10
95.5812
20
-97.3699
11
95.5964
21
-97.3394
0
LINE
8
BLACK
6
CONTINUOUS
10
95.5964
20
-97.3394
11
95.5964
21
-97.232
0
LINE
8
BLACK
6
CONTINUOUS
10
95.5964
20
-97.232
11
95.5812
21
-97.2016
0
LINE
8
BLACK
6
CONTINUOUS
10
95.5812
20
-97.2016
11
95.5699
21
-97.1902
0
LINE
8
BLACK
6
CONTINUOUS
10
95.5699
20
-97.1902
11
95.5394
21
-97.175
0
LINE
8
BLACK
6
CONTINUOUS
10
95.5394
20
-97.175
11
95.432
21
-97.175
0
LINE
8
BLACK
6
CONTINUOUS
10
95.432
20
-97.175
11
95.4016
21
-97.1902
0
LINE
8
BLACK
6
CONTINUOUS
10
95.4016
20
-97.1902
11
95.3816
21
-97.2102
0
LINE
8
BLACK
6
CONTINUOUS
10
95.3816
20
-97.2102
11
95.3603
21
-97.2251
0
LINE
8
BLACK
6
CONTINUOUS
10
95.3603
20
-97.2251
11
95.3598
21
-97.2252
0
LINE
8
BLACK
6
CONTINUOUS
10
95.3598
20
-97.2252
11
95.3594
21
-97.2255
0
LINE
8
BLACK
6
CONTINUOUS
10
95.3594
20
-97.2255
11
95.3343
21
-97.2274
0
LINE
8
BLACK
6
CONTINUOUS
10
95.3343
20
-97.2274
11
95.3092
21
-97.2296
0
LINE
8
BLACK
6
CONTINUOUS
10
95.3092
20
-97.2296
11
95.3088
21
-97.2293
0
LINE
8
BLACK
6
CONTINUOUS
10
95.3088
20
-97.2293
11
95.3083
21
-97.2293
0
LINE
8
BLACK
6
CONTINUOUS
10
95.3083
20
-97.2293
11
95.2878
21
-97.2146
0
LINE
8
BLACK
6
CONTINUOUS
10
95.2878
20
-97.2146
11
95.2671
21
-97.2002
0
LINE
8
BLACK
6
CONTINUOUS
10
95.2671
20
-97.2002
11
95.267
21
-97.1997
0
LINE
8
BLACK
6
CONTINUOUS
10
95.267
20
-97.1997
11
95.2666
21
-97.1994
0
LINE
8
BLACK
6
CONTINUOUS
10
95.2666
20
-97.1994
11
95.2604
21
-97.175
0
LINE
8
BLACK
6
CONTINUOUS
10
95.2604
20
-97.175
11
95.2539
21
-97.1506
0
LINE
8
BLACK
6
CONTINUOUS
10
95.2539
20
-97.1506
11
95.2541
21
-97.1502
0
LINE
8
BLACK
6
CONTINUOUS
10
95.2541
20
-97.1502
11
95.2539
21
-97.1497
0
LINE
8
BLACK
6
CONTINUOUS
10
95.2539
20
-97.1497
11
95.2825
21
-96.864
0
LINE
8
BLACK
6
CONTINUOUS
10
95.2825
20
-96.864
11
95.2836
21
-96.8601
0
LINE
8
BLACK
6
CONTINUOUS
10
95.2836
20
-96.8601
11
95.2833
21
-96.8584
0
LINE
8
BLACK
6
CONTINUOUS
10
95.2833
20
-96.8584
11
95.2848
21
-96.8557
0
LINE
8
BLACK
6
CONTINUOUS
10
95.2848
20
-96.8557
11
95.2896
21
-96.8389
0
LINE
8
BLACK
6
CONTINUOUS
10
95.2896
20
-96.8389
11
95.301
21
-96.8278
0
LINE
8
BLACK
6
CONTINUOUS
10
95.301
20
-96.8278
11
95.3089
21
-96.814
0
LINE
8
BLACK
6
CONTINUOUS
10
95.3089
20
-96.814
11
95.3188
21
-96.8104
0
LINE
8
BLACK
6
CONTINUOUS
10
95.3188
20
-96.8104
11
95.3263
21
-96.8031
0
LINE
8
BLACK
6
CONTINUOUS
10
95.3263
20
-96.8031
11
95.3422
21
-96.8019
0
LINE
8
BLACK
6
CONTINUOUS
10
95.3422
20
-96.8019
11
95.3571
21
-96.7964
0
LINE
8
BLACK
6
CONTINUOUS
10
95.3571
20
-96.7964
11
95.6429
21
-96.7964
0
LINE
8
BLACK
6
CONTINUOUS
10
95.6429
20
-96.7964
11
95.6685
21
-96.801
0
LINE
8
BLACK
6
CONTINUOUS
10
96.6078
20
-96.8003
11
96.6094
21
-96.8003
0
LINE
8
BLACK
6
CONTINUOUS
10
96.6094
20
-96.8003
11
96.6951
21
-96.8288
0
LINE
8
BLACK
6
CONTINUOUS
10
96.6951
20
-96.8288
11
96.7181
21
-96.8413
0
LINE
8
BLACK
6
CONTINUOUS
10
96.7181
20
-96.8413
11
96.7204
21
-96.8451
0
LINE
8
BLACK
6
CONTINUOUS
10
96.7204
20
-96.8451
11
96.7245
21
-96.847
0
LINE
8
BLACK
6
CONTINUOUS
10
96.7245
20
-96.847
11
96.753
21
-96.8755
0
LINE
8
BLACK
6
CONTINUOUS
10
96.753
20
-96.8755
11
96.768
21
-96.8969
0
LINE
8
BLACK
6
CONTINUOUS
10
96.768
20
-96.8969
11
96.7724
21
-96.948
0
LINE
8
BLACK
6
CONTINUOUS
10
96.7724
20
-96.948
11
96.743
21
-96.99
0
LINE
8
BLACK
6
CONTINUOUS
10
96.743
20
-96.99
11
96.6935
21
-97.0033
0
LINE
8
BLACK
6
CONTINUOUS
10
96.6935
20
-97.0033
11
96.647
21
-96.9816
0
LINE
8
BLACK
6
CONTINUOUS
10
96.647
20
-96.9816
11
96.6309
21
-96.9656
0
LINE
8
BLACK
6
CONTINUOUS
10
96.6309
20
-96.9656
11
96.5735
21
-96.9464
0
LINE
8
BLACK
6
CONTINUOUS
10
96.5735
20
-96.9464
11
96.5407
21
-96.9464
0
LINE
8
BLACK
6
CONTINUOUS
10
96.5407
20
-96.9464
11
96.4834
21
-96.9656
0
LINE
8
BLACK
6
CONTINUOUS
10
96.4834
20
-96.9656
11
96.4474
21
-97.0016
0
LINE
8
BLACK
6
CONTINUOUS
10
96.4474
20
-97.0016
11
96.4279
21
-97.0405
0
LINE
8
BLACK
6
CONTINUOUS
10
96.4279
20
-97.0405
11
96.4036
21
-97.1378
0
LINE
8
BLACK
6
CONTINUOUS
10
96.4036
20
-97.1378
11
96.4036
21
-97.2051
0
LINE
8
BLACK
6
CONTINUOUS
10
96.4036
20
-97.2051
11
96.4279
21
-97.3024
0
LINE
8
BLACK
6
CONTINUOUS
10
96.4279
20
-97.3024
11
96.4474
21
-97.3413
0
LINE
8
BLACK
6
CONTINUOUS
10
96.4474
20
-97.3413
11
96.4834
21
-97.3773
0
LINE
8
BLACK
6
CONTINUOUS
10
96.4834
20
-97.3773
11
96.5407
21
-97.3964
0
LINE
8
BLACK
6
CONTINUOUS
10
96.5407
20
-97.3964
11
96.5735
21
-97.3964
0
LINE
8
BLACK
6
CONTINUOUS
10
96.5735
20
-97.3964
11
96.6309
21
-97.3773
0
LINE
8
BLACK
6
CONTINUOUS
10
96.6309
20
-97.3773
11
96.647
21
-97.3613
0
LINE
8
BLACK
6
CONTINUOUS
10
96.647
20
-97.3613
11
96.6683
21
-97.3463
0
LINE
8
BLACK
6
CONTINUOUS
10
96.6683
20
-97.3463
11
96.7194
21
-97.3418
0
LINE
8
BLACK
6
CONTINUOUS
10
96.7194
20
-97.3418
11
96.7614
21
-97.3713
0
LINE
8
BLACK
6
CONTINUOUS
10
96.7614
20
-97.3713
11
96.7747
21
-97.4208
0
LINE
8
BLACK
6
CONTINUOUS
10
96.7747
20
-97.4208
11
96.753
21
-97.4673
0
LINE
8
BLACK
6
CONTINUOUS
10
96.753
20
-97.4673
11
96.7245
21
-97.4959
0
LINE
8
BLACK
6
CONTINUOUS
10
96.7245
20
-97.4959
11
96.7031
21
-97.5108
0
LINE
8
BLACK
6
CONTINUOUS
10
96.7031
20
-97.5108
11
96.6987
21
-97.5112
0
LINE
8
BLACK
6
CONTINUOUS
10
96.6987
20
-97.5112
11
96.6951
21
-97.514
0
LINE
8
BLACK
6
CONTINUOUS
10
96.6951
20
-97.514
11
96.6094
21
-97.5426
0
LINE
8
BLACK
6
CONTINUOUS
10
96.6094
20
-97.5426
11
96.5873
21
-97.5459
0
LINE
8
BLACK
6
CONTINUOUS
10
96.5873
20
-97.5459
11
96.5857
21
-97.5464
0
LINE
8
BLACK
6
CONTINUOUS
10
96.5857
20
-97.5464
11
96.5286
21
-97.5464
0
LINE
8
BLACK
6
CONTINUOUS
10
96.5286
20
-97.5464
11
96.5065
21
-97.5425
0
LINE
8
BLACK
6
CONTINUOUS
10
96.5065
20
-97.5425
11
96.5049
21
-97.5426
0
LINE
8
BLACK
6
CONTINUOUS
10
96.5049
20
-97.5426
11
96.4191
21
-97.514
0
LINE
8
BLACK
6
CONTINUOUS
10
96.4191
20
-97.514
11
96.3962
21
-97.5016
0
LINE
8
BLACK
6
CONTINUOUS
10
96.3962
20
-97.5016
11
96.3939
21
-97.4978
0
LINE
8
BLACK
6
CONTINUOUS
10
96.3939
20
-97.4978
11
96.3898
21
-97.4959
0
LINE
8
BLACK
6
CONTINUOUS
10
96.3898
20
-97.4959
11
96.3327
21
-97.4387
0
LINE
8
BLACK
6
CONTINUOUS
10
96.3327
20
-97.4387
11
96.3198
21
-97.4204
0
LINE
8
BLACK
6
CONTINUOUS
10
96.3198
20
-97.4204
11
96.3186
21
-97.4193
0
LINE
8
BLACK
6
CONTINUOUS
10
96.3186
20
-97.4193
11
96.2901
21
-97.3621
0
LINE
8
BLACK
6
CONTINUOUS
10
96.2901
20
-97.3621
11
96.2864
21
-97.3497
0
LINE
8
BLACK
6
CONTINUOUS
10
96.2864
20
-97.3497
11
96.2844
21
-97.3468
0
LINE
8
BLACK
6
CONTINUOUS
10
96.2844
20
-97.3468
11
96.2558
21
-97.2325
0
LINE
8
BLACK
6
CONTINUOUS
10
96.2558
20
-97.2325
11
96.2548
21
-97.2175
0
LINE
8
BLACK
6
CONTINUOUS
10
96.2548
20
-97.2175
11
96.2536
21
-97.2143
0
LINE
8
BLACK
6
CONTINUOUS
10
96.2536
20
-97.2143
11
96.2536
21
-97.1286
0
LINE
8
BLACK
6
CONTINUOUS
10
96.2536
20
-97.1286
11
96.2562
21
-97.1138
0
LINE
8
BLACK
6
CONTINUOUS
10
96.2562
20
-97.1138
11
96.2558
21
-97.1104
0
LINE
8
BLACK
6
CONTINUOUS
10
96.2558
20
-97.1104
11
96.2844
21
-96.9961
0
LINE
8
BLACK
6
CONTINUOUS
10
96.2844
20
-96.9961
11
96.2897
21
-96.9843
0
LINE
8
BLACK
6
CONTINUOUS
10
96.2897
20
-96.9843
11
96.2901
21
-96.9807
0
LINE
8
BLACK
6
CONTINUOUS
10
96.2901
20
-96.9807
11
96.3186
21
-96.9236
0
LINE
8
BLACK
6
CONTINUOUS
10
96.3186
20
-96.9236
11
96.332
21
-96.9056
0
LINE
8
BLACK
6
CONTINUOUS
10
96.332
20
-96.9056
11
96.3327
21
-96.9041
0
LINE
8
BLACK
6
CONTINUOUS
10
96.3327
20
-96.9041
11
96.3898
21
-96.847
0
LINE
8
BLACK
6
CONTINUOUS
10
96.3898
20
-96.847
11
96.4112
21
-96.832
0
LINE
8
BLACK
6
CONTINUOUS
10
96.4112
20
-96.832
11
96.4156
21
-96.8316
0
LINE
8
BLACK
6
CONTINUOUS
10
96.4156
20
-96.8316
11
96.4191
21
-96.8288
0
LINE
8
BLACK
6
CONTINUOUS
10
96.4191
20
-96.8288
11
96.5049
21
-96.8003
0
LINE
8
BLACK
6
CONTINUOUS
10
96.5049
20
-96.8003
11
96.527
21
-96.797
0
LINE
8
BLACK
6
CONTINUOUS
10
96.527
20
-96.797
11
96.5286
21
-96.7964
0
LINE
8
BLACK
6
CONTINUOUS
10
96.5286
20
-96.7964
11
96.5857
21
-96.7964
0
LINE
8
BLACK
6
CONTINUOUS
10
96.5857
20
-96.7964
11
96.6078
21
-96.8003
0
LINE
8
BLACK
6
CONTINUOUS
10
100.44
20
-96.801
11
100.479
21
-96.8339
0
LINE
8
BLACK
6
CONTINUOUS
10
100.479
20
-96.8339
11
100.488
21
-96.8845
0
LINE
8
BLACK
6
CONTINUOUS
10
100.488
20
-96.8845
11
100.462
21
-96.9289
0
LINE
8
BLACK
6
CONTINUOUS
10
100.462
20
-96.9289
11
100.414
21
-96.9464
0
LINE
8
BLACK
6
CONTINUOUS
10
100.414
20
-96.9464
11
100.318
21
-96.9464
0
LINE
8
BLACK
6
CONTINUOUS
10
100.318
20
-96.9464
11
100.287
21
-96.9616
0
LINE
8
BLACK
6
CONTINUOUS
10
100.287
20
-96.9616
11
100.273
21
-96.9764
0
LINE
8
BLACK
6
CONTINUOUS
10
100.273
20
-96.9764
11
100.239
21
-97.0263
0
LINE
8
BLACK
6
CONTINUOUS
10
100.239
20
-97.0263
11
100.243
21
-97.025
0
LINE
8
BLACK
6
CONTINUOUS
10
100.243
20
-97.025
11
100.357
21
-97.025
0
LINE
8
BLACK
6
CONTINUOUS
10
100.357
20
-97.025
11
100.383
21
-97.0295
0
LINE
8
BLACK
6
CONTINUOUS
10
100.383
20
-97.0295
11
100.386
21
-97.0324
0
LINE
8
BLACK
6
CONTINUOUS
10
100.386
20
-97.0324
11
100.391
21
-97.0329
0
LINE
8
BLACK
6
CONTINUOUS
10
100.391
20
-97.0329
11
100.448
21
-97.0615
0
LINE
8
BLACK
6
CONTINUOUS
10
100.448
20
-97.0615
11
100.466
21
-97.0748
0
LINE
8
BLACK
6
CONTINUOUS
10
100.466
20
-97.0748
11
100.467
21
-97.0755
0
LINE
8
BLACK
6
CONTINUOUS
10
100.467
20
-97.0755
11
100.496
21
-97.1041
0
LINE
8
BLACK
6
CONTINUOUS
10
100.496
20
-97.1041
11
100.509
21
-97.1225
0
LINE
8
BLACK
6
CONTINUOUS
10
100.509
20
-97.1225
11
100.51
21
-97.1236
0
LINE
8
BLACK
6
CONTINUOUS
10
100.51
20
-97.1236
11
100.539
21
-97.1807
0
LINE
8
BLACK
6
CONTINUOUS
10
100.539
20
-97.1807
11
100.546
21
-97.2057
0
LINE
8
BLACK
6
CONTINUOUS
10
100.546
20
-97.2057
11
100.545
21
-97.2101
0
LINE
8
BLACK
6
CONTINUOUS
10
100.545
20
-97.2101
11
100.546
21
-97.2143
0
LINE
8
BLACK
6
CONTINUOUS
10
100.546
20
-97.2143
11
100.546
21
-97.3571
0
LINE
8
BLACK
6
CONTINUOUS
10
100.546
20
-97.3571
11
100.542
21
-97.3828
0
LINE
8
BLACK
6
CONTINUOUS
10
100.542
20
-97.3828
11
100.539
21
-97.3862
0
LINE
8
BLACK
6
CONTINUOUS
10
100.539
20
-97.3862
11
100.539
21
-97.3907
0
LINE
8
BLACK
6
CONTINUOUS
10
100.539
20
-97.3907
11
100.51
21
-97.4478
0
LINE
8
BLACK
6
CONTINUOUS
10
100.51
20
-97.4478
11
100.497
21
-97.4658
0
LINE
8
BLACK
6
CONTINUOUS
10
100.497
20
-97.4658
11
100.496
21
-97.4673
0
LINE
8
BLACK
6
CONTINUOUS
10
100.496
20
-97.4673
11
100.467
21
-97.4959
0
LINE
8
BLACK
6
CONTINUOUS
10
100.467
20
-97.4959
11
100.449
21
-97.5087
0
LINE
8
BLACK
6
CONTINUOUS
10
100.449
20
-97.5087
11
100.448
21
-97.5099
0
LINE
8
BLACK
6
CONTINUOUS
10
100.448
20
-97.5099
11
100.391
21
-97.5385
0
LINE
8
BLACK
6
CONTINUOUS
10
100.391
20
-97.5385
11
100.366
21
-97.5459
0
LINE
8
BLACK
6
CONTINUOUS
10
100.366
20
-97.5459
11
100.361
21
-97.5449
0
LINE
8
BLACK
6
CONTINUOUS
10
100.361
20
-97.5449
11
100.357
21
-97.5464
0
LINE
8
BLACK
6
CONTINUOUS
10
100.357
20
-97.5464
11
100.243
21
-97.5464
0
LINE
8
BLACK
6
CONTINUOUS
10
100.243
20
-97.5464
11
100.217
21
-97.5419
0
LINE
8
BLACK
6
CONTINUOUS
10
100.217
20
-97.5419
11
100.214
21
-97.539
0
LINE
8
BLACK
6
CONTINUOUS
10
100.214
20
-97.539
11
100.209
21
-97.5385
0
LINE
8
BLACK
6
CONTINUOUS
10
100.209
20
-97.5385
11
100.152
21
-97.5099
0
LINE
8
BLACK
6
CONTINUOUS
10
100.152
20
-97.5099
11
100.134
21
-97.4966
0
LINE
8
BLACK
6
CONTINUOUS
10
100.134
20
-97.4966
11
100.133
21
-97.4959
0
LINE
8
BLACK
6
CONTINUOUS
10
100.133
20
-97.4959
11
100.104
21
-97.4673
0
LINE
8
BLACK
6
CONTINUOUS
10
100.104
20
-97.4673
11
100.091
21
-97.449
0
LINE
8
BLACK
6
CONTINUOUS
10
100.091
20
-97.449
11
100.09
21
-97.4478
0
LINE
8
BLACK
6
CONTINUOUS
10
100.09
20
-97.4478
11
100.061
21
-97.3907
0
LINE
8
BLACK
6
CONTINUOUS
10
100.061
20
-97.3907
11
100.054
21
-97.3657
0
LINE
8
BLACK
6
CONTINUOUS
10
100.054
20
-97.3657
11
100.055
21
-97.3614
0
LINE
8
BLACK
6
CONTINUOUS
10
100.055
20
-97.3614
11
100.054
21
-97.3571
0
LINE
8
BLACK
6
CONTINUOUS
10
100.054
20
-97.3571
11
100.054
21
-97.1286
0
LINE
8
BLACK
6
CONTINUOUS
10
100.054
20
-97.1286
11
100.056
21
-97.1138
0
LINE
8
BLACK
6
CONTINUOUS
10
100.056
20
-97.1138
11
100.056
21
-97.1104
0
LINE
8
BLACK
6
CONTINUOUS
10
100.056
20
-97.1104
11
100.084
21
-96.9961
0
LINE
8
BLACK
6
CONTINUOUS
10
100.084
20
-96.9961
11
100.095
21
-96.9731
0
LINE
8
BLACK
6
CONTINUOUS
10
100.095
20
-96.9731
11
100.095
21
-96.9727
0
LINE
8
BLACK
6
CONTINUOUS
10
100.095
20
-96.9727
11
100.152
21
-96.887
0
LINE
8
BLACK
6
CONTINUOUS
10
100.152
20
-96.887
11
100.16
21
-96.8787
0
LINE
8
BLACK
6
CONTINUOUS
10
100.16
20
-96.8787
11
100.161
21
-96.8755
0
LINE
8
BLACK
6
CONTINUOUS
10
100.161
20
-96.8755
11
100.19
21
-96.847
0
LINE
8
BLACK
6
CONTINUOUS
10
100.19
20
-96.847
11
100.208
21
-96.8341
0
LINE
8
BLACK
6
CONTINUOUS
10
100.208
20
-96.8341
11
100.209
21
-96.8329
0
LINE
8
BLACK
6
CONTINUOUS
10
100.209
20
-96.8329
11
100.266
21
-96.8043
0
LINE
8
BLACK
6
CONTINUOUS
10
100.266
20
-96.8043
11
100.291
21
-96.7969
0
LINE
8
BLACK
6
CONTINUOUS
10
100.291
20
-96.7969
11
100.296
21
-96.798
0
LINE
8
BLACK
6
CONTINUOUS
10
100.296
20
-96.798
11
100.3
21
-96.7964
0
LINE
8
BLACK
6
CONTINUOUS
10
100.3
20
-96.7964
11
100.414
21
-96.7964
0
LINE
8
BLACK
6
CONTINUOUS
10
100.414
20
-96.7964
11
100.44
21
-96.801
0
LINE
8
BLACK
6
CONTINUOUS
10
100.261
20
-97.175
11
100.23
21
-97.1902
0
LINE
8
BLACK
6
CONTINUOUS
10
100.23
20
-97.1902
11
100.219
21
-97.2016
0
LINE
8
BLACK
6
CONTINUOUS
10
100.219
20
-97.2016
11
100.204
21
-97.232
0
LINE
8
BLACK
6
CONTINUOUS
10
100.204
20
-97.232
11
100.204
21
-97.3394
0
LINE
8
BLACK
6
CONTINUOUS
10
100.204
20
-97.3394
11
100.219
21
-97.3699
0
LINE
8
BLACK
6
CONTINUOUS
10
100.219
20
-97.3699
11
100.23
21
-97.3812
0
LINE
8
BLACK
6
CONTINUOUS
10
100.23
20
-97.3812
11
100.261
21
-97.3964
0
LINE
8
BLACK
6
CONTINUOUS
10
100.261
20
-97.3964
11
100.339
21
-97.3964
0
LINE
8
BLACK
6
CONTINUOUS
10
100.339
20
-97.3964
11
100.37
21
-97.3812
0
LINE
8
BLACK
6
CONTINUOUS
10
100.37
20
-97.3812
11
100.381
21
-97.3699
0
LINE
8
BLACK
6
CONTINUOUS
10
100.381
20
-97.3699
11
100.396
21
-97.3394
0
LINE
8
BLACK
6
CONTINUOUS
10
100.396
20
-97.3394
11
100.396
21
-97.232
0
LINE
8
BLACK
6
CONTINUOUS
10
100.396
20
-97.232
11
100.381
21
-97.2016
0
LINE
8
BLACK
6
CONTINUOUS
10
100.381
20
-97.2016
11
100.37
21
-97.1902
0
LINE
8
BLACK
6
CONTINUOUS
10
100.37
20
-97.1902
11
100.339
21
-97.175
0
LINE
8
BLACK
6
CONTINUOUS
10
100.339
20
-97.175
11
100.261
21
-97.175
0
LINE
8
BLACK
6
CONTINUOUS
10
93.9088
20
-96.7983
11
93.913
21
-96.7976
0
LINE
8
BLACK
6
CONTINUOUS
10
93.913
20
-96.7976
11
93.9319
21
-96.8084
0
LINE
8
BLACK
6
CONTINUOUS
10
93.9319
20
-96.8084
11
93.9518
21
-96.8172
0
LINE
8
BLACK
6
CONTINUOUS
10
93.9518
20
-96.8172
11
93.9537
21
-96.8211
0
LINE
8
BLACK
6
CONTINUOUS
10
93.9537
20
-96.8211
11
93.9575
21
-96.8232
0
LINE
8
BLACK
6
CONTINUOUS
10
93.9575
20
-96.8232
11
93.9649
21
-96.8437
0
LINE
8
BLACK
6
CONTINUOUS
10
93.9649
20
-96.8437
11
93.9745
21
-96.8632
0
LINE
8
BLACK
6
CONTINUOUS
10
93.9745
20
-96.8632
11
93.9735
21
-96.8674
0
LINE
8
BLACK
6
CONTINUOUS
10
93.9735
20
-96.8674
11
93.975
21
-96.8714
0
LINE
8
BLACK
6
CONTINUOUS
10
93.975
20
-96.8714
11
93.975
21
-97.3964
0
LINE
8
BLACK
6
CONTINUOUS
10
93.975
20
-97.3964
11
94.0714
21
-97.3964
0
LINE
8
BLACK
6
CONTINUOUS
10
94.0714
20
-97.3964
11
94.0971
21
-97.401
0
LINE
8
BLACK
6
CONTINUOUS
10
94.0971
20
-97.401
11
94.1364
21
-97.4339
0
LINE
8
BLACK
6
CONTINUOUS
10
94.1364
20
-97.4339
11
94.1453
21
-97.4845
0
LINE
8
BLACK
6
CONTINUOUS
10
94.1453
20
-97.4845
11
94.1196
21
-97.5289
0
LINE
8
BLACK
6
CONTINUOUS
10
94.1196
20
-97.5289
11
94.0714
21
-97.5464
0
LINE
8
BLACK
6
CONTINUOUS
10
94.0714
20
-97.5464
11
93.7286
21
-97.5464
0
LINE
8
BLACK
6
CONTINUOUS
10
93.7286
20
-97.5464
11
93.7029
21
-97.5419
0
LINE
8
BLACK
6
CONTINUOUS
10
93.7029
20
-97.5419
11
93.6636
21
-97.5089
0
LINE
8
BLACK
6
CONTINUOUS
10
93.6636
20
-97.5089
11
93.6547
21
-97.4584
0
LINE
8
BLACK
6
CONTINUOUS
10
93.6547
20
-97.4584
11
93.6804
21
-97.414
0
LINE
8
BLACK
6
CONTINUOUS
10
93.6804
20
-97.414
11
93.7286
21
-97.3964
0
LINE
8
BLACK
6
CONTINUOUS
10
93.7286
20
-97.3964
11
93.825
21
-97.3964
0
LINE
8
BLACK
6
CONTINUOUS
10
93.825
20
-97.3964
11
93.825
21
-97.0769
0
LINE
8
BLACK
6
CONTINUOUS
10
93.825
20
-97.0769
11
93.8204
21
-97.0802
0
LINE
8
BLACK
6
CONTINUOUS
10
93.8204
20
-97.0802
11
93.8193
21
-97.0814
0
LINE
8
BLACK
6
CONTINUOUS
10
93.8193
20
-97.0814
11
93.7621
21
-97.1099
0
LINE
8
BLACK
6
CONTINUOUS
10
93.7621
20
-97.1099
11
93.7371
21
-97.1174
0
LINE
8
BLACK
6
CONTINUOUS
10
93.7371
20
-97.1174
11
93.6872
21
-97.1054
0
LINE
8
BLACK
6
CONTINUOUS
10
93.6872
20
-97.1054
11
93.6567
21
-97.0642
0
LINE
8
BLACK
6
CONTINUOUS
10
93.6567
20
-97.0642
11
93.6598
21
-97.013
0
LINE
8
BLACK
6
CONTINUOUS
10
93.6598
20
-97.013
11
93.695
21
-96.9758
0
LINE
8
BLACK
6
CONTINUOUS
10
93.695
20
-96.9758
11
93.7413
21
-96.9526
0
LINE
8
BLACK
6
CONTINUOUS
10
93.7413
20
-96.9526
11
93.7846
21
-96.9094
0
LINE
8
BLACK
6
CONTINUOUS
10
93.7846
20
-96.9094
11
93.8376
21
-96.8298
0
LINE
8
BLACK
6
CONTINUOUS
10
93.8376
20
-96.8298
11
93.8556
21
-96.811
0
LINE
8
BLACK
6
CONTINUOUS
10
93.8556
20
-96.811
11
93.8597
21
-96.8098
0
LINE
8
BLACK
6
CONTINUOUS
10
93.8597
20
-96.8098
11
93.8625
21
-96.8065
0
LINE
8
BLACK
6
CONTINUOUS
10
93.8625
20
-96.8065
11
93.8839
21
-96.8027
0
LINE
8
BLACK
6
CONTINUOUS
10
93.8839
20
-96.8027
11
93.9048
21
-96.7966
0
LINE
8
BLACK
6
CONTINUOUS
10
93.9048
20
-96.7966
11
93.9088
21
-96.7983
0
LINE
8
BLACK
6
CONTINUOUS
10
93.4114
20
-96.801
11
93.4148
21
-96.8038
0
LINE
8
BLACK
6
CONTINUOUS
10
93.4148
20
-96.8038
11
93.4193
21
-96.8043
0
LINE
8
BLACK
6
CONTINUOUS
10
93.4193
20
-96.8043
11
93.4764
21
-96.8329
0
LINE
8
BLACK
6
CONTINUOUS
10
93.4764
20
-96.8329
11
93.4944
21
-96.8463
0
LINE
8
BLACK
6
CONTINUOUS
10
93.4944
20
-96.8463
11
93.4959
21
-96.847
0
LINE
8
BLACK
6
CONTINUOUS
10
93.4959
20
-96.847
11
93.5245
21
-96.8755
0
LINE
8
BLACK
6
CONTINUOUS
10
93.5245
20
-96.8755
11
93.5373
21
-96.8939
0
LINE
8
BLACK
6
CONTINUOUS
10
93.5373
20
-96.8939
11
93.5385
21
-96.895
0
LINE
8
BLACK
6
CONTINUOUS
10
93.5385
20
-96.895
11
93.5671
21
-96.9522
0
LINE
8
BLACK
6
CONTINUOUS
10
93.5671
20
-96.9522
11
93.5745
21
-96.9771
0
LINE
8
BLACK
6
CONTINUOUS
10
93.5745
20
-96.9771
11
93.5735
21
-96.9815
0
LINE
8
BLACK
6
CONTINUOUS
10
93.5735
20
-96.9815
11
93.575
21
-96.9857
0
LINE
8
BLACK
6
CONTINUOUS
10
93.575
20
-96.9857
11
93.575
21
-97.0714
0
LINE
8
BLACK
6
CONTINUOUS
10
93.575
20
-97.0714
11
93.5705
21
-97.0971
0
LINE
8
BLACK
6
CONTINUOUS
10
93.5705
20
-97.0971
11
93.5676
21
-97.1005
0
LINE
8
BLACK
6
CONTINUOUS
10
93.5676
20
-97.1005
11
93.5671
21
-97.105
0
LINE
8
BLACK
6
CONTINUOUS
10
93.5671
20
-97.105
11
93.5385
21
-97.1621
0
LINE
8
BLACK
6
CONTINUOUS
10
93.5385
20
-97.1621
11
93.5252
21
-97.1801
0
LINE
8
BLACK
6
CONTINUOUS
10
93.5252
20
-97.1801
11
93.5245
21
-97.1816
0
LINE
8
BLACK
6
CONTINUOUS
10
93.5245
20
-97.1816
11
93.4959
21
-97.2102
0
LINE
8
BLACK
6
CONTINUOUS
10
93.4959
20
-97.2102
11
93.4775
21
-97.223
0
LINE
8
BLACK
6
CONTINUOUS
10
93.4775
20
-97.223
11
93.4764
21
-97.2242
0
LINE
8
BLACK
6
CONTINUOUS
10
93.4764
20
-97.2242
11
93.4335
21
-97.2457
0
LINE
8
BLACK
6
CONTINUOUS
10
93.4335
20
-97.2457
11
93.5614
21
-97.4284
0
LINE
8
BLACK
6
CONTINUOUS
10
93.5614
20
-97.4284
11
93.5724
21
-97.452
0
LINE
8
BLACK
6
CONTINUOUS
10
93.5724
20
-97.452
11
93.568
21
-97.5031
0
LINE
8
BLACK
6
CONTINUOUS
10
93.568
20
-97.5031
11
93.5317
21
-97.5394
0
LINE
8
BLACK
6
CONTINUOUS
10
93.5317
20
-97.5394
11
93.4806
21
-97.5439
0
LINE
8
BLACK
6
CONTINUOUS
10
93.4806
20
-97.5439
11
93.4386
21
-97.5144
0
LINE
8
BLACK
6
CONTINUOUS
10
93.4386
20
-97.5144
11
93.261
21
-97.2607
0
LINE
8
BLACK
6
CONTINUOUS
10
93.261
20
-97.2607
11
93.2321
21
-97.2607
0
LINE
8
BLACK
6
CONTINUOUS
10
93.2321
20
-97.2607
11
93.2321
21
-97.4714
0
LINE
8
BLACK
6
CONTINUOUS
10
93.2321
20
-97.4714
11
93.2276
21
-97.4971
0
LINE
8
BLACK
6
CONTINUOUS
10
93.2276
20
-97.4971
11
93.1946
21
-97.5364
0
LINE
8
BLACK
6
CONTINUOUS
10
93.1946
20
-97.5364
11
93.1441
21
-97.5453
0
LINE
8
BLACK
6
CONTINUOUS
10
93.1441
20
-97.5453
11
93.0997
21
-97.5196
0
LINE
8
BLACK
6
CONTINUOUS
10
93.0997
20
-97.5196
11
93.0821
21
-97.4714
0
LINE
8
BLACK
6
CONTINUOUS
10
93.0821
20
-97.4714
11
93.0821
21
-96.8714
0
LINE
8
BLACK
6
CONTINUOUS
10
93.0821
20
-96.8714
11
93.0839
21
-96.8617
0
LINE
8
BLACK
6
CONTINUOUS
10
93.0839
20
-96.8617
11
93.0833
21
-96.8584
0
LINE
8
BLACK
6
CONTINUOUS
10
93.0833
20
-96.8584
11
93.0849
21
-96.8555
0
LINE
8
BLACK
6
CONTINUOUS
10
93.0849
20
-96.8555
11
93.0867
21
-96.8458
0
LINE
8
BLACK
6
CONTINUOUS
10
93.0867
20
-96.8458
11
93.0992
21
-96.8308
0
LINE
8
BLACK
6
CONTINUOUS
10
93.0992
20
-96.8308
11
93.1089
21
-96.814
0
LINE
8
BLACK
6
CONTINUOUS
10
93.1089
20
-96.814
11
93.1153
21
-96.8117
0
LINE
8
BLACK
6
CONTINUOUS
10
93.1153
20
-96.8117
11
93.1196
21
-96.8065
0
LINE
8
BLACK
6
CONTINUOUS
10
93.1196
20
-96.8065
11
93.1388
21
-96.8031
0
LINE
8
BLACK
6
CONTINUOUS
10
93.1388
20
-96.8031
11
93.1571
21
-96.7964
0
LINE
8
BLACK
6
CONTINUOUS
10
93.1571
20
-96.7964
11
93.3857
21
-96.7964
0
LINE
8
BLACK
6
CONTINUOUS
10
93.3857
20
-96.7964
11
93.4114
21
-96.801
0
LINE
8
BLACK
6
CONTINUOUS
10
93.2321
20
-96.9464
11
93.2321
21
-97.1107
0
LINE
8
BLACK
6
CONTINUOUS
10
93.2321
20
-97.1107
11
93.368
21
-97.1107
0
LINE
8
BLACK
6
CONTINUOUS
10
93.368
20
-97.1107
11
93.3984
21
-97.0955
0
LINE
8
BLACK
6
CONTINUOUS
10
93.3984
20
-97.0955
11
93.4098
21
-97.0841
0
LINE
8
BLACK
6
CONTINUOUS
10
93.4098
20
-97.0841
11
93.425
21
-97.0537
0
LINE
8
BLACK
6
CONTINUOUS
10
93.425
20
-97.0537
11
93.425
21
-97.0034
0
LINE
8
BLACK
6
CONTINUOUS
10
93.425
20
-97.0034
11
93.4098
21
-96.973
0
LINE
8
BLACK
6
CONTINUOUS
10
93.4098
20
-96.973
11
93.3984
21
-96.9616
0
LINE
8
BLACK
6
CONTINUOUS
10
93.3984
20
-96.9616
11
93.368
21
-96.9464
0
LINE
8
BLACK
6
CONTINUOUS
10
93.368
20
-96.9464
11
93.2321
21
-96.9464
0
LINE
8
BLACK
6
CONTINUOUS
10
97.1071
20
-96.7769
11
97.1412
21
-96.8153
0
LINE
8
BLACK
6
CONTINUOUS
10
97.1412
20
-96.8153
11
97.1426
21
-96.8666
0
LINE
8
BLACK
6
CONTINUOUS
10
97.1426
20
-96.8666
11
97.0326
21
-97.1964
0
LINE
8
BLACK
6
CONTINUOUS
10
97.0326
20
-97.1964
11
97.1393
21
-97.1964
0
LINE
8
BLACK
6
CONTINUOUS
10
97.1393
20
-97.1964
11
97.1393
21
-97.0714
0
LINE
8
BLACK
6
CONTINUOUS
10
97.1393
20
-97.0714
11
97.1438
21
-97.0458
0
LINE
8
BLACK
6
CONTINUOUS
10
97.1438
20
-97.0458
11
97.1768
21
-97.0065
0
LINE
8
BLACK
6
CONTINUOUS
10
97.1768
20
-97.0065
11
97.2273
21
-96.9976
0
LINE
8
BLACK
6
CONTINUOUS
10
97.2273
20
-96.9976
11
97.2717
21
-97.0232
0
LINE
8
BLACK
6
CONTINUOUS
10
97.2717
20
-97.0232
11
97.2893
21
-97.0714
0
LINE
8
BLACK
6
CONTINUOUS
10
97.2893
20
-97.0714
11
97.2893
21
-97.1964
0
LINE
8
BLACK
6
CONTINUOUS
10
97.2893
20
-97.1964
11
97.3
21
-97.1964
0
LINE
8
BLACK
6
CONTINUOUS
10
97.3
20
-97.1964
11
97.3257
21
-97.201
0
LINE
8
BLACK
6
CONTINUOUS
10
97.3257
20
-97.201
11
97.365
21
-97.2339
0
LINE
8
BLACK
6
CONTINUOUS
10
97.365
20
-97.2339
11
97.3739
21
-97.2845
0
LINE
8
BLACK
6
CONTINUOUS
10
97.3739
20
-97.2845
11
97.3482
21
-97.3289
0
LINE
8
BLACK
6
CONTINUOUS
10
97.3482
20
-97.3289
11
97.3
21
-97.3464
0
LINE
8
BLACK
6
CONTINUOUS
10
97.3
20
-97.3464
11
97.2893
21
-97.3464
0
LINE
8
BLACK
6
CONTINUOUS
10
97.2893
20
-97.3464
11
97.2893
21
-97.4714
0
LINE
8
BLACK
6
CONTINUOUS
10
97.2893
20
-97.4714
11
97.2848
21
-97.4971
0
LINE
8
BLACK
6
CONTINUOUS
10
97.2848
20
-97.4971
11
97.2518
21
-97.5364
0
LINE
8
BLACK
6
CONTINUOUS
10
97.2518
20
-97.5364
11
97.2013
21
-97.5453
0
LINE
8
BLACK
6
CONTINUOUS
10
97.2013
20
-97.5453
11
97.1568
21
-97.5196
0
LINE
8
BLACK
6
CONTINUOUS
10
97.1568
20
-97.5196
11
97.1393
21
-97.4714
0
LINE
8
BLACK
6
CONTINUOUS
10
97.1393
20
-97.4714
11
97.1393
21
-97.3464
0
LINE
8
BLACK
6
CONTINUOUS
10
97.1393
20
-97.3464
11
96.9286
21
-97.3464
0
LINE
8
BLACK
6
CONTINUOUS
10
96.9286
20
-97.3464
11
96.9029
21
-97.3419
0
LINE
8
BLACK
6
CONTINUOUS
10
96.9029
20
-97.3419
11
96.8985
21
-97.3382
0
LINE
8
BLACK
6
CONTINUOUS
10
96.8985
20
-97.3382
11
96.8929
21
-97.3374
0
LINE
8
BLACK
6
CONTINUOUS
10
96.8929
20
-97.3374
11
96.8793
21
-97.3221
0
LINE
8
BLACK
6
CONTINUOUS
10
96.8793
20
-97.3221
11
96.8636
21
-97.3089
0
LINE
8
BLACK
6
CONTINUOUS
10
96.8636
20
-97.3089
11
96.8626
21
-97.3033
0
LINE
8
BLACK
6
CONTINUOUS
10
96.8626
20
-97.3033
11
96.8588
21
-97.299
0
LINE
8
BLACK
6
CONTINUOUS
10
96.8588
20
-97.299
11
96.8583
21
-97.2786
0
LINE
8
BLACK
6
CONTINUOUS
10
96.8583
20
-97.2786
11
96.8547
21
-97.2584
0
LINE
8
BLACK
6
CONTINUOUS
10
96.8547
20
-97.2584
11
96.8576
21
-97.2534
0
LINE
8
BLACK
6
CONTINUOUS
10
96.8576
20
-97.2534
11
96.8574
21
-97.2477
0
LINE
8
BLACK
6
CONTINUOUS
10
96.8574
20
-97.2477
11
97.0003
21
-96.8191
0
LINE
8
BLACK
6
CONTINUOUS
10
97.0003
20
-96.8191
11
97.0127
21
-96.7962
0
LINE
8
BLACK
6
CONTINUOUS
10
97.0127
20
-96.7962
11
97.0564
21
-96.7694
0
LINE
8
BLACK
6
CONTINUOUS
10
97.0564
20
-96.7694
11
97.1071
21
-96.7769
0
LINE
8
BLACK
6
CONTINUOUS
10
98.2114
20
-96.801
11
98.2148
21
-96.8038
0
LINE
8
BLACK
6
CONTINUOUS
10
98.2148
20
-96.8038
11
98.2193
21
-96.8043
0
LINE
8
BLACK
6
CONTINUOUS
10
98.2193
20
-96.8043
11
98.2764
21
-96.8329
0
LINE
8
BLACK
6
CONTINUOUS
10
98.2764
20
-96.8329
11
98.2944
21
-96.8463
0
LINE
8
BLACK
6
CONTINUOUS
10
98.2944
20
-96.8463
11
98.2959
21
-96.847
0
LINE
8
BLACK
6
CONTINUOUS
10
98.2959
20
-96.847
11
98.3245
21
-96.8755
0
LINE
8
BLACK
6
CONTINUOUS
10
98.3245
20
-96.8755
11
98.3373
21
-96.8939
0
LINE
8
BLACK
6
CONTINUOUS
10
98.3373
20
-96.8939
11
98.3385
21
-96.895
0
LINE
8
BLACK
6
CONTINUOUS
10
98.3385
20
-96.895
11
98.3671
21
-96.9522
0
LINE
8
BLACK
6
CONTINUOUS
10
98.3671
20
-96.9522
11
98.3745
21
-96.9771
0
LINE
8
BLACK
6
CONTINUOUS
10
98.3745
20
-96.9771
11
98.3735
21
-96.9815
0
LINE
8
BLACK
6
CONTINUOUS
10
98.3735
20
-96.9815
11
98.375
21
-96.9857
0
LINE
8
BLACK
6
CONTINUOUS
10
98.375
20
-96.9857
11
98.375
21
-97.0714
0
LINE
8
BLACK
6
CONTINUOUS
10
98.375
20
-97.0714
11
98.3705
21
-97.0971
0
LINE
8
BLACK
6
CONTINUOUS
10
98.3705
20
-97.0971
11
98.3676
21
-97.1005
0
LINE
8
BLACK
6
CONTINUOUS
10
98.3676
20
-97.1005
11
98.3671
21
-97.105
0
LINE
8
BLACK
6
CONTINUOUS
10
98.3671
20
-97.105
11
98.3385
21
-97.1621
0
LINE
8
BLACK
6
CONTINUOUS
10
98.3385
20
-97.1621
11
98.3252
21
-97.1801
0
LINE
8
BLACK
6
CONTINUOUS
10
98.3252
20
-97.1801
11
98.3245
21
-97.1816
0
LINE
8
BLACK
6
CONTINUOUS
10
98.3245
20
-97.1816
11
98.2959
21
-97.2102
0
LINE
8
BLACK
6
CONTINUOUS
10
98.2959
20
-97.2102
11
98.2775
21
-97.223
0
LINE
8
BLACK
6
CONTINUOUS
10
98.2775
20
-97.223
11
98.2764
21
-97.2242
0
LINE
8
BLACK
6
CONTINUOUS
10
98.2764
20
-97.2242
11
98.2335
21
-97.2457
0
LINE
8
BLACK
6
CONTINUOUS
10
98.2335
20
-97.2457
11
98.3614
21
-97.4284
0
LINE
8
BLACK
6
CONTINUOUS
10
98.3614
20
-97.4284
11
98.3724
21
-97.452
0
LINE
8
BLACK
6
CONTINUOUS
10
98.3724
20
-97.452
11
98.368
21
-97.5031
0
LINE
8
BLACK
6
CONTINUOUS
10
98.368
20
-97.5031
11
98.3317
21
-97.5394
0
LINE
8
BLACK
6
CONTINUOUS
10
98.3317
20
-97.5394
11
98.2806
21
-97.5439
0
LINE
8
BLACK
6
CONTINUOUS
10
98.2806
20
-97.5439
11
98.2386
21
-97.5144
0
LINE
8
BLACK
6
CONTINUOUS
10
98.2386
20
-97.5144
11
98.061
21
-97.2607
0
LINE
8
BLACK
6
CONTINUOUS
10
98.061
20
-97.2607
11
98.0321
21
-97.2607
0
LINE
8
BLACK
6
CONTINUOUS
10
98.0321
20
-97.2607
11
98.0321
21
-97.4714
0
LINE
8
BLACK
6
CONTINUOUS
10
98.0321
20
-97.4714
11
98.0276
21
-97.4971
0
LINE
8
BLACK
6
CONTINUOUS
10
98.0276
20
-97.4971
11
97.9946
21
-97.5364
0
LINE
8
BLACK
6
CONTINUOUS
10
97.9946
20
-97.5364
11
97.9441
21
-97.5453
0
LINE
8
BLACK
6
CONTINUOUS
10
97.9441
20
-97.5453
11
97.8997
21
-97.5196
0
LINE
8
BLACK
6
CONTINUOUS
10
97.8997
20
-97.5196
11
97.8821
21
-97.4714
0
LINE
8
BLACK
6
CONTINUOUS
10
97.8821
20
-97.4714
11
97.8821
21
-96.8714
0
LINE
8
BLACK
6
CONTINUOUS
10
97.8821
20
-96.8714
11
97.8839
21
-96.8617
0
LINE
8
BLACK
6
CONTINUOUS
10
97.8839
20
-96.8617
11
97.8833
21
-96.8584
0
LINE
8
BLACK
6
CONTINUOUS
10
97.8833
20
-96.8584
11
97.8849
21
-96.8555
0
LINE
8
BLACK
6
CONTINUOUS
10
97.8849
20
-96.8555
11
97.8867
21
-96.8458
0
LINE
8
BLACK
6
CONTINUOUS
10
97.8867
20
-96.8458
11
97.8992
21
-96.8308
0
LINE
8
BLACK
6
CONTINUOUS
10
97.8992
20
-96.8308
11
97.9089
21
-96.814
0
LINE
8
BLACK
6
CONTINUOUS
10
97.9089
20
-96.814
11
97.9153
21
-96.8117
0
LINE
8
BLACK
6
CONTINUOUS
10
97.9153
20
-96.8117
11
97.9196
21
-96.8065
0
LINE
8
BLACK
6
CONTINUOUS
10
97.9196
20
-96.8065
11
97.9388
21
-96.8031
0
LINE
8
BLACK
6
CONTINUOUS
10
97.9388
20
-96.8031
11
97.9571
21
-96.7964
0
LINE
8
BLACK
6
CONTINUOUS
10
97.9571
20
-96.7964
11
98.1857
21
-96.7964
0
LINE
8
BLACK
6
CONTINUOUS
10
98.1857
20
-96.7964
11
98.2114
21
-96.801
0
LINE
8
BLACK
6
CONTINUOUS
10
98.0321
20
-96.9464
11
98.0321
21
-97.1107
0
LINE
8
BLACK
6
CONTINUOUS
10
98.0321
20
-97.1107
11
98.168
21
-97.1107
0
LINE
8
BLACK
6
CONTINUOUS
10
98.168
20
-97.1107
11
98.1984
21
-97.0955
0
LINE
8
BLACK
6
CONTINUOUS
10
98.1984
20
-97.0955
11
98.2098
21
-97.0841
0
LINE
8
BLACK
6
CONTINUOUS
10
98.2098
20
-97.0841
11
98.225
21
-97.0537
0
LINE
8
BLACK
6
CONTINUOUS
10
98.225
20
-97.0537
11
98.225
21
-97.0034
0
LINE
8
BLACK
6
CONTINUOUS
10
98.225
20
-97.0034
11
98.2098
21
-96.973
0
LINE
8
BLACK
6
CONTINUOUS
10
98.2098
20
-96.973
11
98.1984
21
-96.9616
0
LINE
8
BLACK
6
CONTINUOUS
10
98.1984
20
-96.9616
11
98.168
21
-96.9464
0
LINE
8
BLACK
6
CONTINUOUS
10
98.168
20
-96.9464
11
98.0321
21
-96.9464
0
LINE
8
BLACK
6
CONTINUOUS
10
94.8643
20
-96.7474
11
94.8467
21
-96.705
0
LINE
8
BLACK
6
CONTINUOUS
10
94.8467
20
-96.705
11
94.8643
21
-96.6626
0
LINE
8
BLACK
6
CONTINUOUS
10
94.8643
20
-96.6626
11
94.9067
21
-96.645
0
LINE
8
BLACK
6
CONTINUOUS
10
94.9067
20
-96.645
11
98.8067
21
-96.645
0
LINE
8
BLACK
6
CONTINUOUS
10
98.8067
20
-96.645
11
98.8491
21
-96.6626
0
LINE
8
BLACK
6
CONTINUOUS
10
98.8491
20
-96.6626
11
98.8667
21
-96.705
0
LINE
8
BLACK
6
CONTINUOUS
10
98.8667
20
-96.705
11
98.8491
21
-96.7474
0
LINE
8
BLACK
6
CONTINUOUS
10
98.8491
20
-96.7474
11
98.8067
21
-96.765
0
LINE
8
BLACK
6
CONTINUOUS
10
98.8067
20
-96.765
11
94.9067
21
-96.765
0
LINE
8
BLACK
6
CONTINUOUS
10
94.9067
20
-96.765
11
94.8643
21
-96.7474
0
LINE
8
BLACK
6
CONTINUOUS
10
92.6432
20
-93.7682
11
92.6607
21
-93.8164
0
LINE
8
BLACK
6
CONTINUOUS
10
92.6607
20
-93.8164
11
92.6607
21
-94.3021
0
LINE
8
BLACK
6
CONTINUOUS
10
92.6607
20
-94.3021
11
92.6562
21
-94.3278
0
LINE
8
BLACK
6
CONTINUOUS
10
92.6562
20
-94.3278
11
92.6533
21
-94.3312
0
LINE
8
BLACK
6
CONTINUOUS
10
92.6533
20
-94.3312
11
92.6528
21
-94.3357
0
LINE
8
BLACK
6
CONTINUOUS
10
92.6528
20
-94.3357
11
92.6242
21
-94.3928
0
LINE
8
BLACK
6
CONTINUOUS
10
92.6242
20
-94.3928
11
92.6109
21
-94.4108
0
LINE
8
BLACK
6
CONTINUOUS
10
92.6109
20
-94.4108
11
92.6102
21
-94.4123
0
LINE
8
BLACK
6
CONTINUOUS
10
92.6102
20
-94.4123
11
92.5816
21
-94.4409
0
LINE
8
BLACK
6
CONTINUOUS
10
92.5816
20
-94.4409
11
92.5632
21
-94.4538
0
LINE
8
BLACK
6
CONTINUOUS
10
92.5632
20
-94.4538
11
92.5621
21
-94.4549
0
LINE
8
BLACK
6
CONTINUOUS
10
92.5621
20
-94.4549
11
92.505
21
-94.4835
0
LINE
8
BLACK
6
CONTINUOUS
10
92.505
20
-94.4835
11
92.48
21
-94.4909
0
LINE
8
BLACK
6
CONTINUOUS
10
92.48
20
-94.4909
11
92.4756
21
-94.4899
0
LINE
8
BLACK
6
CONTINUOUS
10
92.4756
20
-94.4899
11
92.4714
21
-94.4914
0
LINE
8
BLACK
6
CONTINUOUS
10
92.4714
20
-94.4914
11
92.3571
21
-94.4914
0
LINE
8
BLACK
6
CONTINUOUS
10
92.3571
20
-94.4914
11
92.3315
21
-94.4869
0
LINE
8
BLACK
6
CONTINUOUS
10
92.3315
20
-94.4869
11
92.3281
21
-94.484
0
LINE
8
BLACK
6
CONTINUOUS
10
92.3281
20
-94.484
11
92.3236
21
-94.4835
0
LINE
8
BLACK
6
CONTINUOUS
10
92.3236
20
-94.4835
11
92.2665
21
-94.4549
0
LINE
8
BLACK
6
CONTINUOUS
10
92.2665
20
-94.4549
11
92.2484
21
-94.4416
0
LINE
8
BLACK
6
CONTINUOUS
10
92.2484
20
-94.4416
11
92.247
21
-94.4409
0
LINE
8
BLACK
6
CONTINUOUS
10
92.247
20
-94.4409
11
92.2184
21
-94.4123
0
LINE
8
BLACK
6
CONTINUOUS
10
92.2184
20
-94.4123
11
92.2055
21
-94.394
0
LINE
8
BLACK
6
CONTINUOUS
10
92.2055
20
-94.394
11
92.2043
21
-94.3928
0
LINE
8
BLACK
6
CONTINUOUS
10
92.2043
20
-94.3928
11
92.1758
21
-94.3357
0
LINE
8
BLACK
6
CONTINUOUS
10
92.1758
20
-94.3357
11
92.1683
21
-94.3107
0
LINE
8
BLACK
6
CONTINUOUS
10
92.1683
20
-94.3107
11
92.1694
21
-94.3064
0
LINE
8
BLACK
6
CONTINUOUS
10
92.1694
20
-94.3064
11
92.1679
21
-94.3021
0
LINE
8
BLACK
6
CONTINUOUS
10
92.1679
20
-94.3021
11
92.1679
21
-93.8164
0
LINE
8
BLACK
6
CONTINUOUS
10
92.1679
20
-93.8164
11
92.1724
21
-93.7908
0
LINE
8
BLACK
6
CONTINUOUS
10
92.1724
20
-93.7908
11
92.2054
21
-93.7515
0
LINE
8
BLACK
6
CONTINUOUS
10
92.2054
20
-93.7515
11
92.2559
21
-93.7426
0
LINE
8
BLACK
6
CONTINUOUS
10
92.2559
20
-93.7426
11
92.3003
21
-93.7682
0
LINE
8
BLACK
6
CONTINUOUS
10
92.3003
20
-93.7682
11
92.3179
21
-93.8164
0
LINE
8
BLACK
6
CONTINUOUS
10
92.3179
20
-93.8164
11
92.3179
21
-94.2844
0
LINE
8
BLACK
6
CONTINUOUS
10
92.3179
20
-94.2844
11
92.3331
21
-94.3149
0
LINE
8
BLACK
6
CONTINUOUS
10
92.3331
20
-94.3149
11
92.3444
21
-94.3262
0
LINE
8
BLACK
6
CONTINUOUS
10
92.3444
20
-94.3262
11
92.3748
21
-94.3414
0
LINE
8
BLACK
6
CONTINUOUS
10
92.3748
20
-94.3414
11
92.4537
21
-94.3414
0
LINE
8
BLACK
6
CONTINUOUS
10
92.4537
20
-94.3414
11
92.4841
21
-94.3262
0
LINE
8
BLACK
6
CONTINUOUS
10
92.4841
20
-94.3262
11
92.4955
21
-94.3149
0
LINE
8
BLACK
6
CONTINUOUS
10
92.4955
20
-94.3149
11
92.5107
21
-94.2844
0
LINE
8
BLACK
6
CONTINUOUS
10
92.5107
20
-94.2844
11
92.5107
21
-93.8164
0
LINE
8
BLACK
6
CONTINUOUS
10
92.5107
20
-93.8164
11
92.5152
21
-93.7908
0
LINE
8
BLACK
6
CONTINUOUS
10
92.5152
20
-93.7908
11
92.5482
21
-93.7515
0
LINE
8
BLACK
6
CONTINUOUS
10
92.5482
20
-93.7515
11
92.5987
21
-93.7426
0
LINE
8
BLACK
6
CONTINUOUS
10
92.5987
20
-93.7426
11
92.6432
21
-93.7682
0
LINE
8
BLACK
6
CONTINUOUS
10
93.0231
20
-93.7433
11
93.0273
21
-93.7426
0
LINE
8
BLACK
6
CONTINUOUS
10
93.0273
20
-93.7426
11
93.0462
21
-93.7534
0
LINE
8
BLACK
6
CONTINUOUS
10
93.0462
20
-93.7534
11
93.0661
21
-93.7622
0
LINE
8
BLACK
6
CONTINUOUS
10
93.0661
20
-93.7622
11
93.068
21
-93.7661
0
LINE
8
BLACK
6
CONTINUOUS
10
93.068
20
-93.7661
11
93.0717
21
-93.7682
0
LINE
8
BLACK
6
CONTINUOUS
10
93.0717
20
-93.7682
11
93.0792
21
-93.7887
0
LINE
8
BLACK
6
CONTINUOUS
10
93.0792
20
-93.7887
11
93.0888
21
-93.8082
0
LINE
8
BLACK
6
CONTINUOUS
10
93.0888
20
-93.8082
11
93.0878
21
-93.8124
0
LINE
8
BLACK
6
CONTINUOUS
10
93.0878
20
-93.8124
11
93.0893
21
-93.8164
0
LINE
8
BLACK
6
CONTINUOUS
10
93.0893
20
-93.8164
11
93.0893
21
-94.3414
0
LINE
8
BLACK
6
CONTINUOUS
10
93.0893
20
-94.3414
11
93.1857
21
-94.3414
0
LINE
8
BLACK
6
CONTINUOUS
10
93.1857
20
-94.3414
11
93.2114
21
-94.346
0
LINE
8
BLACK
6
CONTINUOUS
10
93.2114
20
-94.346
11
93.2507
21
-94.3789
0
LINE
8
BLACK
6
CONTINUOUS
10
93.2507
20
-94.3789
11
93.2596
21
-94.4295
0
LINE
8
BLACK
6
CONTINUOUS
10
93.2596
20
-94.4295
11
93.2339
21
-94.4739
0
LINE
8
BLACK
6
CONTINUOUS
10
93.2339
20
-94.4739
11
93.1857
21
-94.4914
0
LINE
8
BLACK
6
CONTINUOUS
10
93.1857
20
-94.4914
11
92.8429
21
-94.4914
0
LINE
8
BLACK
6
CONTINUOUS
10
92.8429
20
-94.4914
11
92.8172
21
-94.4869
0
LINE
8
BLACK
6
CONTINUOUS
10
92.8172
20
-94.4869
11
92.7779
21
-94.4539
0
LINE
8
BLACK
6
CONTINUOUS
10
92.7779
20
-94.4539
11
92.769
21
-94.4034
0
LINE
8
BLACK
6
CONTINUOUS
10
92.769
20
-94.4034
11
92.7946
21
-94.359
0
LINE
8
BLACK
6
CONTINUOUS
10
92.7946
20
-94.359
11
92.8429
21
-94.3414
0
LINE
8
BLACK
6
CONTINUOUS
10
92.8429
20
-94.3414
11
92.9393
21
-94.3414
0
LINE
8
BLACK
6
CONTINUOUS
10
92.9393
20
-94.3414
11
92.9393
21
-94.0219
0
LINE
8
BLACK
6
CONTINUOUS
10
92.9393
20
-94.0219
11
92.9347
21
-94.0252
0
LINE
8
BLACK
6
CONTINUOUS
10
92.9347
20
-94.0252
11
92.9335
21
-94.0264
0
LINE
8
BLACK
6
CONTINUOUS
10
92.9335
20
-94.0264
11
92.8764
21
-94.0549
0
LINE
8
BLACK
6
CONTINUOUS
10
92.8764
20
-94.0549
11
92.8514
21
-94.0624
0
LINE
8
BLACK
6
CONTINUOUS
10
92.8514
20
-94.0624
11
92.8015
21
-94.0504
0
LINE
8
BLACK
6
CONTINUOUS
10
92.8015
20
-94.0504
11
92.771
21
-94.0092
0
LINE
8
BLACK
6
CONTINUOUS
10
92.771
20
-94.0092
11
92.774
21
-93.958
0
LINE
8
BLACK
6
CONTINUOUS
10
92.774
20
-93.958
11
92.8093
21
-93.9208
0
LINE
8
BLACK
6
CONTINUOUS
10
92.8093
20
-93.9208
11
92.8556
21
-93.8976
0
LINE
8
BLACK
6
CONTINUOUS
10
92.8556
20
-93.8976
11
92.8989
21
-93.8544
0
LINE
8
BLACK
6
CONTINUOUS
10
92.8989
20
-93.8544
11
92.9519
21
-93.7748
0
LINE
8
BLACK
6
CONTINUOUS
10
92.9519
20
-93.7748
11
92.9699
21
-93.756
0
LINE
8
BLACK
6
CONTINUOUS
10
92.9699
20
-93.756
11
92.974
21
-93.7548
0
LINE
8
BLACK
6
CONTINUOUS
10
92.974
20
-93.7548
11
92.9768
21
-93.7515
0
LINE
8
BLACK
6
CONTINUOUS
10
92.9768
20
-93.7515
11
92.9982
21
-93.7477
0
LINE
8
BLACK
6
CONTINUOUS
10
92.9982
20
-93.7477
11
93.0191
21
-93.7416
0
LINE
8
BLACK
6
CONTINUOUS
10
93.0191
20
-93.7416
11
93.0231
21
-93.7433
0
LINE
8
BLACK
6
CONTINUOUS
10
93.3643
20
-91.6274
11
93.3467
21
-91.585
0
LINE
8
BLACK
6
CONTINUOUS
10
93.3467
20
-91.585
11
93.3643
21
-91.5426
0
LINE
8
BLACK
6
CONTINUOUS
10
93.3643
20
-91.5426
11
93.4067
21
-91.525
0
LINE
8
BLACK
6
CONTINUOUS
10
93.4067
20
-91.525
11
98.8067
21
-91.525
0
LINE
8
BLACK
6
CONTINUOUS
10
98.8067
20
-91.525
11
98.8491
21
-91.5426
0
LINE
8
BLACK
6
CONTINUOUS
10
98.8491
20
-91.5426
11
98.8667
21
-91.585
0
LINE
8
BLACK
6
CONTINUOUS
10
98.8667
20
-91.585
11
98.8491
21
-91.6274
0
LINE
8
BLACK
6
CONTINUOUS
10
98.8491
20
-91.6274
11
98.8067
21
-91.645
0
LINE
8
BLACK
6
CONTINUOUS
10
98.8067
20
-91.645
11
93.4067
21
-91.645
0
LINE
8
BLACK
6
CONTINUOUS
10
93.4067
20
-91.645
11
93.3643
21
-91.6274
0
LINE
8
BLACK
6
CONTINUOUS
10
106.392
20
-89.4026
11
106.41
21
-89.445
0
LINE
8
BLACK
6
CONTINUOUS
10
106.41
20
-89.445
11
106.392
21
-89.4874
0
LINE
8
BLACK
6
CONTINUOUS
10
106.392
20
-89.4874
11
106.35
21
-89.505
0
LINE
8
BLACK
6
CONTINUOUS
10
106.35
20
-89.505
11
102.51
21
-89.505
0
LINE
8
BLACK
6
CONTINUOUS
10
102.51
20
-89.505
11
102.51
21
-91.385
0
LINE
8
BLACK
6
CONTINUOUS
10
102.51
20
-91.385
11
106.35
21
-91.385
0
LINE
8
BLACK
6
CONTINUOUS
10
106.35
20
-91.385
11
106.392
21
-91.4026
0
LINE
8
BLACK
6
CONTINUOUS
10
106.392
20
-91.4026
11
106.41
21
-91.445
0
LINE
8
BLACK
6
CONTINUOUS
10
106.41
20
-91.445
11
106.392
21
-91.4874
0
LINE
8
BLACK
6
CONTINUOUS
10
106.392
20
-91.4874
11
106.35
21
-91.505
0
LINE
8
BLACK
6
CONTINUOUS
10
106.35
20
-91.505
11
102.45
21
-91.505
0
LINE
8
BLACK
6
CONTINUOUS
10
102.45
20
-91.505
11
102.408
21
-91.4874
0
LINE
8
BLACK
6
CONTINUOUS
10
102.408
20
-91.4874
11
102.39
21
-91.445
0
LINE
8
BLACK
6
CONTINUOUS
10
102.39
20
-91.445
11
102.39
21
-89.445
0
LINE
8
BLACK
6
CONTINUOUS
10
102.39
20
-89.445
11
102.408
21
-89.4026
0
LINE
8
BLACK
6
CONTINUOUS
10
102.408
20
-89.4026
11
102.45
21
-89.385
0
LINE
8
BLACK
6
CONTINUOUS
10
102.45
20
-89.385
11
106.35
21
-89.385
0
LINE
8
BLACK
6
CONTINUOUS
10
106.35
20
-89.385
11
106.392
21
-89.4026
0
LINE
8
BLACK
6
CONTINUOUS
10
97.0397
20
-91.1126
11
97.0573
21
-91.155
0
LINE
8
BLACK
6
CONTINUOUS
10
97.0573
20
-91.155
11
97.0397
21
-91.1974
0
LINE
8
BLACK
6
CONTINUOUS
10
97.0397
20
-91.1974
11
96.9973
21
-91.215
0
LINE
8
BLACK
6
CONTINUOUS
10
96.9973
20
-91.215
11
96.7161
21
-91.215
0
LINE
8
BLACK
6
CONTINUOUS
10
96.7161
20
-91.215
11
96.6737
21
-91.1974
0
LINE
8
BLACK
6
CONTINUOUS
10
96.6737
20
-91.1974
11
96.6561
21
-91.155
0
LINE
8
BLACK
6
CONTINUOUS
10
96.6561
20
-91.155
11
96.6737
21
-91.1126
0
LINE
8
BLACK
6
CONTINUOUS
10
96.6737
20
-91.1126
11
96.7161
21
-91.095
0
LINE
8
BLACK
6
CONTINUOUS
10
96.7161
20
-91.095
11
96.9973
21
-91.095
0
LINE
8
BLACK
6
CONTINUOUS
10
96.9973
20
-91.095
11
97.0397
21
-91.1126
0
LINE
8
BLACK
6
CONTINUOUS
10
94.4228
20
-90.2453
11
94.4244
21
-90.2453
0
LINE
8
BLACK
6
CONTINUOUS
10
94.4244
20
-90.2453
11
94.5101
21
-90.2738
0
LINE
8
BLACK
6
CONTINUOUS
10
94.5101
20
-90.2738
11
94.5331
21
-90.2863
0
LINE
8
BLACK
6
CONTINUOUS
10
94.5331
20
-90.2863
11
94.5354
21
-90.2901
0
LINE
8
BLACK
6
CONTINUOUS
10
94.5354
20
-90.2901
11
94.5395
21
-90.292
0
LINE
8
BLACK
6
CONTINUOUS
10
94.5395
20
-90.292
11
94.568
21
-90.3205
0
LINE
8
BLACK
6
CONTINUOUS
10
94.568
20
-90.3205
11
94.583
21
-90.3419
0
LINE
8
BLACK
6
CONTINUOUS
10
94.583
20
-90.3419
11
94.5874
21
-90.393
0
LINE
8
BLACK
6
CONTINUOUS
10
94.5874
20
-90.393
11
94.558
21
-90.435
0
LINE
8
BLACK
6
CONTINUOUS
10
94.558
20
-90.435
11
94.5085
21
-90.4483
0
LINE
8
BLACK
6
CONTINUOUS
10
94.5085
20
-90.4483
11
94.462
21
-90.4266
0
LINE
8
BLACK
6
CONTINUOUS
10
94.462
20
-90.4266
11
94.4459
21
-90.4106
0
LINE
8
BLACK
6
CONTINUOUS
10
94.4459
20
-90.4106
11
94.3885
21
-90.3914
0
LINE
8
BLACK
6
CONTINUOUS
10
94.3885
20
-90.3914
11
94.3557
21
-90.3914
0
LINE
8
BLACK
6
CONTINUOUS
10
94.3557
20
-90.3914
11
94.2984
21
-90.4106
0
LINE
8
BLACK
6
CONTINUOUS
10
94.2984
20
-90.4106
11
94.2624
21
-90.4466
0
LINE
8
BLACK
6
CONTINUOUS
10
94.2624
20
-90.4466
11
94.2429
21
-90.4855
0
LINE
8
BLACK
6
CONTINUOUS
10
94.2429
20
-90.4855
11
94.2186
21
-90.5828
0
LINE
8
BLACK
6
CONTINUOUS
10
94.2186
20
-90.5828
11
94.2186
21
-90.6501
0
LINE
8
BLACK
6
CONTINUOUS
10
94.2186
20
-90.6501
11
94.2429
21
-90.7474
0
LINE
8
BLACK
6
CONTINUOUS
10
94.2429
20
-90.7474
11
94.2624
21
-90.7863
0
LINE
8
BLACK
6
CONTINUOUS
10
94.2624
20
-90.7863
11
94.2984
21
-90.8223
0
LINE
8
BLACK
6
CONTINUOUS
10
94.2984
20
-90.8223
11
94.3557
21
-90.8414
0
LINE
8
BLACK
6
CONTINUOUS
10
94.3557
20
-90.8414
11
94.3885
21
-90.8414
0
LINE
8
BLACK
6
CONTINUOUS
10
94.3885
20
-90.8414
11
94.4459
21
-90.8223
0
LINE
8
BLACK
6
CONTINUOUS
10
94.4459
20
-90.8223
11
94.462
21
-90.8063
0
LINE
8
BLACK
6
CONTINUOUS
10
94.462
20
-90.8063
11
94.4833
21
-90.7913
0
LINE
8
BLACK
6
CONTINUOUS
10
94.4833
20
-90.7913
11
94.5344
21
-90.7868
0
LINE
8
BLACK
6
CONTINUOUS
10
94.5344
20
-90.7868
11
94.5764
21
-90.8163
0
LINE
8
BLACK
6
CONTINUOUS
10
94.5764
20
-90.8163
11
94.5897
21
-90.8658
0
LINE
8
BLACK
6
CONTINUOUS
10
94.5897
20
-90.8658
11
94.568
21
-90.9123
0
LINE
8
BLACK
6
CONTINUOUS
10
94.568
20
-90.9123
11
94.5395
21
-90.9409
0
LINE
8
BLACK
6
CONTINUOUS
10
94.5395
20
-90.9409
11
94.5181
21
-90.9558
0
LINE
8
BLACK
6
CONTINUOUS
10
94.5181
20
-90.9558
11
94.5137
21
-90.9562
0
LINE
8
BLACK
6
CONTINUOUS
10
94.5137
20
-90.9562
11
94.5101
21
-90.959
0
LINE
8
BLACK
6
CONTINUOUS
10
94.5101
20
-90.959
11
94.4244
21
-90.9876
0
LINE
8
BLACK
6
CONTINUOUS
10
94.4244
20
-90.9876
11
94.4023
21
-90.9909
0
LINE
8
BLACK
6
CONTINUOUS
10
94.4023
20
-90.9909
11
94.4007
21
-90.9914
0
LINE
8
BLACK
6
CONTINUOUS
10
94.4007
20
-90.9914
11
94.3436
21
-90.9914
0
LINE
8
BLACK
6
CONTINUOUS
10
94.3436
20
-90.9914
11
94.3215
21
-90.9875
0
LINE
8
BLACK
6
CONTINUOUS
10
94.3215
20
-90.9875
11
94.3199
21
-90.9876
0
LINE
8
BLACK
6
CONTINUOUS
10
94.3199
20
-90.9876
11
94.2341
21
-90.959
0
LINE
8
BLACK
6
CONTINUOUS
10
94.2341
20
-90.959
11
94.2112
21
-90.9466
0
LINE
8
BLACK
6
CONTINUOUS
10
94.2112
20
-90.9466
11
94.2089
21
-90.9428
0
LINE
8
BLACK
6
CONTINUOUS
10
94.2089
20
-90.9428
11
94.2048
21
-90.9409
0
LINE
8
BLACK
6
CONTINUOUS
10
94.2048
20
-90.9409
11
94.1477
21
-90.8837
0
LINE
8
BLACK
6
CONTINUOUS
10
94.1477
20
-90.8837
11
94.1348
21
-90.8654
0
LINE
8
BLACK
6
CONTINUOUS
10
94.1348
20
-90.8654
11
94.1336
21
-90.8643
0
LINE
8
BLACK
6
CONTINUOUS
10
94.1336
20
-90.8643
11
94.1051
21
-90.8071
0
LINE
8
BLACK
6
CONTINUOUS
10
94.1051
20
-90.8071
11
94.1014
21
-90.7947
0
LINE
8
BLACK
6
CONTINUOUS
10
94.1014
20
-90.7947
11
94.0994
21
-90.7918
0
LINE
8
BLACK
6
CONTINUOUS
10
94.0994
20
-90.7918
11
94.0708
21
-90.6775
0
LINE
8
BLACK
6
CONTINUOUS
10
94.0708
20
-90.6775
11
94.0698
21
-90.6625
0
LINE
8
BLACK
6
CONTINUOUS
10
94.0698
20
-90.6625
11
94.0686
21
-90.6593
0
LINE
8
BLACK
6
CONTINUOUS
10
94.0686
20
-90.6593
11
94.0686
21
-90.5736
0
LINE
8
BLACK
6
CONTINUOUS
10
94.0686
20
-90.5736
11
94.0712
21
-90.5588
0
LINE
8
BLACK
6
CONTINUOUS
10
94.0712
20
-90.5588
11
94.0708
21
-90.5554
0
LINE
8
BLACK
6
CONTINUOUS
10
94.0708
20
-90.5554
11
94.0994
21
-90.4411
0
LINE
8
BLACK
6
CONTINUOUS
10
94.0994
20
-90.4411
11
94.1047
21
-90.4293
0
LINE
8
BLACK
6
CONTINUOUS
10
94.1047
20
-90.4293
11
94.1051
21
-90.4257
0
LINE
8
BLACK
6
CONTINUOUS
10
94.1051
20
-90.4257
11
94.1336
21
-90.3686
0
LINE
8
BLACK
6
CONTINUOUS
10
94.1336
20
-90.3686
11
94.147
21
-90.3506
0
LINE
8
BLACK
6
CONTINUOUS
10
94.147
20
-90.3506
11
94.1477
21
-90.3491
0
LINE
8
BLACK
6
CONTINUOUS
10
94.1477
20
-90.3491
11
94.2048
21
-90.292
0
LINE
8
BLACK
6
CONTINUOUS
10
94.2048
20
-90.292
11
94.2262
21
-90.277
0
LINE
8
BLACK
6
CONTINUOUS
10
94.2262
20
-90.277
11
94.2306
21
-90.2766
0
LINE
8
BLACK
6
CONTINUOUS
10
94.2306
20
-90.2766
11
94.2341
21
-90.2738
0
LINE
8
BLACK
6
CONTINUOUS
10
94.2341
20
-90.2738
11
94.3199
21
-90.2453
0
LINE
8
BLACK
6
CONTINUOUS
10
94.3199
20
-90.2453
11
94.342
21
-90.242
0
LINE
8
BLACK
6
CONTINUOUS
10
94.342
20
-90.242
11
94.3436
21
-90.2414
0
LINE
8
BLACK
6
CONTINUOUS
10
94.3436
20
-90.2414
11
94.4007
21
-90.2414
0
LINE
8
BLACK
6
CONTINUOUS
10
94.4007
20
-90.2414
11
94.4228
21
-90.2453
0
LINE
8
BLACK
6
CONTINUOUS
10
94.9238
20
-90.2433
11
94.928
21
-90.2426
0
LINE
8
BLACK
6
CONTINUOUS
10
94.928
20
-90.2426
11
94.9469
21
-90.2534
0
LINE
8
BLACK
6
CONTINUOUS
10
94.9469
20
-90.2534
11
94.9668
21
-90.2622
0
LINE
8
BLACK
6
CONTINUOUS
10
94.9668
20
-90.2622
11
94.9687
21
-90.2661
0
LINE
8
BLACK
6
CONTINUOUS
10
94.9687
20
-90.2661
11
94.9725
21
-90.2682
0
LINE
8
BLACK
6
CONTINUOUS
10
94.9725
20
-90.2682
11
94.9799
21
-90.2887
0
LINE
8
BLACK
6
CONTINUOUS
10
94.9799
20
-90.2887
11
94.9895
21
-90.3082
0
LINE
8
BLACK
6
CONTINUOUS
10
94.9895
20
-90.3082
11
94.9885
21
-90.3124
0
LINE
8
BLACK
6
CONTINUOUS
10
94.9885
20
-90.3124
11
94.99
21
-90.3164
0
LINE
8
BLACK
6
CONTINUOUS
10
94.99
20
-90.3164
11
94.99
21
-90.8414
0
LINE
8
BLACK
6
CONTINUOUS
10
94.99
20
-90.8414
11
95.0864
21
-90.8414
0
LINE
8
BLACK
6
CONTINUOUS
10
95.0864
20
-90.8414
11
95.1121
21
-90.846
0
LINE
8
BLACK
6
CONTINUOUS
10
95.1121
20
-90.846
11
95.1514
21
-90.8789
0
LINE
8
BLACK
6
CONTINUOUS
10
95.1514
20
-90.8789
11
95.1603
21
-90.9295
0
LINE
8
BLACK
6
CONTINUOUS
10
95.1603
20
-90.9295
11
95.1346
21
-90.9739
0
LINE
8
BLACK
6
CONTINUOUS
10
95.1346
20
-90.9739
11
95.0864
21
-90.9914
0
LINE
8
BLACK
6
CONTINUOUS
10
95.0864
20
-90.9914
11
94.7436
21
-90.9914
0
LINE
8
BLACK
6
CONTINUOUS
10
94.7436
20
-90.9914
11
94.7179
21
-90.9869
0
LINE
8
BLACK
6
CONTINUOUS
10
94.7179
20
-90.9869
11
94.6786
21
-90.9539
0
LINE
8
BLACK
6
CONTINUOUS
10
94.6786
20
-90.9539
11
94.6697
21
-90.9034
0
LINE
8
BLACK
6
CONTINUOUS
10
94.6697
20
-90.9034
11
94.6954
21
-90.859
0
LINE
8
BLACK
6
CONTINUOUS
10
94.6954
20
-90.859
11
94.7436
21
-90.8414
0
LINE
8
BLACK
6
CONTINUOUS
10
94.7436
20
-90.8414
11
94.84
21
-90.8414
0
LINE
8
BLACK
6
CONTINUOUS
10
94.84
20
-90.8414
11
94.84
21
-90.5219
0
LINE
8
BLACK
6
CONTINUOUS
10
94.84
20
-90.5219
11
94.8354
21
-90.5252
0
LINE
8
BLACK
6
CONTINUOUS
10
94.8354
20
-90.5252
11
94.8343
21
-90.5264
0
LINE
8
BLACK
6
CONTINUOUS
10
94.8343
20
-90.5264
11
94.7771
21
-90.5549
0
LINE
8
BLACK
6
CONTINUOUS
10
94.7771
20
-90.5549
11
94.7521
21
-90.5624
0
LINE
8
BLACK
6
CONTINUOUS
10
94.7521
20
-90.5624
11
94.7022
21
-90.5504
0
LINE
8
BLACK
6
CONTINUOUS
10
94.7022
20
-90.5504
11
94.6717
21
-90.5092
0
LINE
8
BLACK
6
CONTINUOUS
10
94.6717
20
-90.5092
11
94.6748
21
-90.458
0
LINE
8
BLACK
6
CONTINUOUS
10
94.6748
20
-90.458
11
94.71
21
-90.4208
0
LINE
8
BLACK
6
CONTINUOUS
10
94.71
20
-90.4208
11
94.7563
21
-90.3976
0
LINE
8
BLACK
6
CONTINUOUS
10
94.7563
20
-90.3976
11
94.7996
21
-90.3544
0
LINE
8
BLACK
6
CONTINUOUS
10
94.7996
20
-90.3544
11
94.8526
21
-90.2748
0
LINE
8
BLACK
6
CONTINUOUS
10
94.8526
20
-90.2748
11
94.8706
21
-90.256
0
LINE
8
BLACK
6
CONTINUOUS
10
94.8706
20
-90.256
11
94.8747
21
-90.2548
0
LINE
8
BLACK
6
CONTINUOUS
10
94.8747
20
-90.2548
11
94.8775
21
-90.2515
0
LINE
8
BLACK
6
CONTINUOUS
10
94.8775
20
-90.2515
11
94.8989
21
-90.2477
0
LINE
8
BLACK
6
CONTINUOUS
10
94.8989
20
-90.2477
11
94.9198
21
-90.2416
0
LINE
8
BLACK
6
CONTINUOUS
10
94.9198
20
-90.2416
11
94.9238
21
-90.2433
0
LINE
8
BLACK
6
CONTINUOUS
10
101.247
20
-90.0453
11
101.249
21
-90.0453
0
LINE
8
BLACK
6
CONTINUOUS
10
101.249
20
-90.0453
11
101.334
21
-90.0738
0
LINE
8
BLACK
6
CONTINUOUS
10
101.334
20
-90.0738
11
101.357
21
-90.0863
0
LINE
8
BLACK
6
CONTINUOUS
10
101.357
20
-90.0863
11
101.36
21
-90.0901
0
LINE
8
BLACK
6
CONTINUOUS
10
101.36
20
-90.0901
11
101.364
21
-90.092
0
LINE
8
BLACK
6
CONTINUOUS
10
101.364
20
-90.092
11
101.421
21
-90.1491
0
LINE
8
BLACK
6
CONTINUOUS
10
101.421
20
-90.1491
11
101.434
21
-90.1675
0
LINE
8
BLACK
6
CONTINUOUS
10
101.434
20
-90.1675
11
101.435
21
-90.1686
0
LINE
8
BLACK
6
CONTINUOUS
10
101.435
20
-90.1686
11
101.464
21
-90.2257
0
LINE
8
BLACK
6
CONTINUOUS
10
101.464
20
-90.2257
11
101.467
21
-90.2382
0
LINE
8
BLACK
6
CONTINUOUS
10
101.467
20
-90.2382
11
101.469
21
-90.2411
0
LINE
8
BLACK
6
CONTINUOUS
10
101.469
20
-90.2411
11
101.498
21
-90.3554
0
LINE
8
BLACK
6
CONTINUOUS
10
101.498
20
-90.3554
11
101.499
21
-90.3703
0
LINE
8
BLACK
6
CONTINUOUS
10
101.499
20
-90.3703
11
101.5
21
-90.3736
0
LINE
8
BLACK
6
CONTINUOUS
10
101.5
20
-90.3736
11
101.5
21
-90.4593
0
LINE
8
BLACK
6
CONTINUOUS
10
101.5
20
-90.4593
11
101.497
21
-90.474
0
LINE
8
BLACK
6
CONTINUOUS
10
101.497
20
-90.474
11
101.498
21
-90.4775
0
LINE
8
BLACK
6
CONTINUOUS
10
101.498
20
-90.4775
11
101.469
21
-90.5918
0
LINE
8
BLACK
6
CONTINUOUS
10
101.469
20
-90.5918
11
101.464
21
-90.6036
0
LINE
8
BLACK
6
CONTINUOUS
10
101.464
20
-90.6036
11
101.464
21
-90.6071
0
LINE
8
BLACK
6
CONTINUOUS
10
101.464
20
-90.6071
11
101.435
21
-90.6643
0
LINE
8
BLACK
6
CONTINUOUS
10
101.435
20
-90.6643
11
101.422
21
-90.6823
0
LINE
8
BLACK
6
CONTINUOUS
10
101.422
20
-90.6823
11
101.421
21
-90.6837
0
LINE
8
BLACK
6
CONTINUOUS
10
101.421
20
-90.6837
11
101.364
21
-90.7409
0
LINE
8
BLACK
6
CONTINUOUS
10
101.364
20
-90.7409
11
101.342
21
-90.7558
0
LINE
8
BLACK
6
CONTINUOUS
10
101.342
20
-90.7558
11
101.338
21
-90.7562
0
LINE
8
BLACK
6
CONTINUOUS
10
101.338
20
-90.7562
11
101.334
21
-90.759
0
LINE
8
BLACK
6
CONTINUOUS
10
101.334
20
-90.759
11
101.249
21
-90.7876
0
LINE
8
BLACK
6
CONTINUOUS
10
101.249
20
-90.7876
11
101.227
21
-90.7909
0
LINE
8
BLACK
6
CONTINUOUS
10
101.227
20
-90.7909
11
101.225
21
-90.7914
0
LINE
8
BLACK
6
CONTINUOUS
10
101.225
20
-90.7914
11
101.082
21
-90.7914
0
LINE
8
BLACK
6
CONTINUOUS
10
101.082
20
-90.7914
11
101.072
21
-90.7897
0
LINE
8
BLACK
6
CONTINUOUS
10
101.072
20
-90.7897
11
101.069
21
-90.7903
0
LINE
8
BLACK
6
CONTINUOUS
10
101.069
20
-90.7903
11
101.066
21
-90.7886
0
LINE
8
BLACK
6
CONTINUOUS
10
101.066
20
-90.7886
11
101.056
21
-90.7869
0
LINE
8
BLACK
6
CONTINUOUS
10
101.056
20
-90.7869
11
101.042
21
-90.7744
0
LINE
8
BLACK
6
CONTINUOUS
10
101.042
20
-90.7744
11
101.025
21
-90.7646
0
LINE
8
BLACK
6
CONTINUOUS
10
101.025
20
-90.7646
11
101.022
21
-90.7583
0
LINE
8
BLACK
6
CONTINUOUS
10
101.022
20
-90.7583
11
101.017
21
-90.7539
0
LINE
8
BLACK
6
CONTINUOUS
10
101.017
20
-90.7539
11
101.014
21
-90.7347
0
LINE
8
BLACK
6
CONTINUOUS
10
101.014
20
-90.7347
11
101.007
21
-90.7164
0
LINE
8
BLACK
6
CONTINUOUS
10
101.007
20
-90.7164
11
101.007
21
-90.1164
0
LINE
8
BLACK
6
CONTINUOUS
10
101.007
20
-90.1164
11
101.009
21
-90.1067
0
LINE
8
BLACK
6
CONTINUOUS
10
101.009
20
-90.1067
11
101.008
21
-90.1034
0
LINE
8
BLACK
6
CONTINUOUS
10
101.008
20
-90.1034
11
101.01
21
-90.1005
0
LINE
8
BLACK
6
CONTINUOUS
10
101.01
20
-90.1005
11
101.012
21
-90.0908
0
LINE
8
BLACK
6
CONTINUOUS
10
101.012
20
-90.0908
11
101.024
21
-90.0758
0
LINE
8
BLACK
6
CONTINUOUS
10
101.024
20
-90.0758
11
101.034
21
-90.059
0
LINE
8
BLACK
6
CONTINUOUS
10
101.034
20
-90.059
11
101.04
21
-90.0567
0
LINE
8
BLACK
6
CONTINUOUS
10
101.04
20
-90.0567
11
101.045
21
-90.0515
0
LINE
8
BLACK
6
CONTINUOUS
10
101.045
20
-90.0515
11
101.064
21
-90.0481
0
LINE
8
BLACK
6
CONTINUOUS
10
101.064
20
-90.0481
11
101.082
21
-90.0414
0
LINE
8
BLACK
6
CONTINUOUS
10
101.082
20
-90.0414
11
101.225
21
-90.0414
0
LINE
8
BLACK
6
CONTINUOUS
10
101.225
20
-90.0414
11
101.247
21
-90.0453
0
LINE
8
BLACK
6
CONTINUOUS
10
101.157
20
-90.1914
11
101.157
21
-90.6414
0
LINE
8
BLACK
6
CONTINUOUS
10
101.157
20
-90.6414
11
101.213
21
-90.6414
0
LINE
8
BLACK
6
CONTINUOUS
10
101.213
20
-90.6414
11
101.27
21
-90.6223
0
LINE
8
BLACK
6
CONTINUOUS
10
101.27
20
-90.6223
11
101.306
21
-90.5863
0
LINE
8
BLACK
6
CONTINUOUS
10
101.306
20
-90.5863
11
101.326
21
-90.5474
0
LINE
8
BLACK
6
CONTINUOUS
10
101.326
20
-90.5474
11
101.35
21
-90.4501
0
LINE
8
BLACK
6
CONTINUOUS
10
101.35
20
-90.4501
11
101.35
21
-90.3828
0
LINE
8
BLACK
6
CONTINUOUS
10
101.35
20
-90.3828
11
101.326
21
-90.2855
0
LINE
8
BLACK
6
CONTINUOUS
10
101.326
20
-90.2855
11
101.306
21
-90.2466
0
LINE
8
BLACK
6
CONTINUOUS
10
101.306
20
-90.2466
11
101.27
21
-90.2106
0
LINE
8
BLACK
6
CONTINUOUS
10
101.27
20
-90.2106
11
101.213
21
-90.1914
0
LINE
8
BLACK
6
CONTINUOUS
10
101.213
20
-90.1914
11
101.157
21
-90.1914
0
LINE
8
BLACK
6
CONTINUOUS
10
101.834
20
-90.0433
11
101.838
21
-90.0426
0
LINE
8
BLACK
6
CONTINUOUS
10
101.838
20
-90.0426
11
101.857
21
-90.0534
0
LINE
8
BLACK
6
CONTINUOUS
10
101.857
20
-90.0534
11
101.877
21
-90.0622
0
LINE
8
BLACK
6
CONTINUOUS
10
101.877
20
-90.0622
11
101.879
21
-90.0661
0
LINE
8
BLACK
6
CONTINUOUS
10
101.879
20
-90.0661
11
101.882
21
-90.0682
0
LINE
8
BLACK
6
CONTINUOUS
10
101.882
20
-90.0682
11
101.89
21
-90.0887
0
LINE
8
BLACK
6
CONTINUOUS
10
101.89
20
-90.0887
11
101.9
21
-90.1082
0
LINE
8
BLACK
6
CONTINUOUS
10
101.9
20
-90.1082
11
101.899
21
-90.1124
0
LINE
8
BLACK
6
CONTINUOUS
10
101.899
20
-90.1124
11
101.9
21
-90.1164
0
LINE
8
BLACK
6
CONTINUOUS
10
101.9
20
-90.1164
11
101.9
21
-90.6414
0
LINE
8
BLACK
6
CONTINUOUS
10
101.9
20
-90.6414
11
101.996
21
-90.6414
0
LINE
8
BLACK
6
CONTINUOUS
10
101.996
20
-90.6414
11
102.022
21
-90.646
0
LINE
8
BLACK
6
CONTINUOUS
10
102.022
20
-90.646
11
102.061
21
-90.6789
0
LINE
8
BLACK
6
CONTINUOUS
10
102.061
20
-90.6789
11
102.07
21
-90.7295
0
LINE
8
BLACK
6
CONTINUOUS
10
102.07
20
-90.7295
11
102.045
21
-90.7739
0
LINE
8
BLACK
6
CONTINUOUS
10
102.045
20
-90.7739
11
101.996
21
-90.7914
0
LINE
8
BLACK
6
CONTINUOUS
10
101.996
20
-90.7914
11
101.654
21
-90.7914
0
LINE
8
BLACK
6
CONTINUOUS
10
101.654
20
-90.7914
11
101.628
21
-90.7869
0
LINE
8
BLACK
6
CONTINUOUS
10
101.628
20
-90.7869
11
101.589
21
-90.7539
0
LINE
8
BLACK
6
CONTINUOUS
10
101.589
20
-90.7539
11
101.58
21
-90.7034
0
LINE
8
BLACK
6
CONTINUOUS
10
101.58
20
-90.7034
11
101.605
21
-90.659
0
LINE
8
BLACK
6
CONTINUOUS
10
101.605
20
-90.659
11
101.654
21
-90.6414
0
LINE
8
BLACK
6
CONTINUOUS
10
101.654
20
-90.6414
11
101.75
21
-90.6414
0
LINE
8
BLACK
6
CONTINUOUS
10
101.75
20
-90.6414
11
101.75
21
-90.3219
0
LINE
8
BLACK
6
CONTINUOUS
10
101.75
20
-90.3219
11
101.745
21
-90.3252
0
LINE
8
BLACK
6
CONTINUOUS
10
101.745
20
-90.3252
11
101.744
21
-90.3264
0
LINE
8
BLACK
6
CONTINUOUS
10
101.744
20
-90.3264
11
101.687
21
-90.3549
0
LINE
8
BLACK
6
CONTINUOUS
10
101.687
20
-90.3549
11
101.662
21
-90.3624
0
LINE
8
BLACK
6
CONTINUOUS
10
101.662
20
-90.3624
11
101.612
21
-90.3504
0
LINE
8
BLACK
6
CONTINUOUS
10
101.612
20
-90.3504
11
101.582
21
-90.3092
0
LINE
8
BLACK
6
CONTINUOUS
10
101.582
20
-90.3092
11
101.585
21
-90.258
0
LINE
8
BLACK
6
CONTINUOUS
10
101.585
20
-90.258
11
101.62
21
-90.2208
0
LINE
8
BLACK
6
CONTINUOUS
10
101.62
20
-90.2208
11
101.666
21
-90.1976
0
LINE
8
BLACK
6
CONTINUOUS
10
101.666
20
-90.1976
11
101.71
21
-90.1544
0
LINE
8
BLACK
6
CONTINUOUS
10
101.71
20
-90.1544
11
101.763
21
-90.0748
0
LINE
8
BLACK
6
CONTINUOUS
10
101.763
20
-90.0748
11
101.781
21
-90.056
0
LINE
8
BLACK
6
CONTINUOUS
10
101.781
20
-90.056
11
101.785
21
-90.0548
0
LINE
8
BLACK
6
CONTINUOUS
10
101.785
20
-90.0548
11
101.787
21
-90.0515
0
LINE
8
BLACK
6
CONTINUOUS
10
101.787
20
-90.0515
11
101.809
21
-90.0477
0
LINE
8
BLACK
6
CONTINUOUS
10
101.809
20
-90.0477
11
101.83
21
-90.0416
0
LINE
8
BLACK
6
CONTINUOUS
10
101.83
20
-90.0416
11
101.834
21
-90.0433
0
LINE
8
BLACK
6
CONTINUOUS
10
107.711
20
-89.601
11
107.715
21
-89.6038
0
LINE
8
BLACK
6
CONTINUOUS
10
107.715
20
-89.6038
11
107.719
21
-89.6043
0
LINE
8
BLACK
6
CONTINUOUS
10
107.719
20
-89.6043
11
107.776
21
-89.6329
0
LINE
8
BLACK
6
CONTINUOUS
10
107.776
20
-89.6329
11
107.794
21
-89.6463
0
LINE
8
BLACK
6
CONTINUOUS
10
107.794
20
-89.6463
11
107.796
21
-89.647
0
LINE
8
BLACK
6
CONTINUOUS
10
107.796
20
-89.647
11
107.824
21
-89.6755
0
LINE
8
BLACK
6
CONTINUOUS
10
107.824
20
-89.6755
11
107.837
21
-89.6939
0
LINE
8
BLACK
6
CONTINUOUS
10
107.837
20
-89.6939
11
107.839
21
-89.695
0
LINE
8
BLACK
6
CONTINUOUS
10
107.839
20
-89.695
11
107.867
21
-89.7522
0
LINE
8
BLACK
6
CONTINUOUS
10
107.867
20
-89.7522
11
107.875
21
-89.7771
0
LINE
8
BLACK
6
CONTINUOUS
10
107.875
20
-89.7771
11
107.873
21
-89.7815
0
LINE
8
BLACK
6
CONTINUOUS
10
107.873
20
-89.7815
11
107.875
21
-89.7857
0
LINE
8
BLACK
6
CONTINUOUS
10
107.875
20
-89.7857
11
107.875
21
-89.8429
0
LINE
8
BLACK
6
CONTINUOUS
10
107.875
20
-89.8429
11
107.871
21
-89.8649
0
LINE
8
BLACK
6
CONTINUOUS
10
107.871
20
-89.8649
11
107.871
21
-89.8666
0
LINE
8
BLACK
6
CONTINUOUS
10
107.871
20
-89.8666
11
107.843
21
-89.9523
0
LINE
8
BLACK
6
CONTINUOUS
10
107.843
20
-89.9523
11
107.83
21
-89.9752
0
LINE
8
BLACK
6
CONTINUOUS
10
107.83
20
-89.9752
11
107.826
21
-89.9775
0
LINE
8
BLACK
6
CONTINUOUS
10
107.826
20
-89.9775
11
107.824
21
-89.9816
0
LINE
8
BLACK
6
CONTINUOUS
10
107.824
20
-89.9816
11
107.61
21
-90.1964
0
LINE
8
BLACK
6
CONTINUOUS
10
107.61
20
-90.1964
11
107.8
21
-90.1964
0
LINE
8
BLACK
6
CONTINUOUS
10
107.8
20
-90.1964
11
107.826
21
-90.201
0
LINE
8
BLACK
6
CONTINUOUS
10
107.826
20
-90.201
11
107.865
21
-90.2339
0
LINE
8
BLACK
6
CONTINUOUS
10
107.865
20
-90.2339
11
107.874
21
-90.2845
0
LINE
8
BLACK
6
CONTINUOUS
10
107.874
20
-90.2845
11
107.848
21
-90.3289
0
LINE
8
BLACK
6
CONTINUOUS
10
107.848
20
-90.3289
11
107.8
21
-90.3464
0
LINE
8
BLACK
6
CONTINUOUS
10
107.8
20
-90.3464
11
107.429
21
-90.3464
0
LINE
8
BLACK
6
CONTINUOUS
10
107.429
20
-90.3464
11
107.412
21
-90.3436
0
LINE
8
BLACK
6
CONTINUOUS
10
107.412
20
-90.3436
11
107.409
21
-90.3439
0
LINE
8
BLACK
6
CONTINUOUS
10
107.409
20
-90.3439
11
107.408
21
-90.3427
0
LINE
8
BLACK
6
CONTINUOUS
10
107.408
20
-90.3427
11
107.403
21
-90.3419
0
LINE
8
BLACK
6
CONTINUOUS
10
107.403
20
-90.3419
11
107.386
21
-90.3274
0
LINE
8
BLACK
6
CONTINUOUS
10
107.386
20
-90.3274
11
107.367
21
-90.3144
0
LINE
8
BLACK
6
CONTINUOUS
10
107.367
20
-90.3144
11
107.366
21
-90.3111
0
LINE
8
BLACK
6
CONTINUOUS
10
107.366
20
-90.3111
11
107.364
21
-90.3089
0
LINE
8
BLACK
6
CONTINUOUS
10
107.364
20
-90.3089
11
107.36
21
-90.2867
0
LINE
8
BLACK
6
CONTINUOUS
10
107.36
20
-90.2867
11
107.354
21
-90.2649
0
LINE
8
BLACK
6
CONTINUOUS
10
107.354
20
-90.2649
11
107.355
21
-90.2618
0
LINE
8
BLACK
6
CONTINUOUS
10
107.355
20
-90.2618
11
107.355
21
-90.2584
0
LINE
8
BLACK
6
CONTINUOUS
10
107.355
20
-90.2584
11
107.366
21
-90.2388
0
LINE
8
BLACK
6
CONTINUOUS
10
107.366
20
-90.2388
11
107.376
21
-90.2184
0
LINE
8
BLACK
6
CONTINUOUS
10
107.376
20
-90.2184
11
107.706
21
-89.8881
0
LINE
8
BLACK
6
CONTINUOUS
10
107.706
20
-89.8881
11
107.725
21
-89.8307
0
LINE
8
BLACK
6
CONTINUOUS
10
107.725
20
-89.8307
11
107.725
21
-89.8034
0
LINE
8
BLACK
6
CONTINUOUS
10
107.725
20
-89.8034
11
107.71
21
-89.773
0
LINE
8
BLACK
6
CONTINUOUS
10
107.71
20
-89.773
11
107.698
21
-89.7616
0
LINE
8
BLACK
6
CONTINUOUS
10
107.698
20
-89.7616
11
107.668
21
-89.7464
0
LINE
8
BLACK
6
CONTINUOUS
10
107.668
20
-89.7464
11
107.561
21
-89.7464
0
LINE
8
BLACK
6
CONTINUOUS
10
107.561
20
-89.7464
11
107.53
21
-89.7616
0
LINE
8
BLACK
6
CONTINUOUS
10
107.53
20
-89.7616
11
107.51
21
-89.7816
0
LINE
8
BLACK
6
CONTINUOUS
10
107.51
20
-89.7816
11
107.489
21
-89.7965
0
LINE
8
BLACK
6
CONTINUOUS
10
107.489
20
-89.7965
11
107.438
21
-89.801
0
LINE
8
BLACK
6
CONTINUOUS
10
107.438
20
-89.801
11
107.396
21
-89.7716
0
LINE
8
BLACK
6
CONTINUOUS
10
107.396
20
-89.7716
11
107.382
21
-89.722
0
LINE
8
BLACK
6
CONTINUOUS
10
107.382
20
-89.722
11
107.404
21
-89.6755
0
LINE
8
BLACK
6
CONTINUOUS
10
107.404
20
-89.6755
11
107.433
21
-89.647
0
LINE
8
BLACK
6
CONTINUOUS
10
107.433
20
-89.647
11
107.451
21
-89.6341
0
LINE
8
BLACK
6
CONTINUOUS
10
107.451
20
-89.6341
11
107.452
21
-89.6329
0
LINE
8
BLACK
6
CONTINUOUS
10
107.452
20
-89.6329
11
107.509
21
-89.6043
0
LINE
8
BLACK
6
CONTINUOUS
10
107.509
20
-89.6043
11
107.534
21
-89.5969
0
LINE
8
BLACK
6
CONTINUOUS
10
107.534
20
-89.5969
11
107.539
21
-89.598
0
LINE
8
BLACK
6
CONTINUOUS
10
107.539
20
-89.598
11
107.543
21
-89.5964
0
LINE
8
BLACK
6
CONTINUOUS
10
107.543
20
-89.5964
11
107.686
21
-89.5964
0
LINE
8
BLACK
6
CONTINUOUS
10
107.686
20
-89.5964
11
107.711
21
-89.601
0
LINE
8
BLACK
6
CONTINUOUS
10
107.257
20
-89.6232
11
107.275
21
-89.6714
0
LINE
8
BLACK
6
CONTINUOUS
10
107.275
20
-89.6714
11
107.275
21
-90.1
0
LINE
8
BLACK
6
CONTINUOUS
10
107.275
20
-90.1
11
107.271
21
-90.1221
0
LINE
8
BLACK
6
CONTINUOUS
10
107.271
20
-90.1221
11
107.271
21
-90.1237
0
LINE
8
BLACK
6
CONTINUOUS
10
107.271
20
-90.1237
11
107.243
21
-90.2094
0
LINE
8
BLACK
6
CONTINUOUS
10
107.243
20
-90.2094
11
107.23
21
-90.2323
0
LINE
8
BLACK
6
CONTINUOUS
10
107.23
20
-90.2323
11
107.226
21
-90.2347
0
LINE
8
BLACK
6
CONTINUOUS
10
107.226
20
-90.2347
11
107.224
21
-90.2387
0
LINE
8
BLACK
6
CONTINUOUS
10
107.224
20
-90.2387
11
107.167
21
-90.2959
0
LINE
8
BLACK
6
CONTINUOUS
10
107.167
20
-90.2959
11
107.146
21
-90.3108
0
LINE
8
BLACK
6
CONTINUOUS
10
107.146
20
-90.3108
11
107.142
21
-90.3112
0
LINE
8
BLACK
6
CONTINUOUS
10
107.142
20
-90.3112
11
107.138
21
-90.314
0
LINE
8
BLACK
6
CONTINUOUS
10
107.138
20
-90.314
11
107.052
21
-90.3426
0
LINE
8
BLACK
6
CONTINUOUS
10
107.052
20
-90.3426
11
107.03
21
-90.3459
0
LINE
8
BLACK
6
CONTINUOUS
10
107.03
20
-90.3459
11
107.029
21
-90.3464
0
LINE
8
BLACK
6
CONTINUOUS
10
107.029
20
-90.3464
11
106.971
21
-90.3464
0
LINE
8
BLACK
6
CONTINUOUS
10
106.971
20
-90.3464
11
106.946
21
-90.3419
0
LINE
8
BLACK
6
CONTINUOUS
10
106.946
20
-90.3419
11
106.906
21
-90.3089
0
LINE
8
BLACK
6
CONTINUOUS
10
106.906
20
-90.3089
11
106.898
21
-90.2584
0
LINE
8
BLACK
6
CONTINUOUS
10
106.898
20
-90.2584
11
106.923
21
-90.214
0
LINE
8
BLACK
6
CONTINUOUS
10
106.923
20
-90.214
11
106.971
21
-90.1964
0
LINE
8
BLACK
6
CONTINUOUS
10
106.971
20
-90.1964
11
107.016
21
-90.1964
0
LINE
8
BLACK
6
CONTINUOUS
10
107.016
20
-90.1964
11
107.074
21
-90.1773
0
LINE
8
BLACK
6
CONTINUOUS
10
107.074
20
-90.1773
11
107.106
21
-90.1452
0
LINE
8
BLACK
6
CONTINUOUS
10
107.106
20
-90.1452
11
107.125
21
-90.0878
0
LINE
8
BLACK
6
CONTINUOUS
10
107.125
20
-90.0878
11
107.125
21
-89.6714
0
LINE
8
BLACK
6
CONTINUOUS
10
107.125
20
-89.6714
11
107.13
21
-89.6458
0
LINE
8
BLACK
6
CONTINUOUS
10
107.13
20
-89.6458
11
107.162
21
-89.6065
0
LINE
8
BLACK
6
CONTINUOUS
10
107.162
20
-89.6065
11
107.213
21
-89.5976
0
LINE
8
BLACK
6
CONTINUOUS
10
107.213
20
-89.5976
11
107.257
21
-89.6232
0
LINE
8
BLACK
6
CONTINUOUS
10
92.4575
20
-89.6232
11
92.475
21
-89.6714
0
LINE
8
BLACK
6
CONTINUOUS
10
92.475
20
-89.6714
11
92.475
21
-90.1
0
LINE
8
BLACK
6
CONTINUOUS
10
92.475
20
-90.1
11
92.4711
21
-90.1221
0
LINE
8
BLACK
6
CONTINUOUS
10
92.4711
20
-90.1221
11
92.4712
21
-90.1237
0
LINE
8
BLACK
6
CONTINUOUS
10
92.4712
20
-90.1237
11
92.4426
21
-90.2094
0
LINE
8
BLACK
6
CONTINUOUS
10
92.4426
20
-90.2094
11
92.4302
21
-90.2323
0
LINE
8
BLACK
6
CONTINUOUS
10
92.4302
20
-90.2323
11
92.4264
21
-90.2347
0
LINE
8
BLACK
6
CONTINUOUS
10
92.4264
20
-90.2347
11
92.4245
21
-90.2387
0
LINE
8
BLACK
6
CONTINUOUS
10
92.4245
20
-90.2387
11
92.3673
21
-90.2959
0
LINE
8
BLACK
6
CONTINUOUS
10
92.3673
20
-90.2959
11
92.346
21
-90.3108
0
LINE
8
BLACK
6
CONTINUOUS
10
92.346
20
-90.3108
11
92.3415
21
-90.3112
0
LINE
8
BLACK
6
CONTINUOUS
10
92.3415
20
-90.3112
11
92.338
21
-90.314
0
LINE
8
BLACK
6
CONTINUOUS
10
92.338
20
-90.314
11
92.2523
21
-90.3426
0
LINE
8
BLACK
6
CONTINUOUS
10
92.2523
20
-90.3426
11
92.2301
21
-90.3459
0
LINE
8
BLACK
6
CONTINUOUS
10
92.2301
20
-90.3459
11
92.2286
21
-90.3464
0
LINE
8
BLACK
6
CONTINUOUS
10
92.2286
20
-90.3464
11
92.1714
21
-90.3464
0
LINE
8
BLACK
6
CONTINUOUS
10
92.1714
20
-90.3464
11
92.1458
21
-90.3419
0
LINE
8
BLACK
6
CONTINUOUS
10
92.1458
20
-90.3419
11
92.1065
21
-90.3089
0
LINE
8
BLACK
6
CONTINUOUS
10
92.1065
20
-90.3089
11
92.0976
21
-90.2584
0
LINE
8
BLACK
6
CONTINUOUS
10
92.0976
20
-90.2584
11
92.1232
21
-90.214
0
LINE
8
BLACK
6
CONTINUOUS
10
92.1232
20
-90.214
11
92.1714
21
-90.1964
0
LINE
8
BLACK
6
CONTINUOUS
10
92.1714
20
-90.1964
11
92.2164
21
-90.1964
0
LINE
8
BLACK
6
CONTINUOUS
10
92.2164
20
-90.1964
11
92.2738
21
-90.1773
0
LINE
8
BLACK
6
CONTINUOUS
10
92.2738
20
-90.1773
11
92.3059
21
-90.1452
0
LINE
8
BLACK
6
CONTINUOUS
10
92.3059
20
-90.1452
11
92.325
21
-90.0878
0
LINE
8
BLACK
6
CONTINUOUS
10
92.325
20
-90.0878
11
92.325
21
-89.6714
0
LINE
8
BLACK
6
CONTINUOUS
10
92.325
20
-89.6714
11
92.3295
21
-89.6458
0
LINE
8
BLACK
6
CONTINUOUS
10
92.3295
20
-89.6458
11
92.3625
21
-89.6065
0
LINE
8
BLACK
6
CONTINUOUS
10
92.3625
20
-89.6065
11
92.413
21
-89.5976
0
LINE
8
BLACK
6
CONTINUOUS
10
92.413
20
-89.5976
11
92.4575
21
-89.6232
0
LINE
8
BLACK
6
CONTINUOUS
10
92.8373
20
-89.5983
11
92.8416
21
-89.5976
0
LINE
8
BLACK
6
CONTINUOUS
10
92.8416
20
-89.5976
11
92.8604
21
-89.6084
0
LINE
8
BLACK
6
CONTINUOUS
10
92.8604
20
-89.6084
11
92.8804
21
-89.6172
0
LINE
8
BLACK
6
CONTINUOUS
10
92.8804
20
-89.6172
11
92.8823
21
-89.6211
0
LINE
8
BLACK
6
CONTINUOUS
10
92.8823
20
-89.6211
11
92.886
21
-89.6232
0
LINE
8
BLACK
6
CONTINUOUS
10
92.886
20
-89.6232
11
92.8935
21
-89.6437
0
LINE
8
BLACK
6
CONTINUOUS
10
92.8935
20
-89.6437
11
92.9031
21
-89.6632
0
LINE
8
BLACK
6
CONTINUOUS
10
92.9031
20
-89.6632
11
92.9021
21
-89.6674
0
LINE
8
BLACK
6
CONTINUOUS
10
92.9021
20
-89.6674
11
92.9036
21
-89.6714
0
LINE
8
BLACK
6
CONTINUOUS
10
92.9036
20
-89.6714
11
92.9036
21
-90.1964
0
LINE
8
BLACK
6
CONTINUOUS
10
92.9036
20
-90.1964
11
93
21
-90.1964
0
LINE
8
BLACK
6
CONTINUOUS
10
93
20
-90.1964
11
93.0257
21
-90.201
0
LINE
8
BLACK
6
CONTINUOUS
10
93.0257
20
-90.201
11
93.065
21
-90.2339
0
LINE
8
BLACK
6
CONTINUOUS
10
93.065
20
-90.2339
11
93.0739
21
-90.2845
0
LINE
8
BLACK
6
CONTINUOUS
10
93.0739
20
-90.2845
11
93.0482
21
-90.3289
0
LINE
8
BLACK
6
CONTINUOUS
10
93.0482
20
-90.3289
11
93
21
-90.3464
0
LINE
8
BLACK
6
CONTINUOUS
10
93
20
-90.3464
11
92.6571
21
-90.3464
0
LINE
8
BLACK
6
CONTINUOUS
10
92.6571
20
-90.3464
11
92.6315
21
-90.3419
0
LINE
8
BLACK
6
CONTINUOUS
10
92.6315
20
-90.3419
11
92.5922
21
-90.3089
0
LINE
8
BLACK
6
CONTINUOUS
10
92.5922
20
-90.3089
11
92.5833
21
-90.2584
0
LINE
8
BLACK
6
CONTINUOUS
10
92.5833
20
-90.2584
11
92.6089
21
-90.214
0
LINE
8
BLACK
6
CONTINUOUS
10
92.6089
20
-90.214
11
92.6571
21
-90.1964
0
LINE
8
BLACK
6
CONTINUOUS
10
92.6571
20
-90.1964
11
92.7536
21
-90.1964
0
LINE
8
BLACK
6
CONTINUOUS
10
92.7536
20
-90.1964
11
92.7536
21
-89.8769
0
LINE
8
BLACK
6
CONTINUOUS
10
92.7536
20
-89.8769
11
92.749
21
-89.8802
0
LINE
8
BLACK
6
CONTINUOUS
10
92.749
20
-89.8802
11
92.7478
21
-89.8814
0
LINE
8
BLACK
6
CONTINUOUS
10
92.7478
20
-89.8814
11
92.6907
21
-89.9099
0
LINE
8
BLACK
6
CONTINUOUS
10
92.6907
20
-89.9099
11
92.6657
21
-89.9174
0
LINE
8
BLACK
6
CONTINUOUS
10
92.6657
20
-89.9174
11
92.6158
21
-89.9054
0
LINE
8
BLACK
6
CONTINUOUS
10
92.6158
20
-89.9054
11
92.5853
21
-89.8642
0
LINE
8
BLACK
6
CONTINUOUS
10
92.5853
20
-89.8642
11
92.5883
21
-89.813
0
LINE
8
BLACK
6
CONTINUOUS
10
92.5883
20
-89.813
11
92.6236
21
-89.7758
0
LINE
8
BLACK
6
CONTINUOUS
10
92.6236
20
-89.7758
11
92.6699
21
-89.7526
0
LINE
8
BLACK
6
CONTINUOUS
10
92.6699
20
-89.7526
11
92.7131
21
-89.7094
0
LINE
8
BLACK
6
CONTINUOUS
10
92.7131
20
-89.7094
11
92.7662
21
-89.6298
0
LINE
8
BLACK
6
CONTINUOUS
10
92.7662
20
-89.6298
11
92.7842
21
-89.611
0
LINE
8
BLACK
6
CONTINUOUS
10
92.7842
20
-89.611
11
92.7883
21
-89.6098
0
LINE
8
BLACK
6
CONTINUOUS
10
92.7883
20
-89.6098
11
92.7911
21
-89.6065
0
LINE
8
BLACK
6
CONTINUOUS
10
92.7911
20
-89.6065
11
92.8125
21
-89.6027
0
LINE
8
BLACK
6
CONTINUOUS
10
92.8125
20
-89.6027
11
92.8334
21
-89.5966
0
LINE
8
BLACK
6
CONTINUOUS
10
92.8334
20
-89.5966
11
92.8373
21
-89.5983
0
LINE
8
BLACK
6
CONTINUOUS
10
97.0397
20
-90.0926
11
97.0573
21
-90.135
0
LINE
8
BLACK
6
CONTINUOUS
10
97.0573
20
-90.135
11
97.0397
21
-90.1774
0
LINE
8
BLACK
6
CONTINUOUS
10
97.0397
20
-90.1774
11
96.9973
21
-90.195
0
LINE
8
BLACK
6
CONTINUOUS
10
96.9973
20
-90.195
11
96.7161
21
-90.195
0
LINE
8
BLACK
6
CONTINUOUS
10
96.7161
20
-90.195
11
96.6737
21
-90.1774
0
LINE
8
BLACK
6
CONTINUOUS
10
96.6737
20
-90.1774
11
96.6561
21
-90.135
0
LINE
8
BLACK
6
CONTINUOUS
10
96.6561
20
-90.135
11
96.6737
21
-90.0926
0
LINE
8
BLACK
6
CONTINUOUS
10
96.6737
20
-90.0926
11
96.7161
21
-90.075
0
LINE
8
BLACK
6
CONTINUOUS
10
96.7161
20
-90.075
11
96.9973
21
-90.075
0
LINE
8
BLACK
6
CONTINUOUS
10
96.9973
20
-90.075
11
97.0397
21
-90.0926
0
LINE
8
BLACK
6
CONTINUOUS
10
90.9807
20
-97.2267
11
90.9841
21
-97.2295
0
LINE
8
BLACK
6
CONTINUOUS
10
90.9841
20
-97.2295
11
90.9885
21
-97.2301
0
LINE
8
BLACK
6
CONTINUOUS
10
90.9885
20
-97.2301
11
91.0743
21
-97.2729
0
LINE
8
BLACK
6
CONTINUOUS
10
91.0743
20
-97.2729
11
91.0952
21
-97.2884
0
LINE
8
BLACK
6
CONTINUOUS
10
91.0952
20
-97.2884
11
91.1156
21
-97.3355
0
LINE
8
BLACK
6
CONTINUOUS
10
91.1156
20
-97.3355
11
91.101
21
-97.3847
0
LINE
8
BLACK
6
CONTINUOUS
10
91.101
20
-97.3847
11
91.0581
21
-97.4129
0
LINE
8
BLACK
6
CONTINUOUS
10
91.0581
20
-97.4129
11
91.0072
21
-97.4071
0
LINE
8
BLACK
6
CONTINUOUS
10
91.0072
20
-97.4071
11
90.9373
21
-97.3721
0
LINE
8
BLACK
6
CONTINUOUS
10
90.9373
20
-97.3721
11
90.8386
21
-97.3721
0
LINE
8
BLACK
6
CONTINUOUS
10
90.8386
20
-97.3721
11
90.7384
21
-97.4056
0
LINE
8
BLACK
6
CONTINUOUS
10
90.7384
20
-97.4056
11
90.6738
21
-97.4701
0
LINE
8
BLACK
6
CONTINUOUS
10
90.6738
20
-97.4701
11
90.6401
21
-97.5376
0
LINE
8
BLACK
6
CONTINUOUS
10
90.6401
20
-97.5376
11
90.6014
21
-97.6921
0
LINE
8
BLACK
6
CONTINUOUS
10
90.6014
20
-97.6921
11
90.6014
21
-97.8022
0
LINE
8
BLACK
6
CONTINUOUS
10
90.6014
20
-97.8022
11
90.6401
21
-97.9567
0
LINE
8
BLACK
6
CONTINUOUS
10
90.6401
20
-97.9567
11
90.6738
21
-98.0241
0
LINE
8
BLACK
6
CONTINUOUS
10
90.6738
20
-98.0241
11
90.7384
21
-98.0887
0
LINE
8
BLACK
6
CONTINUOUS
10
90.7384
20
-98.0887
11
90.8386
21
-98.1221
0
LINE
8
BLACK
6
CONTINUOUS
10
90.8386
20
-98.1221
11
90.9
21
-98.1221
0
LINE
8
BLACK
6
CONTINUOUS
10
90.9
20
-98.1221
11
91.0002
21
-98.0887
0
LINE
8
BLACK
6
CONTINUOUS
10
91.0002
20
-98.0887
11
91.0086
21
-98.0804
0
LINE
8
BLACK
6
CONTINUOUS
10
91.0086
20
-98.0804
11
91.0086
21
-97.8864
0
LINE
8
BLACK
6
CONTINUOUS
10
91.0086
20
-97.8864
11
90.9121
21
-97.8864
0
LINE
8
BLACK
6
CONTINUOUS
10
90.9121
20
-97.8864
11
90.8865
21
-97.8819
0
LINE
8
BLACK
6
CONTINUOUS
10
90.8865
20
-97.8819
11
90.8472
21
-97.8489
0
LINE
8
BLACK
6
CONTINUOUS
10
90.8472
20
-97.8489
11
90.8383
21
-97.7984
0
LINE
8
BLACK
6
CONTINUOUS
10
90.8383
20
-97.7984
11
90.8639
21
-97.754
0
LINE
8
BLACK
6
CONTINUOUS
10
90.8639
20
-97.754
11
90.9121
21
-97.7364
0
LINE
8
BLACK
6
CONTINUOUS
10
90.9121
20
-97.7364
11
91.0836
21
-97.7364
0
LINE
8
BLACK
6
CONTINUOUS
10
91.0836
20
-97.7364
11
91.0933
21
-97.7381
0
LINE
8
BLACK
6
CONTINUOUS
10
91.0933
20
-97.7381
11
91.0966
21
-97.7376
0
LINE
8
BLACK
6
CONTINUOUS
10
91.0966
20
-97.7376
11
91.0995
21
-97.7392
0
LINE
8
BLACK
6
CONTINUOUS
10
91.0995
20
-97.7392
11
91.1092
21
-97.741
0
LINE
8
BLACK
6
CONTINUOUS
10
91.1092
20
-97.741
11
91.1242
21
-97.7535
0
LINE
8
BLACK
6
CONTINUOUS
10
91.1242
20
-97.7535
11
91.141
21
-97.7632
0
LINE
8
BLACK
6
CONTINUOUS
10
91.141
20
-97.7632
11
91.1433
21
-97.7696
0
LINE
8
BLACK
6
CONTINUOUS
10
91.1433
20
-97.7696
11
91.1485
21
-97.7739
0
LINE
8
BLACK
6
CONTINUOUS
10
91.1485
20
-97.7739
11
91.1519
21
-97.7931
0
LINE
8
BLACK
6
CONTINUOUS
10
91.1519
20
-97.7931
11
91.1586
21
-97.8114
0
LINE
8
BLACK
6
CONTINUOUS
10
91.1586
20
-97.8114
11
91.1586
21
-98.1114
0
LINE
8
BLACK
6
CONTINUOUS
10
91.1586
20
-98.1114
11
91.1578
21
-98.116
0
LINE
8
BLACK
6
CONTINUOUS
10
91.1578
20
-98.116
11
91.1583
21
-98.118
0
LINE
8
BLACK
6
CONTINUOUS
10
91.1583
20
-98.118
11
91.1569
21
-98.121
0
LINE
8
BLACK
6
CONTINUOUS
10
91.1569
20
-98.121
11
91.154
21
-98.1371
0
LINE
8
BLACK
6
CONTINUOUS
10
91.154
20
-98.1371
11
91.1435
21
-98.1496
0
LINE
8
BLACK
6
CONTINUOUS
10
91.1435
20
-98.1496
11
91.1366
21
-98.1645
0
LINE
8
BLACK
6
CONTINUOUS
10
91.1366
20
-98.1645
11
91.0937
21
-98.2073
0
LINE
8
BLACK
6
CONTINUOUS
10
91.0937
20
-98.2073
11
91.0724
21
-98.2223
0
LINE
8
BLACK
6
CONTINUOUS
10
91.0724
20
-98.2223
11
91.0679
21
-98.2226
0
LINE
8
BLACK
6
CONTINUOUS
10
91.0679
20
-98.2226
11
91.0644
21
-98.2254
0
LINE
8
BLACK
6
CONTINUOUS
10
91.0644
20
-98.2254
11
90.9359
21
-98.2683
0
LINE
8
BLACK
6
CONTINUOUS
10
90.9359
20
-98.2683
11
90.9137
21
-98.2716
0
LINE
8
BLACK
6
CONTINUOUS
10
90.9137
20
-98.2716
11
90.9121
21
-98.2721
0
LINE
8
BLACK
6
CONTINUOUS
10
90.9121
20
-98.2721
11
90.8264
21
-98.2721
0
LINE
8
BLACK
6
CONTINUOUS
10
90.8264
20
-98.2721
11
90.8043
21
-98.2682
0
LINE
8
BLACK
6
CONTINUOUS
10
90.8043
20
-98.2682
11
90.8027
21
-98.2683
0
LINE
8
BLACK
6
CONTINUOUS
10
90.8027
20
-98.2683
11
90.6741
21
-98.2254
0
LINE
8
BLACK
6
CONTINUOUS
10
90.6741
20
-98.2254
11
90.6512
21
-98.213
0
LINE
8
BLACK
6
CONTINUOUS
10
90.6512
20
-98.213
11
90.6489
21
-98.2092
0
LINE
8
BLACK
6
CONTINUOUS
10
90.6489
20
-98.2092
11
90.6448
21
-98.2073
0
LINE
8
BLACK
6
CONTINUOUS
10
90.6448
20
-98.2073
11
90.5591
21
-98.1216
0
LINE
8
BLACK
6
CONTINUOUS
10
90.5591
20
-98.1216
11
90.5462
21
-98.1032
0
LINE
8
BLACK
6
CONTINUOUS
10
90.5462
20
-98.1032
11
90.5451
21
-98.1021
0
LINE
8
BLACK
6
CONTINUOUS
10
90.5451
20
-98.1021
11
90.5022
21
-98.0164
0
LINE
8
BLACK
6
CONTINUOUS
10
90.5022
20
-98.0164
11
90.4985
21
-98.004
0
LINE
8
BLACK
6
CONTINUOUS
10
90.4985
20
-98.004
11
90.4965
21
-98.001
0
LINE
8
BLACK
6
CONTINUOUS
10
90.4965
20
-98.001
11
90.4537
21
-97.8296
0
LINE
8
BLACK
6
CONTINUOUS
10
90.4537
20
-97.8296
11
90.4526
21
-97.8147
0
LINE
8
BLACK
6
CONTINUOUS
10
90.4526
20
-97.8147
11
90.4514
21
-97.8114
0
LINE
8
BLACK
6
CONTINUOUS
10
90.4514
20
-97.8114
11
90.4514
21
-97.6829
0
LINE
8
BLACK
6
CONTINUOUS
10
90.4514
20
-97.6829
11
90.454
21
-97.6681
0
LINE
8
BLACK
6
CONTINUOUS
10
90.454
20
-97.6681
11
90.4537
21
-97.6647
0
LINE
8
BLACK
6
CONTINUOUS
10
90.4537
20
-97.6647
11
90.4965
21
-97.4932
0
LINE
8
BLACK
6
CONTINUOUS
10
90.4965
20
-97.4932
11
90.5018
21
-97.4814
0
LINE
8
BLACK
6
CONTINUOUS
10
90.5018
20
-97.4814
11
90.5022
21
-97.4779
0
LINE
8
BLACK
6
CONTINUOUS
10
90.5022
20
-97.4779
11
90.5451
21
-97.3922
0
LINE
8
BLACK
6
CONTINUOUS
10
90.5451
20
-97.3922
11
90.5584
21
-97.3742
0
LINE
8
BLACK
6
CONTINUOUS
10
90.5584
20
-97.3742
11
90.5591
21
-97.3727
0
LINE
8
BLACK
6
CONTINUOUS
10
90.5591
20
-97.3727
11
90.6448
21
-97.287
0
LINE
8
BLACK
6
CONTINUOUS
10
90.6448
20
-97.287
11
90.6662
21
-97.272
0
LINE
8
BLACK
6
CONTINUOUS
10
90.6662
20
-97.272
11
90.6706
21
-97.2716
0
LINE
8
BLACK
6
CONTINUOUS
10
90.6706
20
-97.2716
11
90.6741
21
-97.2688
0
LINE
8
BLACK
6
CONTINUOUS
10
90.6741
20
-97.2688
11
90.8027
21
-97.226
0
LINE
8
BLACK
6
CONTINUOUS
10
90.8027
20
-97.226
11
90.8249
21
-97.2227
0
LINE
8
BLACK
6
CONTINUOUS
10
90.8249
20
-97.2227
11
90.8264
21
-97.2221
0
LINE
8
BLACK
6
CONTINUOUS
10
90.8264
20
-97.2221
11
90.955
21
-97.2221
0
LINE
8
BLACK
6
CONTINUOUS
10
90.955
20
-97.2221
11
90.9807
21
-97.2267
0
LINE
8
BLACK
6
CONTINUOUS
10
109.396
20
-97.2267
11
109.399
21
-97.2295
0
LINE
8
BLACK
6
CONTINUOUS
10
109.399
20
-97.2295
11
109.404
21
-97.2301
0
LINE
8
BLACK
6
CONTINUOUS
10
109.404
20
-97.2301
11
109.489
21
-97.2729
0
LINE
8
BLACK
6
CONTINUOUS
10
109.489
20
-97.2729
11
109.51
21
-97.2884
0
LINE
8
BLACK
6
CONTINUOUS
10
109.51
20
-97.2884
11
109.531
21
-97.3355
0
LINE
8
BLACK
6
CONTINUOUS
10
109.531
20
-97.3355
11
109.516
21
-97.3847
0
LINE
8
BLACK
6
CONTINUOUS
10
109.516
20
-97.3847
11
109.473
21
-97.4129
0
LINE
8
BLACK
6
CONTINUOUS
10
109.473
20
-97.4129
11
109.422
21
-97.4071
0
LINE
8
BLACK
6
CONTINUOUS
10
109.422
20
-97.4071
11
109.352
21
-97.3721
0
LINE
8
BLACK
6
CONTINUOUS
10
109.352
20
-97.3721
11
109.254
21
-97.3721
0
LINE
8
BLACK
6
CONTINUOUS
10
109.254
20
-97.3721
11
109.153
21
-97.4056
0
LINE
8
BLACK
6
CONTINUOUS
10
109.153
20
-97.4056
11
109.089
21
-97.4701
0
LINE
8
BLACK
6
CONTINUOUS
10
109.089
20
-97.4701
11
109.055
21
-97.5376
0
LINE
8
BLACK
6
CONTINUOUS
10
109.055
20
-97.5376
11
109.016
21
-97.6921
0
LINE
8
BLACK
6
CONTINUOUS
10
109.016
20
-97.6921
11
109.016
21
-97.8022
0
LINE
8
BLACK
6
CONTINUOUS
10
109.016
20
-97.8022
11
109.055
21
-97.9567
0
LINE
8
BLACK
6
CONTINUOUS
10
109.055
20
-97.9567
11
109.089
21
-98.0241
0
LINE
8
BLACK
6
CONTINUOUS
10
109.089
20
-98.0241
11
109.153
21
-98.0887
0
LINE
8
BLACK
6
CONTINUOUS
10
109.153
20
-98.0887
11
109.254
21
-98.1221
0
LINE
8
BLACK
6
CONTINUOUS
10
109.254
20
-98.1221
11
109.315
21
-98.1221
0
LINE
8
BLACK
6
CONTINUOUS
10
109.315
20
-98.1221
11
109.415
21
-98.0887
0
LINE
8
BLACK
6
CONTINUOUS
10
109.415
20
-98.0887
11
109.424
21
-98.0804
0
LINE
8
BLACK
6
CONTINUOUS
10
109.424
20
-98.0804
11
109.424
21
-97.8864
0
LINE
8
BLACK
6
CONTINUOUS
10
109.424
20
-97.8864
11
109.327
21
-97.8864
0
LINE
8
BLACK
6
CONTINUOUS
10
109.327
20
-97.8864
11
109.301
21
-97.8819
0
LINE
8
BLACK
6
CONTINUOUS
10
109.301
20
-97.8819
11
109.262
21
-97.8489
0
LINE
8
BLACK
6
CONTINUOUS
10
109.262
20
-97.8489
11
109.253
21
-97.7984
0
LINE
8
BLACK
6
CONTINUOUS
10
109.253
20
-97.7984
11
109.279
21
-97.754
0
LINE
8
BLACK
6
CONTINUOUS
10
109.279
20
-97.754
11
109.327
21
-97.7364
0
LINE
8
BLACK
6
CONTINUOUS
10
109.327
20
-97.7364
11
109.499
21
-97.7364
0
LINE
8
BLACK
6
CONTINUOUS
10
109.499
20
-97.7364
11
109.508
21
-97.7381
0
LINE
8
BLACK
6
CONTINUOUS
10
109.508
20
-97.7381
11
109.512
21
-97.7376
0
LINE
8
BLACK
6
CONTINUOUS
10
109.512
20
-97.7376
11
109.514
21
-97.7392
0
LINE
8
BLACK
6
CONTINUOUS
10
109.514
20
-97.7392
11
109.524
21
-97.741
0
LINE
8
BLACK
6
CONTINUOUS
10
109.524
20
-97.741
11
109.539
21
-97.7535
0
LINE
8
BLACK
6
CONTINUOUS
10
109.539
20
-97.7535
11
109.556
21
-97.7632
0
LINE
8
BLACK
6
CONTINUOUS
10
109.556
20
-97.7632
11
109.558
21
-97.7696
0
LINE
8
BLACK
6
CONTINUOUS
10
109.558
20
-97.7696
11
109.564
21
-97.7739
0
LINE
8
BLACK
6
CONTINUOUS
10
109.564
20
-97.7739
11
109.567
21
-97.7931
0
LINE
8
BLACK
6
CONTINUOUS
10
109.567
20
-97.7931
11
109.574
21
-97.8114
0
LINE
8
BLACK
6
CONTINUOUS
10
109.574
20
-97.8114
11
109.574
21
-98.1114
0
LINE
8
BLACK
6
CONTINUOUS
10
109.574
20
-98.1114
11
109.573
21
-98.116
0
LINE
8
BLACK
6
CONTINUOUS
10
109.573
20
-98.116
11
109.573
21
-98.118
0
LINE
8
BLACK
6
CONTINUOUS
10
109.573
20
-98.118
11
109.572
21
-98.121
0
LINE
8
BLACK
6
CONTINUOUS
10
109.572
20
-98.121
11
109.569
21
-98.1371
0
LINE
8
BLACK
6
CONTINUOUS
10
109.569
20
-98.1371
11
109.559
21
-98.1496
0
LINE
8
BLACK
6
CONTINUOUS
10
109.559
20
-98.1496
11
109.552
21
-98.1645
0
LINE
8
BLACK
6
CONTINUOUS
10
109.552
20
-98.1645
11
109.509
21
-98.2073
0
LINE
8
BLACK
6
CONTINUOUS
10
109.509
20
-98.2073
11
109.487
21
-98.2223
0
LINE
8
BLACK
6
CONTINUOUS
10
109.487
20
-98.2223
11
109.483
21
-98.2226
0
LINE
8
BLACK
6
CONTINUOUS
10
109.483
20
-98.2226
11
109.479
21
-98.2254
0
LINE
8
BLACK
6
CONTINUOUS
10
109.479
20
-98.2254
11
109.351
21
-98.2683
0
LINE
8
BLACK
6
CONTINUOUS
10
109.351
20
-98.2683
11
109.329
21
-98.2716
0
LINE
8
BLACK
6
CONTINUOUS
10
109.329
20
-98.2716
11
109.327
21
-98.2721
0
LINE
8
BLACK
6
CONTINUOUS
10
109.327
20
-98.2721
11
109.241
21
-98.2721
0
LINE
8
BLACK
6
CONTINUOUS
10
109.241
20
-98.2721
11
109.219
21
-98.2682
0
LINE
8
BLACK
6
CONTINUOUS
10
109.219
20
-98.2682
11
109.218
21
-98.2683
0
LINE
8
BLACK
6
CONTINUOUS
10
109.218
20
-98.2683
11
109.089
21
-98.2254
0
LINE
8
BLACK
6
CONTINUOUS
10
109.089
20
-98.2254
11
109.066
21
-98.213
0
LINE
8
BLACK
6
CONTINUOUS
10
109.066
20
-98.213
11
109.064
21
-98.2092
0
LINE
8
BLACK
6
CONTINUOUS
10
109.064
20
-98.2092
11
109.06
21
-98.2073
0
LINE
8
BLACK
6
CONTINUOUS
10
109.06
20
-98.2073
11
108.974
21
-98.1216
0
LINE
8
BLACK
6
CONTINUOUS
10
108.974
20
-98.1216
11
108.961
21
-98.1032
0
LINE
8
BLACK
6
CONTINUOUS
10
108.961
20
-98.1032
11
108.96
21
-98.1021
0
LINE
8
BLACK
6
CONTINUOUS
10
108.96
20
-98.1021
11
108.917
21
-98.0164
0
LINE
8
BLACK
6
CONTINUOUS
10
108.917
20
-98.0164
11
108.914
21
-98.004
0
LINE
8
BLACK
6
CONTINUOUS
10
108.914
20
-98.004
11
108.912
21
-98.001
0
LINE
8
BLACK
6
CONTINUOUS
10
108.912
20
-98.001
11
108.869
21
-97.8296
0
LINE
8
BLACK
6
CONTINUOUS
10
108.869
20
-97.8296
11
108.868
21
-97.8147
0
LINE
8
BLACK
6
CONTINUOUS
10
108.868
20
-97.8147
11
108.866
21
-97.8114
0
LINE
8
BLACK
6
CONTINUOUS
10
108.866
20
-97.8114
11
108.866
21
-97.6829
0
LINE
8
BLACK
6
CONTINUOUS
10
108.866
20
-97.6829
11
108.869
21
-97.6681
0
LINE
8
BLACK
6
CONTINUOUS
10
108.869
20
-97.6681
11
108.869
21
-97.6647
0
LINE
8
BLACK
6
CONTINUOUS
10
108.869
20
-97.6647
11
108.912
21
-97.4932
0
LINE
8
BLACK
6
CONTINUOUS
10
108.912
20
-97.4932
11
108.917
21
-97.4814
0
LINE
8
BLACK
6
CONTINUOUS
10
108.917
20
-97.4814
11
108.917
21
-97.4779
0
LINE
8
BLACK
6
CONTINUOUS
10
108.917
20
-97.4779
11
108.96
21
-97.3922
0
LINE
8
BLACK
6
CONTINUOUS
10
108.96
20
-97.3922
11
108.973
21
-97.3742
0
LINE
8
BLACK
6
CONTINUOUS
10
108.973
20
-97.3742
11
108.974
21
-97.3727
0
LINE
8
BLACK
6
CONTINUOUS
10
108.974
20
-97.3727
11
109.06
21
-97.287
0
LINE
8
BLACK
6
CONTINUOUS
10
109.06
20
-97.287
11
109.081
21
-97.272
0
LINE
8
BLACK
6
CONTINUOUS
10
109.081
20
-97.272
11
109.086
21
-97.2716
0
LINE
8
BLACK
6
CONTINUOUS
10
109.086
20
-97.2716
11
109.089
21
-97.2688
0
LINE
8
BLACK
6
CONTINUOUS
10
109.089
20
-97.2688
11
109.218
21
-97.226
0
LINE
8
BLACK
6
CONTINUOUS
10
109.218
20
-97.226
11
109.24
21
-97.2227
0
LINE
8
BLACK
6
CONTINUOUS
10
109.24
20
-97.2227
11
109.241
21
-97.2221
0
LINE
8
BLACK
6
CONTINUOUS
10
109.241
20
-97.2221
11
109.37
21
-97.2221
0
LINE
8
BLACK
6
CONTINUOUS
10
109.37
20
-97.2221
11
109.396
21
-97.2267
0
LINE
8
BLACK
6
CONTINUOUS
10
109.354
20
-95.244
11
109.357
21
-95.2437
0
LINE
8
BLACK
6
CONTINUOUS
10
109.357
20
-95.2437
11
109.548
21
-95.2913
0
LINE
8
BLACK
6
CONTINUOUS
10
109.548
20
-95.2913
11
109.572
21
-95.3019
0
LINE
8
BLACK
6
CONTINUOUS
10
109.572
20
-95.3019
11
109.576
21
-95.3079
0
LINE
8
BLACK
6
CONTINUOUS
10
109.576
20
-95.3079
11
109.583
21
-95.311
0
LINE
8
BLACK
6
CONTINUOUS
10
109.583
20
-95.311
11
109.678
21
-95.4063
0
LINE
8
BLACK
6
CONTINUOUS
10
109.678
20
-95.4063
11
109.691
21
-95.4246
0
LINE
8
BLACK
6
CONTINUOUS
10
109.691
20
-95.4246
11
109.692
21
-95.4257
0
LINE
8
BLACK
6
CONTINUOUS
10
109.692
20
-95.4257
11
109.739
21
-95.521
0
LINE
8
BLACK
6
CONTINUOUS
10
109.739
20
-95.521
11
109.747
21
-95.5459
0
LINE
8
BLACK
6
CONTINUOUS
10
109.747
20
-95.5459
11
109.746
21
-95.5503
0
LINE
8
BLACK
6
CONTINUOUS
10
109.746
20
-95.5503
11
109.747
21
-95.5545
0
LINE
8
BLACK
6
CONTINUOUS
10
109.747
20
-95.5545
11
109.747
21
-95.745
0
LINE
8
BLACK
6
CONTINUOUS
10
109.747
20
-95.745
11
109.743
21
-95.7707
0
LINE
8
BLACK
6
CONTINUOUS
10
109.743
20
-95.7707
11
109.74
21
-95.7741
0
LINE
8
BLACK
6
CONTINUOUS
10
109.74
20
-95.7741
11
109.739
21
-95.7785
0
LINE
8
BLACK
6
CONTINUOUS
10
109.739
20
-95.7785
11
109.692
21
-95.8738
0
LINE
8
BLACK
6
CONTINUOUS
10
109.692
20
-95.8738
11
109.678
21
-95.8918
0
LINE
8
BLACK
6
CONTINUOUS
10
109.678
20
-95.8918
11
109.678
21
-95.8933
0
LINE
8
BLACK
6
CONTINUOUS
10
109.678
20
-95.8933
11
109.583
21
-95.9885
0
LINE
8
BLACK
6
CONTINUOUS
10
109.583
20
-95.9885
11
109.561
21
-96.0034
0
LINE
8
BLACK
6
CONTINUOUS
10
109.561
20
-96.0034
11
109.554
21
-96.0041
0
LINE
8
BLACK
6
CONTINUOUS
10
109.554
20
-96.0041
11
109.548
21
-96.0082
0
LINE
8
BLACK
6
CONTINUOUS
10
109.548
20
-96.0082
11
109.357
21
-96.0559
0
LINE
8
BLACK
6
CONTINUOUS
10
109.357
20
-96.0559
11
109.342
21
-96.0569
0
LINE
8
BLACK
6
CONTINUOUS
10
109.342
20
-96.0569
11
109.339
21
-96.0581
0
LINE
8
BLACK
6
CONTINUOUS
10
109.339
20
-96.0581
11
109.006
21
-96.0581
0
LINE
8
BLACK
6
CONTINUOUS
10
109.006
20
-96.0581
11
108.991
21
-96.0555
0
LINE
8
BLACK
6
CONTINUOUS
10
108.991
20
-96.0555
11
108.988
21
-96.0559
0
LINE
8
BLACK
6
CONTINUOUS
10
108.988
20
-96.0559
11
108.797
21
-96.0082
0
LINE
8
BLACK
6
CONTINUOUS
10
108.797
20
-96.0082
11
108.773
21
-95.9976
0
LINE
8
BLACK
6
CONTINUOUS
10
108.773
20
-95.9976
11
108.769
21
-95.9916
0
LINE
8
BLACK
6
CONTINUOUS
10
108.769
20
-95.9916
11
108.762
21
-95.9885
0
LINE
8
BLACK
6
CONTINUOUS
10
108.762
20
-95.9885
11
108.667
21
-95.8933
0
LINE
8
BLACK
6
CONTINUOUS
10
108.667
20
-95.8933
11
108.654
21
-95.8749
0
LINE
8
BLACK
6
CONTINUOUS
10
108.654
20
-95.8749
11
108.653
21
-95.8738
0
LINE
8
BLACK
6
CONTINUOUS
10
108.653
20
-95.8738
11
108.605
21
-95.7785
0
LINE
8
BLACK
6
CONTINUOUS
10
108.605
20
-95.7785
11
108.598
21
-95.7536
0
LINE
8
BLACK
6
CONTINUOUS
10
108.598
20
-95.7536
11
108.599
21
-95.7492
0
LINE
8
BLACK
6
CONTINUOUS
10
108.599
20
-95.7492
11
108.597
21
-95.745
0
LINE
8
BLACK
6
CONTINUOUS
10
108.597
20
-95.745
11
108.597
21
-95.5545
0
LINE
8
BLACK
6
CONTINUOUS
10
108.597
20
-95.5545
11
108.602
21
-95.5289
0
LINE
8
BLACK
6
CONTINUOUS
10
108.602
20
-95.5289
11
108.605
21
-95.5254
0
LINE
8
BLACK
6
CONTINUOUS
10
108.605
20
-95.5254
11
108.605
21
-95.521
0
LINE
8
BLACK
6
CONTINUOUS
10
108.605
20
-95.521
11
108.653
21
-95.4257
0
LINE
8
BLACK
6
CONTINUOUS
10
108.653
20
-95.4257
11
108.666
21
-95.4077
0
LINE
8
BLACK
6
CONTINUOUS
10
108.666
20
-95.4077
11
108.667
21
-95.4063
0
LINE
8
BLACK
6
CONTINUOUS
10
108.667
20
-95.4063
11
108.762
21
-95.311
0
LINE
8
BLACK
6
CONTINUOUS
10
108.762
20
-95.311
11
108.784
21
-95.2961
0
LINE
8
BLACK
6
CONTINUOUS
10
108.784
20
-95.2961
11
108.791
21
-95.2954
0
LINE
8
BLACK
6
CONTINUOUS
10
108.791
20
-95.2954
11
108.797
21
-95.2913
0
LINE
8
BLACK
6
CONTINUOUS
10
108.797
20
-95.2913
11
108.988
21
-95.2437
0
LINE
8
BLACK
6
CONTINUOUS
10
108.988
20
-95.2437
11
109.002
21
-95.2426
0
LINE
8
BLACK
6
CONTINUOUS
10
109.002
20
-95.2426
11
109.006
21
-95.2414
0
LINE
8
BLACK
6
CONTINUOUS
10
109.006
20
-95.2414
11
109.339
21
-95.2414
0
LINE
8
BLACK
6
CONTINUOUS
10
109.339
20
-95.2414
11
109.354
21
-95.244
0
LINE
8
BLACK
6
CONTINUOUS
10
109.015
20
-95.3914
11
108.854
21
-95.4318
0
LINE
8
BLACK
6
CONTINUOUS
10
108.854
20
-95.4318
11
108.782
21
-95.5037
0
LINE
8
BLACK
6
CONTINUOUS
10
108.782
20
-95.5037
11
108.747
21
-95.5722
0
LINE
8
BLACK
6
CONTINUOUS
10
108.747
20
-95.5722
11
108.747
21
-95.7273
0
LINE
8
BLACK
6
CONTINUOUS
10
108.747
20
-95.7273
11
108.782
21
-95.7958
0
LINE
8
BLACK
6
CONTINUOUS
10
108.782
20
-95.7958
11
108.854
21
-95.8678
0
LINE
8
BLACK
6
CONTINUOUS
10
108.854
20
-95.8678
11
109.015
21
-95.9081
0
LINE
8
BLACK
6
CONTINUOUS
10
109.015
20
-95.9081
11
109.33
21
-95.9081
0
LINE
8
BLACK
6
CONTINUOUS
10
109.33
20
-95.9081
11
109.491
21
-95.8678
0
LINE
8
BLACK
6
CONTINUOUS
10
109.491
20
-95.8678
11
109.563
21
-95.7958
0
LINE
8
BLACK
6
CONTINUOUS
10
109.563
20
-95.7958
11
109.597
21
-95.7273
0
LINE
8
BLACK
6
CONTINUOUS
10
109.597
20
-95.7273
11
109.597
21
-95.5722
0
LINE
8
BLACK
6
CONTINUOUS
10
109.597
20
-95.5722
11
109.563
21
-95.5037
0
LINE
8
BLACK
6
CONTINUOUS
10
109.563
20
-95.5037
11
109.491
21
-95.4318
0
LINE
8
BLACK
6
CONTINUOUS
10
109.491
20
-95.4318
11
109.33
21
-95.3914
0
LINE
8
BLACK
6
CONTINUOUS
10
109.33
20
-95.3914
11
109.015
21
-95.3914
0
LINE
8
BLACK
6
CONTINUOUS
10
91.3783
20
-94.6269
11
91.3836
21
-94.6314
0
LINE
8
BLACK
6
CONTINUOUS
10
91.3836
20
-94.6314
11
91.3904
21
-94.6326
0
LINE
8
BLACK
6
CONTINUOUS
10
91.3904
20
-94.6326
11
91.4028
21
-94.6475
0
LINE
8
BLACK
6
CONTINUOUS
10
91.4028
20
-94.6475
11
91.4176
21
-94.6599
0
LINE
8
BLACK
6
CONTINUOUS
10
91.4176
20
-94.6599
11
91.4188
21
-94.6667
0
LINE
8
BLACK
6
CONTINUOUS
10
91.4188
20
-94.6667
11
91.4232
21
-94.672
0
LINE
8
BLACK
6
CONTINUOUS
10
91.4232
20
-94.672
11
91.4231
21
-94.6914
0
LINE
8
BLACK
6
CONTINUOUS
10
91.4231
20
-94.6914
11
91.4265
21
-94.7104
0
LINE
8
BLACK
6
CONTINUOUS
10
91.4265
20
-94.7104
11
91.423
21
-94.7164
0
LINE
8
BLACK
6
CONTINUOUS
10
91.423
20
-94.7164
11
91.423
21
-94.7233
0
LINE
8
BLACK
6
CONTINUOUS
10
91.423
20
-94.7233
11
91.4105
21
-94.7381
0
LINE
8
BLACK
6
CONTINUOUS
10
91.4105
20
-94.7381
11
91.4008
21
-94.7548
0
LINE
8
BLACK
6
CONTINUOUS
10
91.4008
20
-94.7548
11
91.3943
21
-94.7572
0
LINE
8
BLACK
6
CONTINUOUS
10
91.3943
20
-94.7572
11
91.3898
21
-94.7625
0
LINE
8
BLACK
6
CONTINUOUS
10
91.3898
20
-94.7625
11
90.635
21
-95.1938
0
LINE
8
BLACK
6
CONTINUOUS
10
90.635
20
-95.1938
11
91.3526
21
-95.1938
0
LINE
8
BLACK
6
CONTINUOUS
10
91.3526
20
-95.1938
11
91.3783
21
-95.1983
0
LINE
8
BLACK
6
CONTINUOUS
10
91.3783
20
-95.1983
11
91.4176
21
-95.2313
0
LINE
8
BLACK
6
CONTINUOUS
10
91.4176
20
-95.2313
11
91.4265
21
-95.2818
0
LINE
8
BLACK
6
CONTINUOUS
10
91.4265
20
-95.2818
11
91.4008
21
-95.3263
0
LINE
8
BLACK
6
CONTINUOUS
10
91.4008
20
-95.3263
11
91.3526
21
-95.3438
0
LINE
8
BLACK
6
CONTINUOUS
10
91.3526
20
-95.3438
11
90.3526
21
-95.3438
0
LINE
8
BLACK
6
CONTINUOUS
10
90.3526
20
-95.3438
11
90.327
21
-95.3393
0
LINE
8
BLACK
6
CONTINUOUS
10
90.327
20
-95.3393
11
90.3217
21
-95.3348
0
LINE
8
BLACK
6
CONTINUOUS
10
90.3217
20
-95.3348
11
90.3148
21
-95.3336
0
LINE
8
BLACK
6
CONTINUOUS
10
90.3148
20
-95.3336
11
90.3025
21
-95.3187
0
LINE
8
BLACK
6
CONTINUOUS
10
90.3025
20
-95.3187
11
90.2877
21
-95.3063
0
LINE
8
BLACK
6
CONTINUOUS
10
90.2877
20
-95.3063
11
90.2865
21
-95.2995
0
LINE
8
BLACK
6
CONTINUOUS
10
90.2865
20
-95.2995
11
90.282
21
-95.2941
0
LINE
8
BLACK
6
CONTINUOUS
10
90.282
20
-95.2941
11
90.2821
21
-95.2748
0
LINE
8
BLACK
6
CONTINUOUS
10
90.2821
20
-95.2748
11
90.2788
21
-95.2558
0
LINE
8
BLACK
6
CONTINUOUS
10
90.2788
20
-95.2558
11
90.2822
21
-95.2498
0
LINE
8
BLACK
6
CONTINUOUS
10
90.2822
20
-95.2498
11
90.2823
21
-95.2428
0
LINE
8
BLACK
6
CONTINUOUS
10
90.2823
20
-95.2428
11
90.2947
21
-95.2281
0
LINE
8
BLACK
6
CONTINUOUS
10
90.2947
20
-95.2281
11
90.3044
21
-95.2114
0
LINE
8
BLACK
6
CONTINUOUS
10
90.3044
20
-95.2114
11
90.3109
21
-95.209
0
LINE
8
BLACK
6
CONTINUOUS
10
90.3109
20
-95.209
11
90.3154
21
-95.2037
0
LINE
8
BLACK
6
CONTINUOUS
10
90.3154
20
-95.2037
11
91.0702
21
-94.7724
0
LINE
8
BLACK
6
CONTINUOUS
10
91.0702
20
-94.7724
11
90.3526
21
-94.7724
0
LINE
8
BLACK
6
CONTINUOUS
10
90.3526
20
-94.7724
11
90.327
21
-94.7679
0
LINE
8
BLACK
6
CONTINUOUS
10
90.327
20
-94.7679
11
90.2877
21
-94.7349
0
LINE
8
BLACK
6
CONTINUOUS
10
90.2877
20
-94.7349
11
90.2788
21
-94.6844
0
LINE
8
BLACK
6
CONTINUOUS
10
90.2788
20
-94.6844
11
90.3044
21
-94.6399
0
LINE
8
BLACK
6
CONTINUOUS
10
90.3044
20
-94.6399
11
90.3526
21
-94.6224
0
LINE
8
BLACK
6
CONTINUOUS
10
90.3526
20
-94.6224
11
91.3526
21
-94.6224
0
LINE
8
BLACK
6
CONTINUOUS
10
91.3526
20
-94.6224
11
91.3783
21
-94.6269
0
LINE
8
BLACK
6
CONTINUOUS
10
109.508
20
-94.246
11
109.511
21
-94.2488
0
LINE
8
BLACK
6
CONTINUOUS
10
109.511
20
-94.2488
11
109.515
21
-94.2493
0
LINE
8
BLACK
6
CONTINUOUS
10
109.515
20
-94.2493
11
109.611
21
-94.297
0
LINE
8
BLACK
6
CONTINUOUS
10
109.611
20
-94.297
11
109.629
21
-94.3103
0
LINE
8
BLACK
6
CONTINUOUS
10
109.629
20
-94.3103
11
109.63
21
-94.311
0
LINE
8
BLACK
6
CONTINUOUS
10
109.63
20
-94.311
11
109.678
21
-94.3586
0
LINE
8
BLACK
6
CONTINUOUS
10
109.678
20
-94.3586
11
109.691
21
-94.377
0
LINE
8
BLACK
6
CONTINUOUS
10
109.691
20
-94.377
11
109.692
21
-94.3781
0
LINE
8
BLACK
6
CONTINUOUS
10
109.692
20
-94.3781
11
109.739
21
-94.4734
0
LINE
8
BLACK
6
CONTINUOUS
10
109.739
20
-94.4734
11
109.747
21
-94.4983
0
LINE
8
BLACK
6
CONTINUOUS
10
109.747
20
-94.4983
11
109.746
21
-94.5027
0
LINE
8
BLACK
6
CONTINUOUS
10
109.746
20
-94.5027
11
109.747
21
-94.5069
0
LINE
8
BLACK
6
CONTINUOUS
10
109.747
20
-94.5069
11
109.747
21
-94.6974
0
LINE
8
BLACK
6
CONTINUOUS
10
109.747
20
-94.6974
11
109.743
21
-94.723
0
LINE
8
BLACK
6
CONTINUOUS
10
109.743
20
-94.723
11
109.74
21
-94.7265
0
LINE
8
BLACK
6
CONTINUOUS
10
109.74
20
-94.7265
11
109.739
21
-94.7309
0
LINE
8
BLACK
6
CONTINUOUS
10
109.739
20
-94.7309
11
109.692
21
-94.8262
0
LINE
8
BLACK
6
CONTINUOUS
10
109.692
20
-94.8262
11
109.678
21
-94.8442
0
LINE
8
BLACK
6
CONTINUOUS
10
109.678
20
-94.8442
11
109.678
21
-94.8457
0
LINE
8
BLACK
6
CONTINUOUS
10
109.678
20
-94.8457
11
109.63
21
-94.8933
0
LINE
8
BLACK
6
CONTINUOUS
10
109.63
20
-94.8933
11
109.612
21
-94.9061
0
LINE
8
BLACK
6
CONTINUOUS
10
109.612
20
-94.9061
11
109.611
21
-94.9073
0
LINE
8
BLACK
6
CONTINUOUS
10
109.611
20
-94.9073
11
109.515
21
-94.9549
0
LINE
8
BLACK
6
CONTINUOUS
10
109.515
20
-94.9549
11
109.49
21
-94.9624
0
LINE
8
BLACK
6
CONTINUOUS
10
109.49
20
-94.9624
11
109.486
21
-94.9613
0
LINE
8
BLACK
6
CONTINUOUS
10
109.486
20
-94.9613
11
109.482
21
-94.9629
0
LINE
8
BLACK
6
CONTINUOUS
10
109.482
20
-94.9629
11
108.672
21
-94.9629
0
LINE
8
BLACK
6
CONTINUOUS
10
108.672
20
-94.9629
11
108.647
21
-94.9583
0
LINE
8
BLACK
6
CONTINUOUS
10
108.647
20
-94.9583
11
108.607
21
-94.9254
0
LINE
8
BLACK
6
CONTINUOUS
10
108.607
20
-94.9254
11
108.599
21
-94.8748
0
LINE
8
BLACK
6
CONTINUOUS
10
108.599
20
-94.8748
11
108.624
21
-94.8304
0
LINE
8
BLACK
6
CONTINUOUS
10
108.624
20
-94.8304
11
108.672
21
-94.8129
0
LINE
8
BLACK
6
CONTINUOUS
10
108.672
20
-94.8129
11
109.464
21
-94.8129
0
LINE
8
BLACK
6
CONTINUOUS
10
109.464
20
-94.8129
11
109.533
21
-94.7786
0
LINE
8
BLACK
6
CONTINUOUS
10
109.533
20
-94.7786
11
109.563
21
-94.7482
0
LINE
8
BLACK
6
CONTINUOUS
10
109.563
20
-94.7482
11
109.597
21
-94.6797
0
LINE
8
BLACK
6
CONTINUOUS
10
109.597
20
-94.6797
11
109.597
21
-94.5246
0
LINE
8
BLACK
6
CONTINUOUS
10
109.597
20
-94.5246
11
109.563
21
-94.4561
0
LINE
8
BLACK
6
CONTINUOUS
10
109.563
20
-94.4561
11
109.533
21
-94.4257
0
LINE
8
BLACK
6
CONTINUOUS
10
109.533
20
-94.4257
11
109.464
21
-94.3914
0
LINE
8
BLACK
6
CONTINUOUS
10
109.464
20
-94.3914
11
108.672
21
-94.3914
0
LINE
8
BLACK
6
CONTINUOUS
10
108.672
20
-94.3914
11
108.647
21
-94.3869
0
LINE
8
BLACK
6
CONTINUOUS
10
108.647
20
-94.3869
11
108.607
21
-94.3539
0
LINE
8
BLACK
6
CONTINUOUS
10
108.607
20
-94.3539
11
108.599
21
-94.3034
0
LINE
8
BLACK
6
CONTINUOUS
10
108.599
20
-94.3034
11
108.624
21
-94.259
0
LINE
8
BLACK
6
CONTINUOUS
10
108.624
20
-94.259
11
108.672
21
-94.2414
0
LINE
8
BLACK
6
CONTINUOUS
10
108.672
20
-94.2414
11
109.482
21
-94.2414
0
LINE
8
BLACK
6
CONTINUOUS
10
109.482
20
-94.2414
11
109.508
21
-94.246
0
LINE
8
BLACK
6
CONTINUOUS
10
91.3783
20
-94.1507
11
91.4176
21
-94.1837
0
LINE
8
BLACK
6
CONTINUOUS
10
91.4176
20
-94.1837
11
91.4265
21
-94.2342
0
LINE
8
BLACK
6
CONTINUOUS
10
91.4265
20
-94.2342
11
91.4008
21
-94.2786
0
LINE
8
BLACK
6
CONTINUOUS
10
91.4008
20
-94.2786
11
91.3526
21
-94.2962
0
LINE
8
BLACK
6
CONTINUOUS
10
91.3526
20
-94.2962
11
90.3526
21
-94.2962
0
LINE
8
BLACK
6
CONTINUOUS
10
90.3526
20
-94.2962
11
90.327
21
-94.2917
0
LINE
8
BLACK
6
CONTINUOUS
10
90.327
20
-94.2917
11
90.2877
21
-94.2587
0
LINE
8
BLACK
6
CONTINUOUS
10
90.2877
20
-94.2587
11
90.2788
21
-94.2082
0
LINE
8
BLACK
6
CONTINUOUS
10
90.2788
20
-94.2082
11
90.3044
21
-94.1637
0
LINE
8
BLACK
6
CONTINUOUS
10
90.3044
20
-94.1637
11
90.3526
21
-94.1462
0
LINE
8
BLACK
6
CONTINUOUS
10
90.3526
20
-94.1462
11
91.3526
21
-94.1462
0
LINE
8
BLACK
6
CONTINUOUS
10
91.3526
20
-94.1462
11
91.3783
21
-94.1507
0
LINE
8
BLACK
6
CONTINUOUS
10
108.73
20
-93.3635
11
108.747
21
-93.4117
0
LINE
8
BLACK
6
CONTINUOUS
10
108.747
20
-93.4117
11
108.747
21
-93.6224
0
LINE
8
BLACK
6
CONTINUOUS
10
108.747
20
-93.6224
11
109.672
21
-93.6224
0
LINE
8
BLACK
6
CONTINUOUS
10
109.672
20
-93.6224
11
109.698
21
-93.6269
0
LINE
8
BLACK
6
CONTINUOUS
10
109.698
20
-93.6269
11
109.737
21
-93.6599
0
LINE
8
BLACK
6
CONTINUOUS
10
109.737
20
-93.6599
11
109.746
21
-93.7104
0
LINE
8
BLACK
6
CONTINUOUS
10
109.746
20
-93.7104
11
109.721
21
-93.7548
0
LINE
8
BLACK
6
CONTINUOUS
10
109.721
20
-93.7548
11
109.672
21
-93.7724
0
LINE
8
BLACK
6
CONTINUOUS
10
109.672
20
-93.7724
11
108.747
21
-93.7724
0
LINE
8
BLACK
6
CONTINUOUS
10
108.747
20
-93.7724
11
108.747
21
-93.9831
0
LINE
8
BLACK
6
CONTINUOUS
10
108.747
20
-93.9831
11
108.743
21
-94.0087
0
LINE
8
BLACK
6
CONTINUOUS
10
108.743
20
-94.0087
11
108.71
21
-94.048
0
LINE
8
BLACK
6
CONTINUOUS
10
108.71
20
-94.048
11
108.659
21
-94.057
0
LINE
8
BLACK
6
CONTINUOUS
10
108.659
20
-94.057
11
108.615
21
-94.0313
0
LINE
8
BLACK
6
CONTINUOUS
10
108.615
20
-94.0313
11
108.597
21
-93.9831
0
LINE
8
BLACK
6
CONTINUOUS
10
108.597
20
-93.9831
11
108.597
21
-93.4117
0
LINE
8
BLACK
6
CONTINUOUS
10
108.597
20
-93.4117
11
108.602
21
-93.386
0
LINE
8
BLACK
6
CONTINUOUS
10
108.602
20
-93.386
11
108.635
21
-93.3467
0
LINE
8
BLACK
6
CONTINUOUS
10
108.635
20
-93.3467
11
108.685
21
-93.3378
0
LINE
8
BLACK
6
CONTINUOUS
10
108.685
20
-93.3378
11
108.73
21
-93.3635
0
LINE
8
BLACK
6
CONTINUOUS
10
109.277
20
-91.1132
11
109.295
21
-91.1614
0
LINE
8
BLACK
6
CONTINUOUS
10
109.295
20
-91.1614
11
109.295
21
-91.4293
0
LINE
8
BLACK
6
CONTINUOUS
10
109.295
20
-91.4293
11
109.563
21
-91.4293
0
LINE
8
BLACK
6
CONTINUOUS
10
109.563
20
-91.4293
11
109.589
21
-91.4338
0
LINE
8
BLACK
6
CONTINUOUS
10
109.589
20
-91.4338
11
109.628
21
-91.4668
0
LINE
8
BLACK
6
CONTINUOUS
10
109.628
20
-91.4668
11
109.637
21
-91.5173
0
LINE
8
BLACK
6
CONTINUOUS
10
109.637
20
-91.5173
11
109.611
21
-91.5617
0
LINE
8
BLACK
6
CONTINUOUS
10
109.611
20
-91.5617
11
109.563
21
-91.5793
0
LINE
8
BLACK
6
CONTINUOUS
10
109.563
20
-91.5793
11
109.295
21
-91.5793
0
LINE
8
BLACK
6
CONTINUOUS
10
109.295
20
-91.5793
11
109.295
21
-91.8471
0
LINE
8
BLACK
6
CONTINUOUS
10
109.295
20
-91.8471
11
109.29
21
-91.8728
0
LINE
8
BLACK
6
CONTINUOUS
10
109.29
20
-91.8728
11
109.257
21
-91.9121
0
LINE
8
BLACK
6
CONTINUOUS
10
109.257
20
-91.9121
11
109.207
21
-91.921
0
LINE
8
BLACK
6
CONTINUOUS
10
109.207
20
-91.921
11
109.163
21
-91.8954
0
LINE
8
BLACK
6
CONTINUOUS
10
109.163
20
-91.8954
11
109.145
21
-91.8471
0
LINE
8
BLACK
6
CONTINUOUS
10
109.145
20
-91.8471
11
109.145
21
-91.5793
0
LINE
8
BLACK
6
CONTINUOUS
10
109.145
20
-91.5793
11
108.877
21
-91.5793
0
LINE
8
BLACK
6
CONTINUOUS
10
108.877
20
-91.5793
11
108.851
21
-91.5748
0
LINE
8
BLACK
6
CONTINUOUS
10
108.851
20
-91.5748
11
108.812
21
-91.5418
0
LINE
8
BLACK
6
CONTINUOUS
10
108.812
20
-91.5418
11
108.803
21
-91.4913
0
LINE
8
BLACK
6
CONTINUOUS
10
108.803
20
-91.4913
11
108.829
21
-91.4468
0
LINE
8
BLACK
6
CONTINUOUS
10
108.829
20
-91.4468
11
108.877
21
-91.4293
0
LINE
8
BLACK
6
CONTINUOUS
10
108.877
20
-91.4293
11
109.145
21
-91.4293
0
LINE
8
BLACK
6
CONTINUOUS
10
109.145
20
-91.4293
11
109.145
21
-91.1614
0
LINE
8
BLACK
6
CONTINUOUS
10
109.145
20
-91.1614
11
109.15
21
-91.1358
0
LINE
8
BLACK
6
CONTINUOUS
10
109.15
20
-91.1358
11
109.182
21
-91.0965
0
LINE
8
BLACK
6
CONTINUOUS
10
109.182
20
-91.0965
11
109.233
21
-91.0876
0
LINE
8
BLACK
6
CONTINUOUS
10
109.233
20
-91.0876
11
109.277
21
-91.1132
0
LINE
8
BLACK
6
CONTINUOUS
10
90.8625
20
-91.1132
11
90.88
21
-91.1614
0
LINE
8
BLACK
6
CONTINUOUS
10
90.88
20
-91.1614
11
90.88
21
-91.4293
0
LINE
8
BLACK
6
CONTINUOUS
10
90.88
20
-91.4293
11
91.1479
21
-91.4293
0
LINE
8
BLACK
6
CONTINUOUS
10
91.1479
20
-91.4293
11
91.1735
21
-91.4338
0
LINE
8
BLACK
6
CONTINUOUS
10
91.1735
20
-91.4338
11
91.2128
21
-91.4668
0
LINE
8
BLACK
6
CONTINUOUS
10
91.2128
20
-91.4668
11
91.2217
21
-91.5173
0
LINE
8
BLACK
6
CONTINUOUS
10
91.2217
20
-91.5173
11
91.1961
21
-91.5617
0
LINE
8
BLACK
6
CONTINUOUS
10
91.1961
20
-91.5617
11
91.1479
21
-91.5793
0
LINE
8
BLACK
6
CONTINUOUS
10
91.1479
20
-91.5793
11
90.88
21
-91.5793
0
LINE
8
BLACK
6
CONTINUOUS
10
90.88
20
-91.5793
11
90.88
21
-91.8471
0
LINE
8
BLACK
6
CONTINUOUS
10
90.88
20
-91.8471
11
90.8755
21
-91.8728
0
LINE
8
BLACK
6
CONTINUOUS
10
90.8755
20
-91.8728
11
90.8425
21
-91.9121
0
LINE
8
BLACK
6
CONTINUOUS
10
90.8425
20
-91.9121
11
90.792
21
-91.921
0
LINE
8
BLACK
6
CONTINUOUS
10
90.792
20
-91.921
11
90.7475
21
-91.8954
0
LINE
8
BLACK
6
CONTINUOUS
10
90.7475
20
-91.8954
11
90.73
21
-91.8471
0
LINE
8
BLACK
6
CONTINUOUS
10
90.73
20
-91.8471
11
90.73
21
-91.5793
0
LINE
8
BLACK
6
CONTINUOUS
10
90.73
20
-91.5793
11
90.4621
21
-91.5793
0
LINE
8
BLACK
6
CONTINUOUS
10
90.4621
20
-91.5793
11
90.4365
21
-91.5748
0
LINE
8
BLACK
6
CONTINUOUS
10
90.4365
20
-91.5748
11
90.3972
21
-91.5418
0
LINE
8
BLACK
6
CONTINUOUS
10
90.3972
20
-91.5418
11
90.3883
21
-91.4913
0
LINE
8
BLACK
6
CONTINUOUS
10
90.3883
20
-91.4913
11
90.4139
21
-91.4468
0
LINE
8
BLACK
6
CONTINUOUS
10
90.4139
20
-91.4468
11
90.4621
21
-91.4293
0
LINE
8
BLACK
6
CONTINUOUS
10
90.4621
20
-91.4293
11
90.73
21
-91.4293
0
LINE
8
BLACK
6
CONTINUOUS
10
90.73
20
-91.4293
11
90.73
21
-91.1614
0
LINE
8
BLACK
6
CONTINUOUS
10
90.73
20
-91.1614
11
90.7345
21
-91.1358
0
LINE
8
BLACK
6
CONTINUOUS
10
90.7345
20
-91.1358
11
90.7675
21
-91.0965
0
LINE
8
BLACK
6
CONTINUOUS
10
90.7675
20
-91.0965
11
90.818
21
-91.0876
0
LINE
8
BLACK
6
CONTINUOUS
10
90.818
20
-91.0876
11
90.8625
21
-91.1132
  0
ENDSEC
  0
EOF
